<?xml version="1.0" encoding="UTF-8"?>
<!DOCTYPE svg PUBLIC "-//W3C//DTD SVG 1.1//EN" "http://www.w3.org/Graphics/SVG/1.1/DTD/svg11.dtd">
<svg xmlns="http://www.w3.org/2000/svg" version="1.1" width="3840px" height="2160px" style="shape-rendering:geometricPrecision; text-rendering:geometricPrecision; image-rendering:optimizeQuality; fill-rule:evenodd; clip-rule:evenodd" xmlns:xlink="http://www.w3.org/1999/xlink">
<g><path style="opacity:1" fill="#4a5865" d="M 357.5,774.5 C 394.168,774.333 430.835,774.5 467.5,775C 542.818,780.998 613.151,802.665 678.5,840C 788.926,910.757 832.426,1011.26 809,1141.5C 793.473,1208.34 757.973,1261.84 702.5,1302C 631.891,1349.83 553.891,1376.83 468.5,1383C 372.36,1393.09 280.026,1379.42 191.5,1342C 137.585,1318.8 92.7519,1283.97 57,1237.5C 19.5241,1182.02 3.85745,1120.68 10,1053.5C 17.634,971.381 54.4674,905.881 120.5,857C 175.205,819.17 235.539,794.17 301.5,782C 320.184,778.492 338.851,775.992 357.5,774.5 Z M 383.5,913.5 C 403.355,913.645 423.189,913.645 443,913.5C 498.818,916.335 551.651,930.168 601.5,955C 623.223,967.438 642.056,983.271 658,1002.5C 680.231,1034.5 687.565,1069.5 680,1107.5C 674.692,1130.1 664.026,1150.1 648,1167.5C 627.417,1188.21 603.583,1204.04 576.5,1215C 513.215,1240.09 447.548,1249.75 379.5,1244C 317.806,1241.58 260.473,1224.92 207.5,1194C 176.828,1173.99 155.995,1146.49 145,1111.5C 133.677,1052.78 151.844,1005.61 199.5,970C 233.898,946.982 271.565,931.316 312.5,923C 336.107,918.36 359.774,915.193 383.5,913.5 Z"/></g>
<g><path style="opacity:1" fill="#4a5865" d="M 1227.5,774.5 C 1264.5,774.333 1301.5,774.5 1338.5,775C 1421.74,781.189 1498.07,806.855 1567.5,852C 1657.43,916.764 1696.26,1004.93 1684,1116.5C 1675,1185.35 1644.5,1242.19 1592.5,1287C 1534.12,1332.84 1468.12,1362.51 1394.5,1376C 1376.33,1379.64 1358,1381.98 1339.5,1383C 1246.11,1392.9 1156.11,1380.23 1069.5,1345C 1020.2,1324.32 977.697,1294.48 942,1255.5C 897.63,1200.38 876.797,1137.38 879.5,1066.5C 883.699,985.607 916.366,919.44 977.5,868C 1027.08,829.385 1082.74,802.718 1144.5,788C 1172.02,781.724 1199.69,777.224 1227.5,774.5 Z M 1251.5,913.5 C 1271.42,913.779 1291.25,913.779 1311,913.5C 1364.7,916.05 1415.87,928.55 1464.5,951C 1494.7,965.551 1518.87,986.718 1537,1014.5C 1559.27,1058.08 1558.94,1101.74 1536,1145.5C 1519.35,1169.59 1498.19,1188.75 1472.5,1203C 1423.18,1227.75 1370.85,1241.41 1315.5,1244C 1252.08,1248.75 1190.41,1240.75 1130.5,1220C 1097.67,1207.67 1068.84,1189.17 1044,1164.5C 1008.87,1120.34 1002.87,1072.34 1026,1020.5C 1038.39,999.119 1054.55,981.286 1074.5,967C 1107.93,945.461 1144.27,930.794 1183.5,923C 1206.13,918.541 1228.79,915.374 1251.5,913.5 Z"/></g>
<g><path style="opacity:1" fill="#4a5865" d="M 1911.5,774.5 C 2032.83,774.5 2154.17,774.5 2275.5,774.5C 2275.5,815.167 2275.5,855.833 2275.5,896.5C 2174.5,896.333 2073.5,896.5 1972.5,897C 1944.89,903.277 1929.06,920.443 1925,948.5C 1924.5,971.498 1924.33,994.498 1924.5,1017.5C 2041.5,1017.5 2158.5,1017.5 2275.5,1017.5C 2275.5,1058.5 2275.5,1099.5 2275.5,1140.5C 2158.5,1140.5 2041.5,1140.5 1924.5,1140.5C 1924.5,1221.5 1924.5,1302.5 1924.5,1383.5C 1875.5,1383.5 1826.5,1383.5 1777.5,1383.5C 1777.5,1225.46 1777.5,1067.63 1777.5,910C 1783.96,855.381 1811.29,815.047 1859.5,789C 1876.25,781.576 1893.58,776.742 1911.5,774.5 Z"/></g>
<g><path style="opacity:1" fill="#4a5865" d="M 2692.5,774.5 C 2781.35,766.05 2867.35,777.55 2950.5,809C 3004.83,829.91 3051.33,862.077 3090,905.5C 3126.01,949.902 3145.67,1000.9 3149,1058.5C 3154.3,1172.75 3108.47,1259.58 3011.5,1319C 2947.09,1355.58 2877.75,1376.91 2803.5,1383C 2709.01,1393.08 2618.01,1380.08 2530.5,1344C 2482.32,1323.8 2440.82,1294.3 2406,1255.5C 2368.86,1211.16 2348.19,1159.82 2344,1101.5C 2337.94,987.116 2383.44,899.95 2480.5,840C 2546.12,802.387 2616.79,780.554 2692.5,774.5 Z M 2717.5,913.5 C 2735.81,914.791 2754.15,914.791 2772.5,913.5C 2825.5,915.584 2876.17,927.418 2924.5,949C 2955.5,963.67 2980.67,985.17 3000,1013.5C 3017.41,1045.87 3021.75,1079.53 3013,1114.5C 3001.89,1147.61 2981.73,1173.78 2952.5,1193C 2910.14,1218.9 2864.14,1234.9 2814.5,1241C 2748.26,1249.4 2682.93,1245.07 2618.5,1228C 2580.31,1217.41 2546.31,1199.24 2516.5,1173.5C 2477.55,1133.35 2466.72,1086.35 2484,1032.5C 2499.54,998.292 2524.04,972.459 2557.5,955C 2594.11,936.463 2632.78,924.13 2673.5,918C 2688.29,916.225 2702.96,914.725 2717.5,913.5 Z"/></g>
<g><path style="opacity:1" fill="#4a5865" d="M 3356.5,774.5 C 3474.83,774.5 3593.17,774.5 3711.5,774.5C 3711.5,815.167 3711.5,855.833 3711.5,896.5C 3598.17,896.333 3484.83,896.5 3371.5,897C 3347.54,902.298 3334.04,917.131 3331,941.5C 3326.05,967.265 3332.89,989.098 3351.5,1007C 3358.31,1012.24 3365.98,1015.57 3374.5,1017C 3442.83,1017.33 3511.17,1017.67 3579.5,1018C 3651.33,1027.16 3701.5,1064.99 3730,1131.5C 3748.9,1184.26 3747.9,1236.6 3727,1288.5C 3700.64,1343.6 3657.14,1375.1 3596.5,1383C 3466.83,1383.5 3337.17,1383.67 3207.5,1383.5C 3207.5,1342.83 3207.5,1302.17 3207.5,1261.5C 3332.5,1261.67 3457.5,1261.5 3582.5,1261C 3608.17,1252.36 3620.84,1234.36 3620.5,1207C 3623.59,1178.84 3612.92,1157.84 3588.5,1144C 3583.41,1142.08 3578.25,1140.58 3573,1139.5C 3511.41,1139.18 3449.74,1139.51 3388,1140.5C 3309.52,1132.3 3254.52,1092.3 3223,1020.5C 3197.5,956.313 3203.84,895.647 3242,838.5C 3271.24,801.134 3309.4,779.8 3356.5,774.5 Z"/></g>
<g><path style="opacity:1" fill="#a0c53a" d="M 1080.5,1034.5 C 1215.5,1034.17 1350.5,1034.5 1485.5,1035.5C 1485.71,1036.09 1486.04,1036.59 1486.5,1037C 1486.17,1065.33 1485.83,1093.67 1485.5,1122C 1350.5,1122.5 1215.5,1122.67 1080.5,1122.5C 1080.5,1093.17 1080.5,1063.83 1080.5,1034.5 Z"/></g>
<g><path style="opacity:1" fill="#4a5865" d="M 3781.5,1302.5 C 3805.21,1300.26 3821.04,1310.26 3829,1332.5C 3832.79,1358.44 3822.29,1375.27 3797.5,1383C 3781.21,1385.73 3767.71,1380.89 3757,1368.5C 3747.41,1354 3746.07,1339 3753,1323.5C 3759.85,1312.68 3769.35,1305.68 3781.5,1302.5 Z M 3780.5,1308.5 C 3801.87,1305.59 3816.04,1314.26 3823,1334.5C 3825.7,1353.59 3818.54,1367.43 3801.5,1376C 3781.02,1381.17 3766.18,1374.34 3757,1355.5C 3751.56,1333.05 3759.39,1317.38 3780.5,1308.5 Z M 3780.5,1326.5 C 3785.12,1326.62 3789.45,1327.12 3793.5,1328C 3797.61,1332.26 3797.28,1336.26 3792.5,1340C 3788.51,1340.5 3784.51,1340.67 3780.5,1340.5C 3780.5,1335.83 3780.5,1331.17 3780.5,1326.5 Z"/></g>
<g><path style="opacity:1" fill="#4a5865" d="M 3772.5,1319.5 C 3780.5,1319.15 3788.5,1319.65 3796.5,1321C 3805.67,1324.5 3808.17,1330.67 3804,1339.5C 3801.77,1341.7 3799.27,1343.53 3796.5,1345C 3801.9,1351.01 3807.4,1356.85 3813,1362.5C 3813.69,1363.33 3813.52,1364 3812.5,1364.5C 3809.5,1364.33 3806.5,1364.17 3803.5,1364C 3798.11,1358.61 3792.78,1353.28 3787.5,1348C 3785.19,1347.5 3782.86,1347.34 3780.5,1347.5C 3780.5,1353.17 3780.5,1358.83 3780.5,1364.5C 3777.52,1363.85 3774.68,1363.52 3772,1363.5C 3771.18,1348.76 3771.35,1334.09 3772.5,1319.5 Z M 3780.5,1326.5 C 3780.5,1331.17 3780.5,1335.83 3780.5,1340.5C 3784.51,1340.67 3788.51,1340.5 3792.5,1340C 3797.28,1336.26 3797.61,1332.26 3793.5,1328C 3789.45,1327.12 3785.12,1326.62 3780.5,1326.5 Z"/></g>
</svg>
