<?xml version="1.0" encoding="UTF-8"?>
<!DOCTYPE svg PUBLIC "-//W3C//DTD SVG 1.1//EN" "http://www.w3.org/Graphics/SVG/1.1/DTD/svg11.dtd">
<svg xmlns="http://www.w3.org/2000/svg" version="1.1" width="5000px" height="3125px" style="shape-rendering:geometricPrecision; text-rendering:geometricPrecision; image-rendering:optimizeQuality; fill-rule:evenodd; clip-rule:evenodd" xmlns:xlink="http://www.w3.org/1999/xlink">
<g><path style="opacity:0.994" fill="#c80f2d" d="M 2320.5,985.5 C 2491.83,999.996 2574.16,1093.16 2567.5,1265C 2564.25,1314.59 2554.08,1362.75 2537,1409.5C 2521.23,1451.05 2502.23,1491.05 2480,1529.5C 2443.34,1593.51 2404.67,1656.17 2364,1717.5C 2348.82,1739.85 2333.16,1761.85 2317,1783.5C 2307.6,1798.46 2301.43,1814.63 2298.5,1832C 2296.45,1855.48 2304.12,1875.15 2321.5,1891C 2334,1898.62 2347.33,1902.45 2361.5,1902.5C 2408.22,1895.91 2447.06,1874.91 2478,1839.5C 2514.62,1798.63 2543.95,1752.96 2566,1702.5C 2608.14,1603.96 2631.31,1502.46 2635.5,1398C 2718.5,1397.5 2801.5,1397.33 2884.5,1397.5C 2887.97,1432.75 2897.81,1466.08 2914,1497.5C 2928.1,1522.25 2943.76,1545.92 2961,1568.5C 2991.91,1612.76 3021.24,1658.09 3049,1704.5C 3077.69,1755.58 3093.19,1810.41 3095.5,1869C 3091.14,1921.76 3074.31,1969.92 3045,2013.5C 3025.19,2038.61 3003.03,2061.44 2978.5,2082C 2932.42,2118.36 2880.92,2135.86 2824,2134.5C 2782.57,2130.76 2742.4,2119.92 2703.5,2102C 2663.4,2080.63 2626.06,2055.29 2591.5,2026C 2581.03,2015.38 2571.03,2004.38 2561.5,1993C 2554.44,1989.27 2547.78,1989.93 2541.5,1995C 2496.24,2043.6 2443.24,2081.26 2382.5,2108C 2344.36,2122.69 2304.86,2130.19 2264,2130.5C 2214.88,2130.89 2169.71,2118.06 2128.5,2092C 2094.09,2066.92 2068.59,2034.75 2052,1995.5C 2050.05,1981.06 2042.55,1977.23 2029.5,1984C 1986.74,2035.33 1936.08,2076.67 1877.5,2108C 1816.85,2133.39 1754.52,2137.39 1690.5,2120C 1639.65,2105.47 1602.49,2074.64 1579,2027.5C 1572.09,2013.11 1567.09,1998.44 1564,1983.5C 1563.09,1977.53 1562.43,1971.53 1562,1965.5C 1561.67,1829.83 1561.33,1694.17 1561,1558.5C 1558.51,1548.35 1552.67,1540.85 1543.5,1536C 1532.11,1530.65 1520.11,1528.15 1507.5,1528.5C 1507.33,1486.17 1507.5,1443.83 1508,1401.5C 1509,1400.83 1510,1400.17 1511,1399.5C 1622.28,1400.56 1733.61,1400.56 1845,1399.5C 1845.67,1400.17 1846.33,1400.83 1847,1401.5C 1847.01,1555.53 1847.67,1709.53 1849,1863.5C 1858.75,1893.63 1878.92,1904.13 1909.5,1895C 1933.78,1886.71 1954.28,1872.87 1971,1853.5C 1991.32,1826.54 2008.32,1797.54 2022,1766.5C 2028.39,1750.55 2032.22,1734.05 2033.5,1717C 2032.52,1539.7 2032.18,1360.53 2032.5,1179.5C 2047,1090.5 2097,1031.67 2182.5,1003C 2228.4,989.597 2274.4,983.764 2320.5,985.5 Z M 2348.5,1137.5 C 2363.26,1137.13 2375.1,1142.8 2384,1154.5C 2392.39,1168.04 2398.06,1182.7 2401,1198.5C 2405.21,1224.39 2405.21,1250.39 2401,1276.5C 2386.1,1341.06 2364.76,1403.73 2337,1464.5C 2327.41,1484.71 2316.57,1504.04 2304.5,1522.5C 2294.75,1532.56 2288.58,1530.56 2286,1516.5C 2285.33,1426.17 2285.33,1335.83 2286,1245.5C 2287.31,1220.93 2293.31,1197.6 2304,1175.5C 2311.4,1162.1 2321.57,1151.26 2334.5,1143C 2339.17,1140.82 2343.83,1138.99 2348.5,1137.5 Z M 2721.5,1669.5 C 2723.79,1669.24 2725.96,1669.58 2728,1670.5C 2730.75,1678.41 2734.08,1686.08 2738,1693.5C 2751.73,1716.24 2765.07,1739.24 2778,1762.5C 2785.18,1776.2 2791.85,1790.2 2798,1804.5C 2811.65,1841.39 2805.48,1874.56 2779.5,1904C 2756.1,1925.27 2729.77,1930.94 2700.5,1921C 2673.69,1910.19 2654.86,1891.36 2644,1864.5C 2642.85,1854.96 2645.51,1846.63 2652,1839.5C 2675.4,1788.65 2696.07,1736.65 2714,1683.5C 2716.41,1678.76 2718.91,1674.09 2721.5,1669.5 Z"/></g>
<g><path style="opacity:0.22" fill="#cd0f2c" d="M 2320.5,984.5 C 2321.83,985.167 2321.83,985.167 2320.5,984.5 Z"/></g>
<g><path style="opacity:0.995" fill="#c80f2d" d="M 1055.5,2138.5 C 1046.17,2139.83 1036.83,2139.83 1027.5,2138.5C 1027.17,2137.17 1026.83,2137.17 1026.5,2138.5C 955.849,2138 893.849,2114.5 840.5,2068C 821.602,2050.77 804.435,2031.93 789,2011.5C 743.757,2071.23 684.59,2110.06 611.5,2128C 565.436,2138.56 519.269,2140.39 473,2133.5C 317.07,2112.67 218.07,2025.33 176,1871.5C 169.24,1843.28 164.74,1815.28 162.5,1787.5C 162.281,1595.95 162.615,1405.12 163.5,1215C 122.168,1214.5 80.8347,1214.33 39.5,1214.5C 39.5,1151.5 39.5,1088.5 39.5,1025.5C 178.07,1025.17 316.57,1025.5 455,1026.5C 455.333,1284.17 455.667,1541.83 456,1799.5C 460.123,1842.28 482.623,1870.11 523.5,1883C 558.499,1893.91 591.833,1889.58 623.5,1870C 645.674,1850.51 658.174,1826.01 661,1796.5C 661.5,1602.5 661.667,1408.5 661.5,1214.5C 620.261,1214.83 579.094,1214.5 538,1213.5C 537.169,1150.93 537.336,1088.43 538.5,1026C 676.833,1025.5 815.166,1025.33 953.5,1025.5C 953.333,1289.83 953.5,1554.17 954,1818.5C 956.959,1859.45 978.626,1883.12 1019,1889.5C 1057.98,1887.17 1089.65,1870.5 1114,1839.5C 1129.81,1817.21 1142.48,1793.21 1152,1767.5C 1183.15,1687.42 1195.32,1605.59 1188.5,1522C 1188.61,1513.52 1188.61,1505.19 1188.5,1497C 1183.21,1417.29 1170.88,1338.96 1151.5,1262C 1146.9,1246.2 1141.9,1230.53 1136.5,1215C 1101.93,1214.83 1067.43,1214.33 1033,1213.5C 1032.33,1151.17 1032.33,1088.83 1033,1026.5C 1146.76,1025.33 1260.6,1025.17 1374.5,1026C 1383.71,1047.31 1391.55,1069.14 1398,1091.5C 1423.59,1188.62 1440.26,1287.29 1448,1387.5C 1454.01,1448.7 1456.34,1510.03 1455,1571.5C 1452.45,1673.26 1433.11,1771.59 1397,1866.5C 1375.06,1920.75 1345.72,1970.42 1309,2015.5C 1297.81,2027.69 1286.31,2039.52 1274.5,2051C 1261.5,2061.33 1248.5,2071.67 1235.5,2082C 1194.5,2109.34 1149.5,2126.67 1100.5,2134C 1085.38,2135.84 1070.38,2137.34 1055.5,2138.5 Z"/></g>
<g><path style="opacity:0.992" fill="#c80f2d" d="M 1692.5,1109.5 C 1741.42,1106.95 1787.42,1117.78 1830.5,1142C 1875.06,1172.3 1892.89,1214.13 1884,1267.5C 1868.27,1323.57 1832.27,1357.9 1776,1370.5C 1773.73,1371.96 1771.23,1372.79 1768.5,1373C 1715.74,1383.85 1663.74,1378.18 1612.5,1356C 1550.94,1325.71 1528.1,1277.21 1544,1210.5C 1556.1,1172.4 1580.27,1144.9 1616.5,1128C 1641.2,1117.51 1666.54,1111.34 1692.5,1109.5 Z"/></g>
<g><path style="opacity:0.995" fill="#c80f2d" d="M 4439.5,1370.5 C 4483.2,1369.51 4524.2,1379.34 4562.5,1400C 4600.64,1427.14 4627.81,1462.64 4644,1506.5C 4646.38,1516.09 4648.38,1525.76 4650,1535.5C 4650.01,1675.19 4650.68,1814.86 4652,1954.5C 4655.78,1975.28 4667.95,1987.78 4688.5,1992C 4704.83,1992.5 4721.16,1992.67 4737.5,1992.5C 4737.99,2033.31 4737.49,2073.98 4736,2114.5C 4657.06,2114.49 4578.39,2114.49 4500,2114.5C 4418.72,2101.83 4375.89,2054.33 4371.5,1972C 4371.5,1873.33 4371.5,1774.67 4371.5,1676C 4366.7,1651.9 4352.87,1635.4 4330,1626.5C 4297.29,1618.17 4266.46,1624 4237.5,1644C 4224.85,1654.94 4217.68,1668.77 4216,1685.5C 4215.5,1829.5 4215.33,1973.5 4215.5,2117.5C 4121.5,2117.5 4027.5,2117.5 3933.5,2117.5C 3933.67,1970.83 3933.5,1824.17 3933,1677.5C 3932.18,1665.03 3927.01,1654.86 3917.5,1647C 3909.14,1642.04 3900.48,1641.37 3891.5,1645C 3876.07,1650.46 3862.91,1659.3 3852,1671.5C 3847.97,1677.39 3845.8,1683.89 3845.5,1691C 3862.01,1773.04 3853.18,1852.54 3819,1929.5C 3797.76,1975.07 3767.26,2013.24 3727.5,2044C 3624.24,2121.44 3510.74,2144.94 3387,2114.5C 3352.65,2105.94 3319.82,2093.44 3288.5,2077C 3210.45,2028.26 3156.95,1960.09 3128,1872.5C 3110.58,1817.75 3106.58,1761.75 3116,1704.5C 3125.24,1645.12 3144.24,1589.12 3173,1536.5C 3196.31,1495.86 3227.81,1463.02 3267.5,1438C 3371.86,1372.85 3481.52,1357.52 3596.5,1392C 3637.01,1403.26 3674.34,1420.92 3708.5,1445C 3733.54,1466.04 3755.87,1489.71 3775.5,1516C 3780.31,1518.89 3785.31,1519.23 3790.5,1517C 3815.89,1488.61 3842.89,1461.94 3871.5,1437C 3913.36,1402.81 3960.86,1381.65 4014,1373.5C 4040.95,1372.79 4068.12,1377.29 4095.5,1387C 4108.35,1392.58 4120.01,1399.92 4130.5,1409C 4156.32,1431.63 4176.99,1458.13 4192.5,1488.5C 4199.12,1495.41 4206.45,1496.24 4214.5,1491C 4240.62,1465.54 4267.96,1441.54 4296.5,1419C 4340.51,1390.83 4388.18,1374.66 4439.5,1370.5 Z M 3471.5,1575.5 C 3478.82,1576.14 3486.32,1576.14 3494,1575.5C 3531.43,1578.93 3552.6,1599.43 3557.5,1637C 3561.24,1650.26 3564.07,1663.76 3566,1677.5C 3567.46,1691.34 3568.96,1704.84 3570.5,1718C 3570.17,1719 3569.83,1720 3569.5,1721C 3570.17,1723.67 3570.83,1726.33 3571.5,1729C 3571.38,1730.27 3571.05,1731.6 3570.5,1733C 3571.65,1742.74 3572.31,1752.08 3572.5,1761C 3571.52,1781.65 3569.69,1802.82 3567,1824.5C 3564.17,1848.31 3559.17,1871.64 3552,1894.5C 3541.74,1919.07 3523.24,1932.57 3496.5,1935C 3474.65,1938.3 3454.31,1934.3 3435.5,1923C 3427.37,1915.88 3421.2,1907.38 3417,1897.5C 3391.19,1807.24 3389.86,1716.57 3413,1625.5C 3421.07,1595.39 3440.57,1578.72 3471.5,1575.5 Z"/></g>
<g><path style="opacity:0.924" fill="#c80f2d" d="M 4857.5,1985.5 C 4886.14,1985.08 4908.64,1997.08 4925,2021.5C 4934.06,2039.13 4937.06,2057.8 4934,2077.5C 4928.62,2101.21 4914.79,2118.05 4892.5,2128C 4866.69,2138.36 4841.36,2136.19 4816.5,2121.5C 4782.84,2095.89 4774.67,2063.22 4792,2023.5C 4807.14,1999.34 4828.98,1986.68 4857.5,1985.5 Z M 4855.5,2000.5 C 4886.56,2000.07 4907.39,2014.4 4918,2043.5C 4924.93,2071.93 4915.76,2094.77 4890.5,2112C 4860.43,2125.92 4834.26,2120.75 4812,2096.5C 4797.7,2072.21 4797.7,2047.87 4812,2023.5C 4823.41,2009.88 4837.91,2002.21 4855.5,2000.5 Z M 4844.5,2027.5 C 4853.9,2027.11 4863.23,2027.61 4872.5,2029C 4880.13,2033.83 4881.97,2040.33 4878,2048.5C 4877.1,2049.7 4875.93,2050.53 4874.5,2051C 4864.57,2052.4 4854.57,2052.9 4844.5,2052.5C 4844.5,2044.17 4844.5,2035.83 4844.5,2027.5 Z"/></g>
<g><path style="opacity:0.908" fill="#c80f2d" d="M 4835.5,2015.5 C 4845.93,2015.7 4856.43,2015.7 4867,2015.5C 4894.43,2016.35 4903.43,2029.69 4894,2055.5C 4888.54,2060.61 4882.38,2063.78 4875.5,2065C 4883.21,2076.25 4890.54,2087.75 4897.5,2099.5C 4897.19,2100.31 4896.69,2100.97 4896,2101.5C 4892.67,2100.17 4889.33,2100.17 4886,2101.5C 4885.25,2100.87 4884.42,2100.37 4883.5,2100C 4875.83,2088.33 4868.17,2076.67 4860.5,2065C 4856.17,2064.33 4851.83,2064.33 4847.5,2065C 4848.65,2077.42 4848.82,2089.92 4848,2102.5C 4843.48,2104.41 4838.65,2105.07 4833.5,2104.5C 4832.85,2074.61 4833.52,2044.94 4835.5,2015.5 Z M 4844.5,2027.5 C 4844.5,2035.83 4844.5,2044.17 4844.5,2052.5C 4854.57,2052.9 4864.57,2052.4 4874.5,2051C 4875.93,2050.53 4877.1,2049.7 4878,2048.5C 4881.97,2040.33 4880.13,2033.83 4872.5,2029C 4863.23,2027.61 4853.9,2027.11 4844.5,2027.5 Z"/></g>
<g><path style="opacity:0.22" fill="#cd0f2c" d="M 1026.5,2138.5 C 1026.83,2138.5 1027.17,2138.5 1027.5,2138.5C 1027.31,2139.17 1026.98,2139.17 1026.5,2138.5 Z"/></g>
<g><path style="opacity:0.22" fill="#cd0f2c" d="M 1055.5,2138.5 C 1056.24,2138.37 1056.91,2138.54 1057.5,2139C 1056.56,2139.69 1055.9,2139.53 1055.5,2138.5 Z"/></g>
</svg>
