<?xml version="1.0" encoding="UTF-8"?>
<!DOCTYPE svg PUBLIC "-//W3C//DTD SVG 1.1//EN" "http://www.w3.org/Graphics/SVG/1.1/DTD/svg11.dtd">
<svg xmlns="http://www.w3.org/2000/svg" version="1.1" width="1600px" height="900px" style="shape-rendering:geometricPrecision; text-rendering:geometricPrecision; image-rendering:optimizeQuality; fill-rule:evenodd; clip-rule:evenodd" xmlns:xlink="http://www.w3.org/1999/xlink">
<g><path style="opacity:0.966" fill="#0a0a1d" d="M 252.5,390.5 C 299.478,392.984 320.311,417.65 315,464.5C 309.275,489.559 293.775,504.392 268.5,509C 243.435,513.318 222.935,505.818 207,486.5C 192.575,461.087 193.242,436.087 209,411.5C 220.648,398.425 235.148,391.425 252.5,390.5 Z M 249.5,414.5 C 269.525,412.925 281.691,421.925 286,441.5C 287.786,452.736 286.119,463.403 281,473.5C 272.235,485.239 260.735,489.072 246.5,485C 235.071,479.89 228.571,471.057 227,458.5C 224.58,444.228 228.08,431.728 237.5,421C 241.2,418.098 245.2,415.932 249.5,414.5 Z"/></g>
<g><path style="opacity:0.963" fill="#0a0a1d" d="M 747.5,390.5 C 760.81,390.077 773.144,393.244 784.5,400C 793.262,406.691 797.928,415.524 798.5,426.5C 789.475,426.832 780.475,426.498 771.5,425.5C 764.926,415.39 755.592,411.557 743.5,414C 735.378,415.103 731.878,419.603 733,427.5C 734.167,429.333 735.667,430.833 737.5,432C 749.306,435.63 761.306,438.63 773.5,441C 799.938,448.044 808.105,464.21 798,489.5C 791.137,499.02 781.97,505.187 770.5,508C 752.018,512.129 734.685,509.463 718.5,500C 709.671,492.853 704.005,483.687 701.5,472.5C 701.608,471.558 701.941,470.725 702.5,470C 710.833,469.333 719.167,469.333 727.5,470C 736.195,485.573 749.195,490.573 766.5,485C 772.795,482.575 774.962,478.075 773,471.5C 769.547,467.855 765.38,465.355 760.5,464C 748.334,461.634 736.334,458.634 724.5,455C 703.231,444.422 698.064,428.589 709,407.5C 719.697,396.883 732.531,391.216 747.5,390.5 Z"/></g>
<g><path style="opacity:0.96" fill="#0a0a1d" d="M 23.5,392.5 C 43.8361,392.333 64.1694,392.5 84.5,393C 85,393.5 85.5,394 86,394.5C 86.7667,418.503 87.6001,442.503 88.5,466.5C 97.4289,442.214 106.262,417.881 115,393.5C 124.089,392.35 133.255,392.183 142.5,393C 143.264,395.069 143.764,397.236 144,399.5C 145.333,422.167 146.667,444.833 148,467.5C 156.183,443.284 164.183,418.951 172,394.5C 172.5,394 173,393.5 173.5,393C 182.5,392.333 191.5,392.333 200.5,393C 201.517,394.049 201.684,395.216 201,396.5C 188.068,433.129 175.235,469.796 162.5,506.5C 161.975,507.192 161.308,507.692 160.5,508C 150.5,508.667 140.5,508.667 130.5,508C 130,507.5 129.5,507 129,506.5C 127.368,481.163 125.702,455.83 124,430.5C 114.241,455.694 104.741,481.027 95.5,506.5C 94.9747,507.192 94.3081,507.692 93.5,508C 83.7857,508.807 74.1191,508.641 64.5,507.5C 63.6922,505.577 63.1922,503.577 63,501.5C 61.5432,471.821 59.8765,442.154 58,412.5C 47.0645,406.616 35.8978,401.116 24.5,396C 23.6634,394.989 23.33,393.822 23.5,392.5 Z"/></g>
<g><path style="opacity:0.975" fill="#0a0a1d" d="M 328.5,392.5 C 336.507,392.334 344.507,392.5 352.5,393C 353,393.5 353.5,394 354,394.5C 354.333,423.5 354.667,452.5 355,481.5C 355.5,482 356,482.5 356.5,483C 373.833,483.333 391.167,483.667 408.5,484C 409.833,491.667 409.833,499.333 408.5,507C 381.261,507.828 354.095,507.661 327,506.5C 326.333,469.167 326.333,431.833 327,394.5C 327.717,393.956 328.217,393.289 328.5,392.5 Z"/></g>
<g><path style="opacity:0.957" fill="#0a0a1d" d="M 421.5,392.5 C 448.835,392.333 476.169,392.5 503.5,393C 504,393.5 504.5,394 505,394.5C 505.667,401.5 505.667,408.5 505,415.5C 504.5,416 504,416.5 503.5,417C 485.5,417.333 467.5,417.667 449.5,418C 449,418.5 448.5,419 448,419.5C 447.333,424.5 447.333,429.5 448,434.5C 448.5,435 449,435.5 449.5,436C 466.5,436.333 483.5,436.667 500.5,437C 501.647,444.42 501.813,451.92 501,459.5C 500.5,460 500,460.5 499.5,461C 482.26,461.174 465.093,461.674 448,462.5C 447.825,477.408 447.325,492.241 446.5,507C 437.588,507.816 428.755,507.65 420,506.5C 419.333,469.167 419.333,431.833 420,394.5C 420.717,393.956 421.217,393.289 421.5,392.5 Z"/></g>
<g><path style="opacity:0.979" fill="#0a0a1d" d="M 812.5,392.5 C 820.84,392.334 829.173,392.5 837.5,393C 838.324,406.758 838.824,420.592 839,434.5C 839.5,435 840,435.5 840.5,436C 855.075,436.823 869.575,436.656 884,435.5C 884.333,421.833 884.667,408.167 885,394.5C 885.5,394 886,393.5 886.5,393C 895.079,392.184 903.579,392.351 912,393.5C 912.829,431.405 912.663,469.238 911.5,507C 902.833,507.667 894.167,507.667 885.5,507C 884.675,492.241 884.175,477.408 884,462.5C 876.576,461.841 869.076,461.508 861.5,461.5C 853.924,461.508 846.424,461.841 839,462.5C 838.825,477.408 838.325,492.241 837.5,507C 828.588,507.816 819.755,507.65 811,506.5C 810.333,469.167 810.333,431.833 811,394.5C 811.717,393.956 812.217,393.289 812.5,392.5 Z"/></g>
<g><path style="opacity:0.97" fill="#0a0a1d" d="M 927.5,392.5 C 956.407,392.171 985.24,392.505 1014,393.5C 1014.81,401.413 1014.65,409.246 1013.5,417C 994.167,417.333 974.833,417.667 955.5,418C 954.167,424 954.167,430 955.5,436C 974.073,436.173 992.573,436.673 1011,437.5C 1011.67,444.833 1011.67,452.167 1011,459.5C 1010.5,460 1010,460.5 1009.5,461C 991.5,461.333 973.5,461.667 955.5,462C 954.167,469 954.167,476 955.5,483C 974.833,483.333 994.167,483.667 1013.5,484C 1014.83,491.667 1014.83,499.333 1013.5,507C 984.595,507.828 955.761,507.662 927,506.5C 926.173,468.429 926.34,430.429 927.5,392.5 Z"/></g>
<g><path style="opacity:0.967" fill="#0a0a1d" d="M 1029.5,392.5 C 1046.84,392.333 1064.17,392.5 1081.5,393C 1116.51,393.888 1130.35,411.388 1123,445.5C 1117.03,458.447 1106.87,465.614 1092.5,467C 1080.62,467.981 1068.79,468.815 1057,469.5C 1056.82,482.075 1056.32,494.575 1055.5,507C 1046.59,507.816 1037.76,507.65 1029,506.5C 1028.17,468.429 1028.34,430.429 1029.5,392.5 Z M 1057.5,416.5 C 1065.51,416.334 1073.51,416.5 1081.5,417C 1093.94,418.776 1098.11,425.609 1094,437.5C 1090.98,441.092 1087.15,443.258 1082.5,444C 1074.17,444.667 1065.83,444.667 1057.5,444C 1056.18,434.833 1056.18,425.667 1057.5,416.5 Z"/></g>
<g><path style="opacity:0.967" fill="#0a0a1d" d="M 1136.5,392.5 C 1144.84,392.334 1153.17,392.5 1161.5,393C 1162.32,406.758 1162.82,420.592 1163,434.5C 1163.5,435 1164,435.5 1164.5,436C 1179.07,436.823 1193.57,436.656 1208,435.5C 1208.33,421.833 1208.67,408.167 1209,394.5C 1209.5,394 1210,393.5 1210.5,393C 1219.08,392.184 1227.58,392.351 1236,393.5C 1236.83,431.405 1236.66,469.238 1235.5,507C 1226.83,507.667 1218.17,507.667 1209.5,507C 1208.68,492.241 1208.18,477.408 1208,462.5C 1200.58,461.841 1193.08,461.508 1185.5,461.5C 1177.92,461.508 1170.42,461.841 1163,462.5C 1162.82,477.408 1162.32,492.241 1161.5,507C 1152.59,507.816 1143.76,507.65 1135,506.5C 1134.33,469.167 1134.33,431.833 1135,394.5C 1135.72,393.956 1136.22,393.289 1136.5,392.5 Z"/></g>
<g><path style="opacity:0.966" fill="#0a0a1d" d="M 1252.5,392.5 C 1280.84,392.333 1309.17,392.5 1337.5,393C 1338,393.5 1338.5,394 1339,394.5C 1339.67,401.5 1339.67,408.5 1339,415.5C 1338.5,416 1338,416.5 1337.5,417C 1318.17,417.333 1298.83,417.667 1279.5,418C 1278.36,423.416 1278.19,428.916 1279,434.5C 1279.5,435 1280,435.5 1280.5,436C 1298.74,436.174 1316.91,436.674 1335,437.5C 1335.81,445.413 1335.65,453.246 1334.5,461C 1316.17,461.333 1297.83,461.667 1279.5,462C 1278.36,468.418 1278.19,474.918 1279,481.5C 1279.5,482 1280,482.5 1280.5,483C 1299.83,483.333 1319.17,483.667 1338.5,484C 1339.83,491.667 1339.83,499.333 1338.5,507C 1309.26,507.828 1280.09,507.662 1251,506.5C 1250.33,469.167 1250.33,431.833 1251,394.5C 1251.72,393.956 1252.22,393.289 1252.5,392.5 Z"/></g>
<g><path style="opacity:0.968" fill="#0a0a1d" d="M 1353.5,392.5 C 1374.19,392.129 1394.86,392.629 1415.5,394C 1442.51,398.163 1453.01,413.663 1447,440.5C 1445.67,443.167 1444.33,445.833 1443,448.5C 1438.26,453.439 1433.09,457.772 1427.5,461.5C 1436.17,476.167 1444.83,490.833 1453.5,505.5C 1453.29,506.086 1452.96,506.586 1452.5,507C 1442.17,507.667 1431.83,507.667 1421.5,507C 1413.42,492.835 1405.09,478.835 1396.5,465C 1391.5,464.333 1386.5,464.333 1381.5,465C 1381,465.5 1380.5,466 1380,466.5C 1379.67,479.833 1379.33,493.167 1379,506.5C 1370,507.833 1361,507.833 1352,506.5C 1351.33,469.167 1351.33,431.833 1352,394.5C 1352.72,393.956 1353.22,393.289 1353.5,392.5 Z M 1381.5,416.5 C 1391.22,416.141 1400.89,416.641 1410.5,418C 1420.21,423.108 1421.54,429.775 1414.5,438C 1412.91,438.862 1411.25,439.529 1409.5,440C 1400.21,441.483 1390.88,441.816 1381.5,441C 1381,440.5 1380.5,440 1380,439.5C 1379.33,432.5 1379.33,425.5 1380,418.5C 1380.72,417.956 1381.22,417.289 1381.5,416.5 Z"/></g>
<g><path style="opacity:0.965" fill="#0a0a1d" d="M 1464.5,392.5 C 1479.5,392.333 1494.5,392.5 1509.5,393C 1554.19,396.181 1573.36,420.014 1567,464.5C 1562.34,488.493 1547.84,502.326 1523.5,506C 1503.29,507.753 1483.13,507.92 1463,506.5C 1462.33,469.167 1462.33,431.833 1463,394.5C 1463.72,393.956 1464.22,393.289 1464.5,392.5 Z M 1491.5,416.5 C 1500.22,416.203 1508.89,416.703 1517.5,418C 1529.65,421.149 1536.48,428.983 1538,441.5C 1539.47,451.9 1538.14,461.9 1534,471.5C 1527.33,480.065 1518.5,484.231 1507.5,484C 1502.5,484.667 1497.5,484.667 1492.5,484C 1492,483.5 1491.5,483 1491,482.5C 1490.18,460.427 1490.35,438.427 1491.5,416.5 Z"/></g>
<g><path style="opacity:0.929" fill="#0a0a1d" d="M 548.5,432.5 C 553.544,432.173 558.544,432.506 563.5,433.5C 569.063,447.36 573.897,461.36 578,475.5C 573.587,476.632 569.087,476.799 564.5,476C 563.76,474.215 563.093,472.382 562.5,470.5C 558.205,469.339 553.871,469.172 549.5,470C 548.692,472.088 547.692,474.088 546.5,476C 542.179,476.499 537.846,476.666 533.5,476.5C 537.927,461.644 542.927,446.978 548.5,432.5 Z M 555.5,449.5 C 557.072,452.215 558.072,455.215 558.5,458.5C 556.473,458.662 554.473,458.495 552.5,458C 553.798,455.273 554.798,452.44 555.5,449.5 Z"/></g>
<g><path style="opacity:0.94" fill="#0a0a1d" d="M 581.5,432.5 C 587.206,432.171 592.872,432.505 598.5,433.5C 602.333,441.167 606.167,448.833 610,456.5C 610.5,448.507 610.666,440.507 610.5,432.5C 614.5,432.5 618.5,432.5 622.5,432.5C 622.5,447.167 622.5,461.833 622.5,476.5C 617.156,476.666 611.823,476.499 606.5,476C 602.811,468.121 598.977,460.287 595,452.5C 594.667,460.167 594.333,467.833 594,475.5C 590,476.833 586,476.833 582,475.5C 581.5,461.171 581.333,446.837 581.5,432.5 Z"/></g>
<g><path style="opacity:0.947" fill="#0a0a1d" d="M 627.5,432.5 C 635.84,432.334 644.173,432.5 652.5,433C 663.116,435.872 668.449,442.872 668.5,454C 668.115,467.051 661.449,474.385 648.5,476C 641.508,476.5 634.508,476.666 627.5,476.5C 627.5,461.833 627.5,447.167 627.5,432.5 Z M 640.5,443.5 C 649.027,441.925 653.694,445.425 654.5,454C 654.1,462.937 649.6,466.437 641,464.5C 640.5,457.508 640.334,450.508 640.5,443.5 Z"/></g>
</svg>
