<?xml version="1.0" encoding="UTF-8"?>
<!DOCTYPE svg PUBLIC "-//W3C//DTD SVG 1.1//EN" "http://www.w3.org/Graphics/SVG/1.1/DTD/svg11.dtd">
<svg xmlns="http://www.w3.org/2000/svg" version="1.1" width="1422px" height="800px" style="shape-rendering:geometricPrecision; text-rendering:geometricPrecision; image-rendering:optimizeQuality; fill-rule:evenodd; clip-rule:evenodd" xmlns:xlink="http://www.w3.org/1999/xlink">
<g><path style="opacity:1" fill="#07090a" d="M 758.5,141.5 C 756.488,140.986 754.488,140.82 752.5,141C 754.488,141.938 756.488,142.772 758.5,143.5C 775.061,148.521 788.561,157.854 799,171.5C 807.116,188.202 803.949,202.369 789.5,214C 774.851,222.665 759.184,228.999 742.5,233C 715.098,239.267 688.098,246.934 661.5,256C 637.996,263.979 618.496,277.479 603,296.5C 580.791,332.462 584.124,365.796 613,396.5C 622.708,405.21 632.708,413.543 643,421.5C 645.38,426.238 643.88,429.071 638.5,430C 551.167,430.667 463.833,430.667 376.5,430C 368.326,426.788 366.492,421.288 371,413.5C 452,296.5 533,179.5 614,62.5C 633.869,41.9924 657.369,36.4924 684.5,46C 692.784,49.617 699.95,54.7837 706,61.5C 717.667,76.8333 729.333,92.1667 741,107.5C 751.88,120.517 762.713,120.684 773.5,108C 803.495,92.9982 828.661,98.8315 849,125.5C 911.333,205.833 973.667,286.167 1036,366.5C 1040.08,372.923 1039.25,378.423 1033.5,383C 918.556,384.661 803.556,384.994 688.5,384C 668.165,383.409 650.999,375.909 637,361.5C 623.254,337.478 626.754,316.312 647.5,298C 659.233,289.463 671.9,282.463 685.5,277C 710.758,267.803 736.091,258.803 761.5,250C 779.002,243.919 795.002,235.252 809.5,224C 821.777,211.251 824.944,196.418 819,179.5C 811.984,164.819 800.817,154.652 785.5,149C 776.674,145.711 767.674,143.211 758.5,141.5 Z"/></g>
<g><path style="opacity:1" fill="#d9d9da" d="M 758.5,141.5 C 758.5,142.167 758.5,142.833 758.5,143.5C 756.488,142.772 754.488,141.938 752.5,141C 754.488,140.82 756.488,140.986 758.5,141.5 Z"/></g>
<g><path style="opacity:0.999" fill="#101112" d="M 94.5,528.5 C 121.502,528.333 148.502,528.5 175.5,529C 185.172,532.672 191.339,539.506 194,549.5C 194.667,574.167 194.667,598.833 194,623.5C 191.267,636.233 183.433,643.4 170.5,645C 146.833,645.667 123.167,645.667 99.5,645C 86.992,643.49 79.1587,636.657 76,624.5C 75.3333,599.167 75.3333,573.833 76,548.5C 78.5868,538.417 84.7534,531.75 94.5,528.5 Z M 100.5,550.5 C 123.502,550.333 146.502,550.5 169.5,551C 170,551.5 170.5,552 171,552.5C 171.667,575.167 171.667,597.833 171,620.5C 170.5,621 170,621.5 169.5,622C 146.5,622.667 123.5,622.667 100.5,622C 99.6919,621.692 99.0253,621.192 98.5,620.5C 97.3445,598.543 97.1779,576.543 98,554.5C 98.4796,552.867 99.3129,551.534 100.5,550.5 Z"/></g>
<g><path style="opacity:0.999" fill="#090b0c" d="M 213.5,528.5 C 252.833,528.5 292.167,528.5 331.5,528.5C 331.666,537.173 331.5,545.84 331,554.5C 302.408,577.205 273.574,599.538 244.5,621.5C 243.711,621.783 243.044,622.283 242.5,623C 272.165,623.5 301.831,623.667 331.5,623.5C 331.5,630.5 331.5,637.5 331.5,644.5C 292.167,644.5 252.833,644.5 213.5,644.5C 213.5,635.833 213.5,627.167 213.5,618.5C 242.191,595.815 271.191,573.481 300.5,551.5C 301.043,551.44 301.376,551.107 301.5,550.5C 272.174,549.5 242.841,549.167 213.5,549.5C 213.5,542.5 213.5,535.5 213.5,528.5 Z"/></g>
<g><path style="opacity:0.998" fill="#0c0e0e" d="M 350.5,528.5 C 383.502,528.333 416.502,528.5 449.5,529C 459,531.833 465.167,538 468,547.5C 468.5,580.165 468.667,612.832 468.5,645.5C 436.832,645.667 405.165,645.5 373.5,645C 360.333,642.5 352.5,634.667 350,621.5C 349.5,606.17 349.333,590.837 349.5,575.5C 381.833,575.5 414.167,575.5 446.5,575.5C 446.666,568.159 446.5,560.826 446,553.5C 445.302,552.309 444.469,551.309 443.5,550.5C 412.671,549.502 381.671,549.169 350.5,549.5C 350.5,542.5 350.5,535.5 350.5,528.5 Z M 372.5,597.5 C 397.167,597.5 421.833,597.5 446.5,597.5C 446.5,605.833 446.5,614.167 446.5,622.5C 422.498,622.667 398.498,622.5 374.5,622C 374,621.5 373.5,621 373,620.5C 372.5,612.841 372.334,605.174 372.5,597.5 Z"/></g>
<g><path style="opacity:0.999" fill="#0b0d0e" d="M 488.5,528.5 C 521.502,528.333 554.502,528.5 587.5,529C 597.166,532.153 603.332,538.653 606,548.5C 606.667,558.167 606.667,567.833 606,577.5C 602.807,587.359 596.307,593.859 586.5,597C 579.833,597.333 573.167,597.667 566.5,598C 579.71,613.039 592.71,628.206 605.5,643.5C 596.348,644.494 587.015,644.827 577.5,644.5C 563.845,629.507 550.512,614.174 537.5,598.5C 528.525,597.502 519.525,597.168 510.5,597.5C 510.83,613.342 510.496,629.009 509.5,644.5C 502.5,644.5 495.5,644.5 488.5,644.5C 488.5,605.833 488.5,567.167 488.5,528.5 Z M 512.5,550.5 C 535.502,550.333 558.502,550.5 581.5,551C 582.849,551.772 583.682,552.939 584,554.5C 584.667,560.167 584.667,565.833 584,571.5C 583.535,572.931 582.701,574.097 581.5,575C 558.5,575.667 535.5,575.667 512.5,575C 512,574.5 511.5,574 511,573.5C 510.333,566.5 510.333,559.5 511,552.5C 511.717,551.956 512.217,551.289 512.5,550.5 Z"/></g>
<g><path style="opacity:0.997" fill="#0b0d0e" d="M 738.5,643.5 C 729.348,644.494 720.015,644.827 710.5,644.5C 695.996,629.494 681.996,613.994 668.5,598C 659.84,597.5 651.173,597.334 642.5,597.5C 642.5,613.5 642.5,629.5 642.5,645.5C 635.167,645.5 627.833,645.5 620.5,645.5C 620.5,606.5 620.5,567.5 620.5,528.5C 627.833,528.5 635.167,528.5 642.5,528.5C 642.5,544.167 642.5,559.833 642.5,575.5C 651.173,575.666 659.84,575.5 668.5,575C 681.796,559.369 695.462,544.036 709.5,529C 719.5,528.333 729.5,528.333 739.5,529C 722.314,548.018 705.314,567.185 688.5,586.5C 705.189,605.52 721.856,624.52 738.5,643.5 Z"/></g>
<g><path style="opacity:0.999" fill="#090b0c" d="M 887.5,528.5 C 887.5,535.5 887.5,542.5 887.5,549.5C 871.5,549.5 855.5,549.5 839.5,549.5C 839.5,581.167 839.5,612.833 839.5,644.5C 832.352,645.492 825.019,645.825 817.5,645.5C 817.5,613.833 817.5,582.167 817.5,550.5C 801.5,550.5 785.5,550.5 769.5,550.5C 769.5,543.167 769.5,535.833 769.5,528.5C 808.833,528.5 848.167,528.5 887.5,528.5 Z"/></g>
<g><path style="opacity:0.998" fill="#0c0d0e" d="M 902.5,528.5 C 935.502,528.333 968.502,528.5 1001.5,529C 1010.6,531.766 1016.77,537.599 1020,546.5C 1021.52,555.781 1021.85,565.114 1021,574.5C 1019.14,586.028 1012.64,593.528 1001.5,597C 994.833,597.333 988.167,597.667 981.5,598C 994.857,613.222 1007.86,628.722 1020.5,644.5C 1011.18,645.665 1001.85,645.832 992.5,645C 978.833,629.333 965.167,613.667 951.5,598C 942.506,597.5 933.506,597.334 924.5,597.5C 924.5,613.5 924.5,629.5 924.5,645.5C 917.167,645.5 909.833,645.5 902.5,645.5C 902.5,606.5 902.5,567.5 902.5,528.5 Z M 927.5,550.5 C 950.502,550.333 973.502,550.5 996.5,551C 997,551.5 997.5,552 998,552.5C 998.667,559.5 998.667,566.5 998,573.5C 997.25,574.126 996.416,574.626 995.5,575C 972.833,575.667 950.167,575.667 927.5,575C 926.333,574.5 925.5,573.667 925,572.5C 924.333,565.833 924.333,559.167 925,552.5C 925.995,551.934 926.828,551.267 927.5,550.5 Z"/></g>
<g><path style="opacity:0.998" fill="#0c0e0f" d="M 1035.5,528.5 C 1068.5,528.333 1101.5,528.5 1134.5,529C 1144.43,531.933 1150.6,538.433 1153,548.5C 1153.5,580.832 1153.67,613.165 1153.5,645.5C 1121.83,645.667 1090.16,645.5 1058.5,645C 1045.73,643.202 1037.89,636.035 1035,623.5C 1034.5,607.503 1034.33,591.503 1034.5,575.5C 1066.83,575.5 1099.17,575.5 1131.5,575.5C 1131.67,568.492 1131.5,561.492 1131,554.5C 1130.58,552.45 1129.42,551.116 1127.5,550.5C 1097,549.502 1066.34,549.169 1035.5,549.5C 1035.5,542.5 1035.5,535.5 1035.5,528.5 Z M 1057.5,597.5 C 1082.17,597.5 1106.83,597.5 1131.5,597.5C 1131.5,605.833 1131.5,614.167 1131.5,622.5C 1107.5,622.667 1083.5,622.5 1059.5,622C 1059,621.5 1058.5,621 1058,620.5C 1057.5,612.841 1057.33,605.174 1057.5,597.5 Z"/></g>
<g><path style="opacity:0.996" fill="#07090a" d="M 1172.5,528.5 C 1179.83,528.5 1187.17,528.5 1194.5,528.5C 1194.5,567.5 1194.5,606.5 1194.5,645.5C 1187.17,645.5 1179.83,645.5 1172.5,645.5C 1172.5,606.5 1172.5,567.5 1172.5,528.5 Z"/></g>
<g><path style="opacity:0.999" fill="#131415" d="M 1212.5,528.5 C 1220.17,528.5 1227.83,528.5 1235.5,528.5C 1235.33,559.168 1235.5,589.835 1236,620.5C 1236.5,621 1237,621.5 1237.5,622C 1268.83,622.5 1300.16,622.667 1331.5,622.5C 1331.5,630.167 1331.5,637.833 1331.5,645.5C 1299.83,645.667 1268.16,645.5 1236.5,645C 1223.73,643.202 1215.89,636.035 1213,623.5C 1212.5,591.835 1212.33,560.168 1212.5,528.5 Z"/></g>
<g><path style="opacity:0.995" fill="#1d1e1f" d="M 1306.5,528.5 C 1325.65,526.479 1333.48,534.812 1330,553.5C 1323.07,564.087 1313.9,566.587 1302.5,561C 1290.97,548.563 1292.3,537.73 1306.5,528.5 Z"/></g>
<g><path style="opacity:1" fill="#efefef" d="M 1308.5,532.5 C 1322.99,531.818 1328.49,538.484 1325,552.5C 1321.15,558.667 1315.65,560.834 1308.5,559C 1296.58,550.122 1296.58,541.288 1308.5,532.5 Z"/></g>
<g><path style="opacity:1" fill="#0c0e0e" d="M 1306.5,537.5 C 1310.51,537.334 1314.51,537.501 1318.5,538C 1321.11,540.795 1321.11,543.629 1318.5,546.5C 1320.1,549.314 1321.1,552.314 1321.5,555.5C 1320.13,555.657 1318.79,555.49 1317.5,555C 1316.69,552.912 1315.69,550.912 1314.5,549C 1313.21,548.51 1311.87,548.343 1310.5,548.5C 1310.5,550.833 1310.5,553.167 1310.5,555.5C 1309.17,555.5 1307.83,555.5 1306.5,555.5C 1306.5,549.5 1306.5,543.5 1306.5,537.5 Z"/></g>
<g><path style="opacity:1" fill="#e7e7e7" d="M 1310.5,540.5 C 1317.3,540.406 1317.97,542.073 1312.5,545.5C 1310.78,544.332 1310.12,542.665 1310.5,540.5 Z"/></g>
<g><path style="opacity:0.725" fill="#4b4c4d" d="M 213.5,528.5 C 213.5,535.5 213.5,542.5 213.5,549.5C 242.841,549.167 272.174,549.5 301.5,550.5C 301.376,551.107 301.043,551.44 300.5,551.5C 271.338,550.502 242.005,550.169 212.5,550.5C 212.175,542.981 212.508,535.648 213.5,528.5 Z"/></g>
<g><path style="opacity:0.725" fill="#535455" d="M 350.5,528.5 C 350.5,535.5 350.5,542.5 350.5,549.5C 381.671,549.169 412.671,549.502 443.5,550.5C 412.167,550.5 380.833,550.5 349.5,550.5C 349.175,542.981 349.508,535.648 350.5,528.5 Z"/></g>
<g><path style="opacity:0.725" fill="#808182" d="M 887.5,528.5 C 888.492,535.648 888.825,542.981 888.5,550.5C 872.5,550.5 856.5,550.5 840.5,550.5C 840.832,582.004 840.498,613.338 839.5,644.5C 839.5,612.833 839.5,581.167 839.5,549.5C 855.5,549.5 871.5,549.5 887.5,549.5C 887.5,542.5 887.5,535.5 887.5,528.5 Z"/></g>
<g><path style="opacity:0.725" fill="#4b4c4c" d="M 1035.5,528.5 C 1035.5,535.5 1035.5,542.5 1035.5,549.5C 1066.34,549.169 1097,549.502 1127.5,550.5C 1096.5,550.5 1065.5,550.5 1034.5,550.5C 1034.18,542.981 1034.51,535.648 1035.5,528.5 Z"/></g>
<g><path style="opacity:0.471" fill="#828383" d="M 244.5,621.5 C 273.5,622.167 302.5,622.833 331.5,623.5C 301.831,623.667 272.165,623.5 242.5,623C 243.044,622.283 243.711,621.783 244.5,621.5 Z"/></g>
<g><path style="opacity:0.208" fill="#c1c2c2" d="M 605.5,643.5 C 606.043,643.56 606.376,643.893 606.5,644.5C 596.675,645.823 587.008,645.823 577.5,644.5C 587.015,644.827 596.348,644.494 605.5,643.5 Z"/></g>
<g><path style="opacity:0.208" fill="#c1c2c2" d="M 738.5,643.5 C 739.043,643.56 739.376,643.893 739.5,644.5C 729.675,645.823 720.008,645.823 710.5,644.5C 720.015,644.827 729.348,644.494 738.5,643.5 Z"/></g>
<g><path style="opacity:0.208" fill="#b8b8b9" d="M 213.5,618.5 C 213.5,627.167 213.5,635.833 213.5,644.5C 252.833,644.5 292.167,644.5 331.5,644.5C 292.004,645.499 252.337,645.832 212.5,645.5C 212.173,636.318 212.507,627.318 213.5,618.5 Z"/></g>
<g><path style="opacity:0.208" fill="#a4a4a5" d="M 488.5,528.5 C 488.5,567.167 488.5,605.833 488.5,644.5C 495.5,644.5 502.5,644.5 509.5,644.5C 502.352,645.492 495.019,645.825 487.5,645.5C 487.168,606.33 487.501,567.33 488.5,528.5 Z"/></g>
<g><path style="opacity:0.997" fill="#121314" d="M 203.5,699.5 C 214.505,699.333 225.505,699.5 236.5,700C 238.286,700.785 239.786,701.951 241,703.5C 242.623,715.07 242.957,726.736 242,738.5C 241.215,740.286 240.049,741.786 238.5,743C 226.93,744.623 215.264,744.957 203.5,744C 201.714,743.215 200.214,742.049 199,740.5C 197.377,728.93 197.043,717.264 198,705.5C 199.36,702.977 201.193,700.977 203.5,699.5 Z M 208.5,710.5 C 216.167,710.5 223.833,710.5 231.5,710.5C 231.5,718.167 231.5,725.833 231.5,733.5C 223.833,733.5 216.167,733.5 208.5,733.5C 208.5,725.833 208.5,718.167 208.5,710.5 Z"/></g>
<g><path style="opacity:0.998" fill="#161717" d="M 263.5,699.5 C 267.03,698.989 270.196,699.656 273,701.5C 273.5,712.161 273.667,722.828 273.5,733.5C 280.833,733.5 288.167,733.5 295.5,733.5C 295.334,723.161 295.5,712.828 296,702.5C 296.943,700.046 298.776,699.046 301.5,699.5C 303.693,699.326 305.527,699.993 307,701.5C 307.667,713.5 307.667,725.5 307,737.5C 306.167,741 304,743.167 300.5,744C 289.833,744.667 279.167,744.667 268.5,744C 266,742.833 264.167,741 263,738.5C 262.187,725.425 262.354,712.425 263.5,699.5 Z"/></g>
<g><path style="opacity:0.996" fill="#131414" d="M 326.5,699.5 C 340.504,699.333 354.504,699.5 368.5,700C 370.745,702.896 371.078,706.063 369.5,709.5C 364.208,710.495 358.875,710.828 353.5,710.5C 353.667,721.172 353.5,731.839 353,742.5C 349.899,744.72 346.565,745.053 343,743.5C 342.5,732.505 342.333,721.505 342.5,710.5C 337.156,710.666 331.823,710.499 326.5,710C 325.203,706.501 325.203,703.001 326.5,699.5 Z"/></g>
<g><path style="opacity:0.998" fill="#111213" d="M 389.5,699.5 C 402.171,699.333 414.838,699.5 427.5,700C 429.286,700.785 430.786,701.951 432,703.5C 433.623,715.07 433.957,726.736 433,738.5C 432.215,740.286 431.049,741.786 429.5,743C 422.768,744.13 415.935,744.63 409,744.5C 402.453,744.481 395.953,744.148 389.5,743.5C 388.185,728.77 388.185,714.103 389.5,699.5 Z M 399.5,710.5 C 407.167,710.5 414.833,710.5 422.5,710.5C 422.5,718.167 422.5,725.833 422.5,733.5C 414.833,733.5 407.167,733.5 399.5,733.5C 399.5,725.833 399.5,718.167 399.5,710.5 Z"/></g>
<g><path style="opacity:0.997" fill="#131414" d="M 459.5,699.5 C 470.505,699.333 481.505,699.5 492.5,700C 495.381,701.251 497.214,703.417 498,706.5C 498.667,716.833 498.667,727.167 498,737.5C 497.208,739.587 496.041,741.421 494.5,743C 482.93,744.623 471.264,744.957 459.5,744C 457.714,743.215 456.214,742.049 455,740.5C 453.377,728.93 453.043,717.264 454,705.5C 455.36,702.977 457.193,700.977 459.5,699.5 Z M 464.5,710.5 C 472.167,710.5 479.833,710.5 487.5,710.5C 487.5,718.167 487.5,725.833 487.5,733.5C 479.833,733.5 472.167,733.5 464.5,733.5C 464.5,725.833 464.5,718.167 464.5,710.5 Z"/></g>
<g><path style="opacity:0.997" fill="#131414" d="M 524.5,699.5 C 535.172,699.333 545.839,699.5 556.5,700C 560,700.833 562.167,703 563,706.5C 563.667,716.833 563.667,727.167 563,737.5C 562.167,741 560,743.167 556.5,744C 545.833,744.667 535.167,744.667 524.5,744C 522.714,743.215 521.214,742.049 520,740.5C 518.377,728.93 518.043,717.264 519,705.5C 520.36,702.977 522.193,700.977 524.5,699.5 Z M 529.5,710.5 C 537.167,710.5 544.833,710.5 552.5,710.5C 552.5,718.167 552.5,725.833 552.5,733.5C 544.833,733.5 537.167,733.5 529.5,733.5C 529.5,725.833 529.5,718.167 529.5,710.5 Z"/></g>
<g><path style="opacity:0.998" fill="#161717" d="M 584.5,699.5 C 596.838,699.333 609.171,699.5 621.5,700C 624.756,701.587 626.923,704.087 628,707.5C 628.861,713.585 628.527,719.585 627,725.5C 625.127,727.709 622.96,729.542 620.5,731C 622.549,733.593 624.715,736.093 627,738.5C 627.743,740.441 627.576,742.274 626.5,744C 622.705,744.837 619.039,744.504 615.5,743C 612.167,739 608.833,735 605.5,731C 601.848,730.501 598.182,730.335 594.5,730.5C 594.666,734.514 594.499,738.514 594,742.5C 591.159,744.504 587.993,745.004 584.5,744C 583.874,743.25 583.374,742.416 583,741.5C 582.333,728.5 582.333,715.5 583,702.5C 583.513,701.473 584.013,700.473 584.5,699.5 Z M 594.5,710.5 C 601.833,710.5 609.167,710.5 616.5,710.5C 616.5,713.167 616.5,715.833 616.5,718.5C 609.167,718.5 601.833,718.5 594.5,718.5C 594.5,715.833 594.5,713.167 594.5,710.5 Z"/></g>
<g><path style="opacity:0.998" fill="#131415" d="M 684.5,699.5 C 697.746,699.177 710.913,699.511 724,700.5C 726.157,703.865 725.991,707.032 723.5,710C 713.839,710.5 704.172,710.666 694.5,710.5C 694.5,712.5 694.5,714.5 694.5,716.5C 702.174,716.334 709.841,716.5 717.5,717C 720.167,720.333 720.167,723.667 717.5,727C 709.841,727.5 702.174,727.666 694.5,727.5C 694.5,729.5 694.5,731.5 694.5,733.5C 704.172,733.334 713.839,733.5 723.5,734C 726.077,737.262 726.077,740.595 723.5,744C 710.5,744.667 697.5,744.667 684.5,744C 683.174,729.167 683.174,714.333 684.5,699.5 Z"/></g>
<g><path style="opacity:0.997" fill="#111213" d="M 750.5,699.5 C 762.268,699.043 773.935,699.543 785.5,701C 787.049,702.214 788.215,703.714 789,705.5C 789.5,714.827 789.666,724.161 789.5,733.5C 791.144,733.286 792.644,733.62 794,734.5C 794.784,737.76 794.617,740.927 793.5,744C 779.5,744.667 765.5,744.667 751.5,744C 748,743.167 745.833,741 745,737.5C 744.333,727.167 744.333,716.833 745,706.5C 745.967,703.379 747.8,701.046 750.5,699.5 Z M 755.5,710.5 C 763.167,710.5 770.833,710.5 778.5,710.5C 778.5,718.167 778.5,725.833 778.5,733.5C 770.833,733.5 763.167,733.5 755.5,733.5C 755.5,725.833 755.5,718.167 755.5,710.5 Z"/></g>
<g><path style="opacity:0.997" fill="#131415" d="M 813.5,699.5 C 816.777,699.216 819.943,699.549 823,700.5C 823.5,711.495 823.667,722.495 823.5,733.5C 831.167,733.5 838.833,733.5 846.5,733.5C 846.333,722.495 846.5,711.495 847,700.5C 850.125,699.213 853.291,699.213 856.5,700.5C 857.647,713.121 857.814,725.788 857,738.5C 855.833,741 854,742.833 851.5,744C 840.5,744.667 829.5,744.667 818.5,744C 816,742.833 814.167,741 813,738.5C 812.187,725.425 812.354,712.425 813.5,699.5 Z"/></g>
<g><path style="opacity:1" fill="#161718" d="M 878.5,699.5 C 881.777,699.216 884.943,699.549 888,700.5C 888.823,715.075 888.656,729.575 887.5,744C 884.24,744.784 881.073,744.617 878,743.5C 877.185,728.759 877.351,714.092 878.5,699.5 Z"/></g>
<g><path style="opacity:0.997" fill="#121314" d="M 911.5,699.5 C 923.838,699.333 936.171,699.5 948.5,700C 951.756,701.587 953.923,704.087 955,707.5C 955.667,712.5 955.667,717.5 955,722.5C 954.31,725.196 952.81,727.363 950.5,729C 940.939,730.448 931.273,730.948 921.5,730.5C 921.666,734.514 921.499,738.514 921,742.5C 917.899,744.72 914.565,745.053 911,743.5C 910.185,728.759 910.351,714.092 911.5,699.5 Z M 921.5,710.5 C 928.833,710.5 936.167,710.5 943.5,710.5C 943.5,713.167 943.5,715.833 943.5,718.5C 936.167,718.5 928.833,718.5 921.5,718.5C 921.5,715.833 921.5,713.167 921.5,710.5 Z"/></g>
<g><path style="opacity:0.999" fill="#191a1a" d="M 985.5,718.5 C 985.44,717.957 985.107,717.624 984.5,717.5C 983.502,725.807 983.169,734.14 983.5,742.5C 983.389,743.117 983.056,743.617 982.5,744C 979.007,745.004 975.841,744.504 973,742.5C 972.333,728.833 972.333,715.167 973,701.5C 976.985,699.005 981.152,698.839 985.5,701C 990.027,705.892 994.193,711.059 998,716.5C 1002.69,711.313 1007.19,705.98 1011.5,700.5C 1015.59,698.9 1019.42,699.234 1023,701.5C 1023.67,715.167 1023.67,728.833 1023,742.5C 1019.9,744.72 1016.57,745.053 1013,743.5C 1011.73,735.269 1011.06,726.936 1011,718.5C 1008.67,721.5 1006.33,724.5 1004,727.5C 1001.26,731.782 997.927,732.448 994,729.5C 990.951,725.957 988.118,722.291 985.5,718.5 Z"/></g>
<g><path style="opacity:0.996" fill="#101112" d="M 1044.5,699.5 C 1057.75,699.177 1070.91,699.511 1084,700.5C 1084.78,703.76 1084.62,706.927 1083.5,710C 1073.84,710.5 1064.17,710.666 1054.5,710.5C 1054.5,712.5 1054.5,714.5 1054.5,716.5C 1062.17,716.334 1069.84,716.5 1077.5,717C 1078.83,720.333 1078.83,723.667 1077.5,727C 1069.84,727.5 1062.17,727.666 1054.5,727.5C 1054.5,729.5 1054.5,731.5 1054.5,733.5C 1064.42,733.181 1074.25,733.514 1084,734.5C 1084.78,737.76 1084.62,740.927 1083.5,744C 1070.5,744.667 1057.5,744.667 1044.5,744C 1043.17,729.167 1043.17,714.333 1044.5,699.5 Z"/></g>
<g><path style="opacity:0.998" fill="#141516" d="M 1136.5,724.5 C 1136.82,726.048 1137.82,726.715 1139.5,726.5C 1139.5,717.833 1139.5,709.167 1139.5,700.5C 1142.56,699.182 1145.73,699.182 1149,700.5C 1149.67,714.833 1149.67,729.167 1149,743.5C 1145.59,744.622 1142.09,744.789 1138.5,744C 1131,735.167 1123.5,726.333 1116,717.5C 1115.67,726.167 1115.33,734.833 1115,743.5C 1111.43,745.053 1108.1,744.72 1105,742.5C 1104.33,728.833 1104.33,715.167 1105,701.5C 1108.18,699.477 1111.68,698.977 1115.5,700C 1123.08,707.745 1130.08,715.911 1136.5,724.5 Z"/></g>
<g><path style="opacity:0.996" fill="#131415" d="M 1169.5,699.5 C 1183.5,699.333 1197.5,699.5 1211.5,700C 1212.83,703.333 1212.83,706.667 1211.5,710C 1206.18,710.499 1200.84,710.666 1195.5,710.5C 1195.67,721.505 1195.5,732.505 1195,743.5C 1191.43,745.053 1188.1,744.72 1185,742.5C 1184.5,731.839 1184.33,721.172 1184.5,710.5C 1179.13,710.828 1173.79,710.495 1168.5,709.5C 1166.97,705.905 1167.3,702.572 1169.5,699.5 Z"/></g>
<g><path style="opacity:0.725" fill="#48494a" d="M 1139.5,700.5 C 1139.5,709.167 1139.5,717.833 1139.5,726.5C 1137.82,726.715 1136.82,726.048 1136.5,724.5C 1137.12,724.611 1137.62,724.944 1138,725.5C 1138.17,716.99 1138.67,708.657 1139.5,700.5 Z"/></g>
<g><path style="opacity:0.471" fill="#858686" d="M 985.5,718.5 C 984.833,726.5 984.167,734.5 983.5,742.5C 983.169,734.14 983.502,725.807 984.5,717.5C 985.107,717.624 985.44,717.957 985.5,718.5 Z"/></g>
<g><path style="opacity:0.208" fill="#a8a8a9" d="M 594.5,710.5 C 594.5,713.167 594.5,715.833 594.5,718.5C 601.833,718.5 609.167,718.5 616.5,718.5C 616.5,715.833 616.5,713.167 616.5,710.5C 617.477,713.287 617.81,716.287 617.5,719.5C 609.5,719.5 601.5,719.5 593.5,719.5C 593.19,716.287 593.523,713.287 594.5,710.5 Z M 594.5,710.5 C 601.833,710.5 609.167,710.5 616.5,710.5C 616.5,713.167 616.5,715.833 616.5,718.5C 609.167,718.5 601.833,718.5 594.5,718.5C 594.5,715.833 594.5,713.167 594.5,710.5 Z"/></g>
<g><path style="opacity:0.208" fill="#b4b4b5" d="M 921.5,710.5 C 921.5,713.167 921.5,715.833 921.5,718.5C 928.833,718.5 936.167,718.5 943.5,718.5C 943.5,715.833 943.5,713.167 943.5,710.5C 944.477,713.287 944.81,716.287 944.5,719.5C 936.5,719.5 928.5,719.5 920.5,719.5C 920.19,716.287 920.523,713.287 921.5,710.5 Z M 921.5,710.5 C 928.833,710.5 936.167,710.5 943.5,710.5C 943.5,713.167 943.5,715.833 943.5,718.5C 936.167,718.5 928.833,718.5 921.5,718.5C 921.5,715.833 921.5,713.167 921.5,710.5 Z"/></g>
</svg>
