<?xml version="1.0" encoding="UTF-8"?>
<!DOCTYPE svg PUBLIC "-//W3C//DTD SVG 1.1//EN" "http://www.w3.org/Graphics/SVG/1.1/DTD/svg11.dtd">
<svg xmlns="http://www.w3.org/2000/svg" version="1.1" width="4841px" height="2000px" style="shape-rendering:geometricPrecision; text-rendering:geometricPrecision; image-rendering:optimizeQuality; fill-rule:evenodd; clip-rule:evenodd" xmlns:xlink="http://www.w3.org/1999/xlink">
<g><path style="opacity:0.991" fill="#000000" d="M 4381.5,802.5 C 4513.17,802.167 4644.84,802.5 4776.5,803.5C 4767.76,831.068 4758.42,858.401 4748.5,885.5C 4731.84,878.478 4714.18,874.311 4695.5,873C 4615.17,872.333 4534.83,872.333 4454.5,873C 4445.02,873.597 4437.19,877.43 4431,884.5C 4425.73,895.381 4420.73,906.381 4416,917.5C 4414.54,924.382 4417.37,928.216 4424.5,929C 4494.49,930.014 4564.49,931.014 4634.5,932C 4654.67,933.058 4673.33,938.724 4690.5,949C 4704.03,960.615 4708.53,975.115 4704,992.5C 4702.54,997.894 4700.87,1003.23 4699,1008.5C 4681.67,1046.5 4664.33,1084.5 4647,1122.5C 4618.74,1178.76 4572.9,1209.26 4509.5,1214C 4371.85,1215.65 4234.18,1215.98 4096.5,1215C 4103.55,1187.28 4110.22,1159.45 4116.5,1131.5C 4134.31,1139.49 4152.98,1144.32 4172.5,1146C 4252.83,1146.67 4333.17,1146.67 4413.5,1146C 4426.4,1146.4 4435.57,1140.9 4441,1129.5C 4446,1118.17 4451,1106.83 4456,1095.5C 4457.4,1087.91 4454.4,1084.57 4447,1085.5C 4446.25,1084.87 4445.42,1084.37 4444.5,1084C 4378.17,1083.67 4311.83,1083.33 4245.5,1083C 4223.68,1083.75 4202.68,1080.09 4182.5,1072C 4173.94,1066.77 4168.44,1059.27 4166,1049.5C 4164.88,1031.97 4168.21,1015.3 4176,999.5C 4192.33,963.5 4208.67,927.5 4225,891.5C 4250.8,843.745 4290.63,815.245 4344.5,806C 4356.94,804.343 4369.27,803.177 4381.5,802.5 Z"/></g>
<g><path style="opacity:0.993" fill="#000000" d="M 376.5,803.5 C 507.835,803.167 639.168,803.5 770.5,804.5C 764.146,831.918 757.479,859.251 750.5,886.5C 728.455,877.324 705.455,872.824 681.5,873C 605.821,872.057 530.155,872.391 454.5,874C 447.05,874.812 440.55,877.645 435,882.5C 428.787,894.258 423.121,906.258 418,918.5C 416.663,925.843 419.83,929.677 427.5,930C 497.502,930.993 567.502,931.993 637.5,933C 656.023,934.099 673.356,939.099 689.5,948C 704.012,958.545 709.512,972.711 706,990.5C 705.079,995.932 703.745,1001.26 702,1006.5C 684.683,1044.47 667.35,1082.47 650,1120.5C 621.867,1178.68 575.367,1210.18 510.5,1215C 503.21,1215.2 496.043,1216.03 489,1217.5C 358.903,1216.5 228.737,1216.17 98.5,1216.5C 105.166,1188.5 111.833,1160.5 118.5,1132.5C 128.624,1136.49 138.957,1139.99 149.5,1143C 159.388,1145.15 169.388,1146.49 179.5,1147C 256.833,1147.67 334.167,1147.67 411.5,1147C 422.842,1147.45 432.342,1143.61 440,1135.5C 446.258,1121.98 452.258,1108.31 458,1094.5C 458.832,1090.01 456.998,1087.17 452.5,1086C 446.218,1084.91 439.884,1084.24 433.5,1084C 361.814,1083.97 290.147,1083.3 218.5,1082C 204.941,1080.95 192.274,1077.11 180.5,1070.5C 168.029,1059.91 163.862,1046.58 168,1030.5C 170.331,1019.84 173.664,1009.51 178,999.5C 195.06,961.714 212.393,924.047 230,886.5C 253.826,845.355 288.993,819.522 335.5,809C 349.191,806.248 362.857,804.415 376.5,803.5 Z"/></g>
<g><path style="opacity:0.991" fill="#000000" d="M 817.5,803.5 C 898.503,803.167 979.503,803.5 1060.5,804.5C 1043.65,819.492 1030.15,837.159 1020,857.5C 999.724,900.708 980.057,944.041 961,987.5C 1032.42,942.542 1103.92,897.708 1175.5,853C 1184.93,846.405 1193.6,838.905 1201.5,830.5C 1207.26,822.475 1211.26,813.641 1213.5,804C 1277.17,803.333 1340.83,803.333 1404.5,804C 1380.14,812.234 1356.48,822.234 1333.5,834C 1280.87,864.316 1228.54,895.149 1176.5,926.5C 1200.33,999.839 1224.17,1073.17 1248,1146.5C 1254.37,1163.56 1262.03,1179.89 1271,1195.5C 1279.17,1183.84 1286.83,1171.84 1294,1159.5C 1339.01,1061.13 1384.01,962.799 1429,864.5C 1435.72,849.852 1439.88,834.519 1441.5,818.5C 1441.16,813.769 1440.49,809.102 1439.5,804.5C 1597.83,803.167 1756.17,803.167 1914.5,804.5C 1908,830.49 1901.5,856.49 1895,882.5C 1894.59,882.957 1894.09,883.291 1893.5,883.5C 1870.65,876.893 1847.31,873.393 1823.5,873C 1760.5,872.167 1697.5,872.333 1634.5,873.5C 1620.22,905.226 1605.55,936.726 1590.5,968C 1644.83,968.667 1699.17,968.667 1753.5,968C 1781.69,967.306 1809.52,963.806 1837,957.5C 1837.5,957.833 1838,958.167 1838.5,958.5C 1825.03,988.771 1811.03,1018.77 1796.5,1048.5C 1773.51,1041.62 1750.01,1037.95 1726,1037.5C 1671.08,1037.42 1615.58,1037.58 1559.5,1038C 1542.98,1074.21 1526.31,1110.38 1509.5,1146.5C 1573.16,1147.67 1636.83,1147.83 1700.5,1147C 1729.55,1146.61 1758.22,1143.11 1786.5,1136.5C 1787.17,1136.83 1787.83,1137.17 1788.5,1137.5C 1770.54,1163.93 1752.2,1190.1 1733.5,1216C 1484.62,1217.23 1249.79,1217.73 1029,1217.5C 1027.67,1216.83 1026.67,1215.83 1026,1214.5C 1012,1157.17 998.002,1099.84 984,1042.5C 961.166,1056.25 938.499,1070.25 916,1084.5C 906.333,1105.17 896.667,1125.83 887,1146.5C 879.994,1161.52 874.994,1177.19 872,1193.5C 871.353,1201.19 871.52,1208.86 872.5,1216.5C 791.497,1216.83 710.497,1216.5 629.5,1215.5C 645.163,1201.34 657.996,1185.01 668,1166.5C 716.505,1062.49 764.172,958.16 811,853.5C 817.846,837.427 820.013,820.76 817.5,803.5 Z"/></g>
<g><path style="opacity:0.991" fill="#000000" d="M 2095.5,803.5 C 2211.5,803.5 2327.5,803.5 2443.5,803.5C 2443.33,804.822 2443.66,805.989 2444.5,807C 2436.26,838.112 2428.1,869.279 2420,900.5C 2419.59,900.957 2419.09,901.291 2418.5,901.5C 2397.84,894.001 2376.51,889.834 2354.5,889C 2299.17,888.333 2243.83,888.333 2188.5,889C 2174.87,890.559 2164.37,897.059 2157,908.5C 2125.24,975.357 2094.57,1042.69 2065,1110.5C 2060.81,1121.3 2064.31,1127.8 2075.5,1130C 2123.17,1130.67 2170.83,1130.67 2218.5,1130C 2256.58,1128.2 2294.24,1123.37 2331.5,1115.5C 2332.41,1116.79 2332.24,1118.12 2331,1119.5C 2308.94,1150.56 2287.28,1181.89 2266,1213.5C 2264.62,1215.21 2262.96,1216.55 2261,1217.5C 2207,1217.5 2153,1217.5 2099,1217.5C 2031.55,1216.96 1964.05,1216.12 1896.5,1215C 1831.65,1207.77 1811.15,1173.6 1835,1112.5C 1863.8,1048.45 1892.8,984.45 1922,920.5C 1934.49,893.338 1951.65,869.505 1973.5,849C 1995.04,830.559 2019.71,817.893 2047.5,811C 2063.48,807.41 2079.48,804.91 2095.5,803.5 Z"/></g>
<g><path style="opacity:0.991" fill="#000000" d="M 2494.5,803.5 C 2575.83,803.333 2657.17,803.5 2738.5,804C 2724.07,817.089 2711.9,831.922 2702,848.5C 2682.95,887.926 2664.45,927.593 2646.5,967.5C 2698.07,968.83 2749.57,968.83 2801,967.5C 2819.22,928.403 2836.88,889.07 2854,849.5C 2859.71,834.85 2861.21,819.85 2858.5,804.5C 2939.83,803.333 3021.16,803.167 3102.5,804C 3081.67,823.5 3065.51,846.333 3054,872.5C 3010.61,968.286 2966.94,1063.95 2923,1159.5C 2914.47,1177.64 2911.3,1196.64 2913.5,1216.5C 2832.83,1216.67 2752.17,1216.5 2671.5,1216C 2684.52,1202.31 2696.36,1187.14 2707,1170.5C 2728.17,1126.83 2748.67,1082.83 2768.5,1038.5C 2717.17,1037.17 2665.83,1037.17 2614.5,1038.5C 2594.12,1081.93 2574.29,1125.6 2555,1169.5C 2549.18,1184.72 2547.35,1200.38 2549.5,1216.5C 2469.83,1216.5 2390.33,1216.83 2311,1217.5C 2309.49,1216.91 2307.99,1216.24 2306.5,1215.5C 2327.84,1195.31 2344.34,1171.64 2356,1144.5C 2399.65,1048.53 2443.32,952.531 2487,856.5C 2492.32,844.214 2495.49,831.381 2496.5,818C 2496.04,813.116 2495.37,808.283 2494.5,803.5 Z"/></g>
<g><path style="opacity:0.989" fill="#000000" d="M 3117.5,803.5 C 3275.5,803.167 3433.5,803.5 3591.5,804.5C 3585.16,830.87 3578.66,857.203 3572,883.5C 3548.19,876.67 3523.86,873.003 3499,872.5C 3436.06,872.77 3373.56,873.103 3311.5,873.5C 3297.3,904.742 3282.96,935.908 3268.5,967C 3328.17,967.667 3387.83,967.667 3447.5,967C 3469.74,965.47 3491.74,962.304 3513.5,957.5C 3514.17,957.833 3514.83,958.167 3515.5,958.5C 3502.27,987.953 3488.77,1017.29 3475,1046.5C 3474.28,1047.06 3473.44,1047.39 3472.5,1047.5C 3454.48,1042.52 3436.15,1039.35 3417.5,1038C 3357.17,1036.27 3296.84,1036.1 3236.5,1037.5C 3220.24,1073.86 3203.57,1110.03 3186.5,1146C 3256.5,1146.67 3326.5,1146.67 3396.5,1146C 3420.05,1144.73 3443.21,1141.23 3466,1135.5C 3448.64,1162.5 3430.47,1189.16 3411.5,1215.5C 3250.54,1216.83 3089.54,1216.83 2928.5,1215.5C 2949.64,1195.58 2966.14,1172.25 2978,1145.5C 3021.33,1050.17 3064.67,954.833 3108,859.5C 3116.3,841.662 3119.46,822.996 3117.5,803.5 Z"/></g>
<g><path style="opacity:0.992" fill="#000000" d="M 3639.5,803.5 C 3800.17,803.333 3960.83,803.5 4121.5,804C 4141.64,804.894 4160.98,809.228 4179.5,817C 4197.56,827.82 4204.4,843.653 4200,864.5C 4198.14,873.415 4195.47,882.082 4192,890.5C 4177.43,923.543 4162.1,956.209 4146,988.5C 4130.68,1013.42 4108.52,1028.25 4079.5,1033C 4066.91,1034.98 4054.24,1036.14 4041.5,1036.5C 4051.21,1089.45 4060.71,1142.45 4070,1195.5C 4071.77,1202.37 4074.6,1208.7 4078.5,1214.5C 4078.29,1215.09 4077.96,1215.59 4077.5,1216C 3999.93,1216.83 3922.43,1216.66 3845,1215.5C 3838.9,1155.86 3833.06,1096.19 3827.5,1036.5C 3806.17,1036.5 3784.83,1036.5 3763.5,1036.5C 3744.35,1079.47 3725.18,1122.47 3706,1165.5C 3699.41,1181.83 3696.91,1198.67 3698.5,1216C 3617.83,1216.83 3537.16,1216.67 3456.5,1215.5C 3472.88,1199.97 3486.38,1182.3 3497,1162.5C 3542.14,1063.42 3587.47,964.416 3633,865.5C 3638.08,853.932 3641.74,841.932 3644,829.5C 3644.77,820.43 3643.27,811.763 3639.5,803.5 Z M 3839.5,872.5 C 3883.23,872.738 3927.9,872.904 3973.5,873C 3979.44,873.127 3983.11,875.961 3984.5,881.5C 3975.61,905.336 3965.44,928.669 3954,951.5C 3948.78,960.534 3940.95,965.7 3930.5,967C 3885.83,967.833 3841.16,967.667 3796.5,966.5C 3810.85,935.145 3825.18,903.812 3839.5,872.5 Z"/></g>
<g><path style="opacity:0.883" fill="#000000" d="M 4653.5,1153.5 C 4672.57,1152.41 4684.4,1161.08 4689,1179.5C 4689.49,1205.01 4676.99,1216.84 4651.5,1215C 4633.61,1209.42 4625.77,1197.25 4628,1178.5C 4631.75,1165.24 4640.25,1156.91 4653.5,1153.5 Z M 4654.5,1160.5 C 4673.71,1161.23 4682.54,1171.23 4681,1190.5C 4674.34,1207.83 4662.51,1212.67 4645.5,1205C 4633.41,1193.19 4632.41,1180.52 4642.5,1167C 4646.16,1164.01 4650.16,1161.84 4654.5,1160.5 Z M 4653.5,1173.5 C 4656.93,1173.11 4660.1,1173.77 4663,1175.5C 4663.03,1181.6 4659.86,1183.93 4653.5,1182.5C 4653.5,1179.5 4653.5,1176.5 4653.5,1173.5 Z"/></g>
<g><path style="opacity:0.896" fill="#000000" d="M 4645.5,1167.5 C 4652.17,1167.33 4658.84,1167.5 4665.5,1168C 4671.7,1171.31 4673.37,1176.15 4670.5,1182.5C 4669.02,1183.48 4667.69,1184.65 4666.5,1186C 4668.33,1186.5 4669.5,1187.67 4670,1189.5C 4670.9,1193.83 4671.73,1198.17 4672.5,1202.5C 4669.81,1202.66 4667.15,1202.5 4664.5,1202C 4663.33,1198.18 4662.17,1194.35 4661,1190.5C 4658.62,1189.45 4656.12,1188.78 4653.5,1188.5C 4653.5,1193.17 4653.5,1197.83 4653.5,1202.5C 4650.83,1202.5 4648.17,1202.5 4645.5,1202.5C 4645.5,1190.83 4645.5,1179.17 4645.5,1167.5 Z M 4653.5,1173.5 C 4653.5,1176.5 4653.5,1179.5 4653.5,1182.5C 4659.86,1183.93 4663.03,1181.6 4663,1175.5C 4660.1,1173.77 4656.93,1173.11 4653.5,1173.5 Z"/></g>
</svg>
