<?xml version="1.0" encoding="UTF-8"?>
<!DOCTYPE svg PUBLIC "-//W3C//DTD SVG 1.1//EN" "http://www.w3.org/Graphics/SVG/1.1/DTD/svg11.dtd">
<svg xmlns="http://www.w3.org/2000/svg" version="1.1" width="3840px" height="2160px" style="shape-rendering:geometricPrecision; text-rendering:geometricPrecision; image-rendering:optimizeQuality; fill-rule:evenodd; clip-rule:evenodd" xmlns:xlink="http://www.w3.org/1999/xlink">
<g><path style="opacity:0.995" fill="#1d1413" d="M 1285.5,561.5 C 1407.3,560.161 1517.3,594.994 1615.5,666C 1711.42,740.569 1773.59,837.403 1802,956.5C 1826.87,1068.43 1818.54,1177.76 1777,1284.5C 1711.4,1435.43 1599.57,1533.93 1441.5,1580C 1379.14,1596.14 1315.8,1601.81 1251.5,1597C 1102.14,1584.91 980.307,1521.41 886,1406.5C 807.31,1302.74 770.977,1185.4 777,1054.5C 783.371,926.829 829.038,815.829 914,721.5C 1000.14,633.684 1104.64,581.85 1227.5,566C 1246.94,563.874 1266.28,562.374 1285.5,561.5 Z M 1277.5,670.5 C 1358.19,667.008 1433.53,685.175 1503.5,725C 1583.93,776.467 1638.43,847.967 1667,939.5C 1692.43,1028.14 1693.76,1117.14 1671,1206.5C 1650.21,1282.2 1611.05,1346.37 1553.5,1399C 1492.22,1450.12 1421.55,1479.45 1341.5,1487C 1222.47,1498.77 1117.8,1466.1 1027.5,1389C 970.295,1333.79 933.461,1266.95 917,1188.5C 894.609,1084.8 903.942,984.134 945,886.5C 987.607,794.56 1056.44,731.06 1151.5,696C 1192.38,681.257 1234.38,672.757 1277.5,670.5 Z"/></g>
<g><path style="opacity:0.994" fill="#1d1413" d="M 3405.5,561.5 C 3471.88,559.597 3534.55,573.764 3593.5,604C 3612.08,614.416 3629.41,626.582 3645.5,640.5C 3648.85,686.429 3651.18,732.429 3652.5,778.5C 3645.83,778.666 3639.16,778.5 3632.5,778C 3599.02,737.507 3558.35,706.507 3510.5,685C 3461.97,665.047 3411.97,660.213 3360.5,670.5C 3323.11,678.778 3292.61,697.778 3269,727.5C 3240.27,772.607 3238.27,818.94 3263,866.5C 3282.83,897 3308,922.167 3338.5,942C 3383.77,970.471 3431.44,994.471 3481.5,1014C 3528.76,1034.95 3572.76,1060.95 3613.5,1092C 3708.57,1168.22 3740.74,1265.72 3710,1384.5C 3692.91,1441.58 3661.41,1489.08 3615.5,1527C 3564.37,1568.54 3505.7,1591.88 3439.5,1597C 3315.52,1607.46 3208.69,1570.29 3119,1485.5C 3121.24,1435.5 3123.74,1385.5 3126.5,1335.5C 3131.51,1335.33 3136.51,1335.5 3141.5,1336C 3177.5,1381.67 3219.5,1420.67 3267.5,1453C 3332.15,1489.43 3400.48,1498.43 3472.5,1480C 3550.86,1453.61 3590.86,1398.94 3592.5,1316C 3591.85,1264.71 3572.52,1222.05 3534.5,1188C 3499.56,1157.84 3460.89,1133.18 3418.5,1114C 3373.49,1095.5 3330.16,1073.83 3288.5,1049C 3245.4,1022.25 3208.24,988.746 3177,948.5C 3134.73,887.8 3121.39,821.134 3137,748.5C 3148.09,701.128 3172.26,661.962 3209.5,631C 3266.77,585.553 3332.1,562.386 3405.5,561.5 Z"/></g>
<g><path style="opacity:0.907" fill="#1d1413" d="M 3689.5,561.5 C 3703.35,560.172 3713.52,565.505 3720,577.5C 3725.58,604.57 3714.75,617.403 3687.5,616C 3674.44,612.089 3667.44,603.256 3666.5,589.5C 3667.14,574.155 3674.8,564.822 3689.5,561.5 Z M 3690.5,567.5 C 3707.81,567.638 3715.97,576.304 3715,593.5C 3711.35,606.411 3702.85,611.911 3689.5,610C 3673.91,603.247 3669.75,592.081 3677,576.5C 3680.53,571.834 3685.03,568.834 3690.5,567.5 Z M 3688.5,577.5 C 3692.6,577.234 3696.6,577.734 3700.5,579C 3701.98,581.592 3701.65,583.925 3699.5,586C 3695.85,586.499 3692.18,586.665 3688.5,586.5C 3688.5,583.5 3688.5,580.5 3688.5,577.5 Z"/></g>
<g><path style="opacity:0.845" fill="#1d1413" d="M 3683.5,573.5 C 3689.84,573.334 3696.18,573.5 3702.5,574C 3706.33,577.264 3707.49,581.431 3706,586.5C 3705.17,587.333 3704.33,588.167 3703.5,589C 3704.7,589.903 3705.53,591.069 3706,592.5C 3706.25,595.89 3706.75,599.223 3707.5,602.5C 3705.65,603.76 3703.81,603.76 3702,602.5C 3701.75,599.11 3701.25,595.777 3700.5,592.5C 3696.55,591.509 3692.55,591.176 3688.5,591.5C 3688.5,595.5 3688.5,599.5 3688.5,603.5C 3686.83,603.5 3685.17,603.5 3683.5,603.5C 3683.5,593.5 3683.5,583.5 3683.5,573.5 Z M 3688.5,577.5 C 3688.5,580.5 3688.5,583.5 3688.5,586.5C 3692.18,586.665 3695.85,586.499 3699.5,586C 3701.65,583.925 3701.98,581.592 3700.5,579C 3696.6,577.734 3692.6,577.234 3688.5,577.5 Z"/></g>
<g><path style="opacity:0.996" fill="#1d1413" d="M 119.5,581.5 C 337.167,581.5 554.833,581.5 772.5,581.5C 772.5,617.833 772.5,654.167 772.5,690.5C 685.167,690.5 597.833,690.5 510.5,690.5C 510.5,986.5 510.5,1282.5 510.5,1578.5C 467.5,1578.5 424.5,1578.5 381.5,1578.5C 381.5,1282.5 381.5,986.5 381.5,690.5C 294.167,690.5 206.833,690.5 119.5,690.5C 119.5,654.167 119.5,617.833 119.5,581.5 Z"/></g>
<g><path style="opacity:0.995" fill="#1d1413" d="M 2113.5,581.5 C 2127.84,581.333 2142.17,581.5 2156.5,582C 2252.86,824.07 2349.02,1066.24 2445,1308.5C 2541,1066.5 2637,824.5 2733,582.5C 2747.76,581.509 2762.59,581.176 2777.5,581.5C 2863.66,913.799 2949.66,1246.13 3035.5,1578.5C 2992.59,1578.83 2949.76,1578.5 2907,1577.5C 2849.98,1356.07 2792.64,1134.74 2735,913.5C 2643.14,1134.75 2551.47,1356.09 2460,1577.5C 2449.89,1578.82 2439.73,1578.82 2429.5,1577.5C 2338,1355.83 2246.5,1134.17 2155,912.5C 2097.52,1134.44 2040.35,1356.44 1983.5,1578.5C 1940.5,1578.5 1897.5,1578.5 1854.5,1578.5C 1940.37,1246.03 2026.7,913.695 2113.5,581.5 Z"/></g>
</svg>
