<?xml version="1.0" encoding="UTF-8"?>
<!DOCTYPE svg PUBLIC "-//W3C//DTD SVG 1.1//EN" "http://www.w3.org/Graphics/SVG/1.1/DTD/svg11.dtd">
<svg xmlns="http://www.w3.org/2000/svg" version="1.1" width="3840px" height="2160px" style="shape-rendering:geometricPrecision; text-rendering:geometricPrecision; image-rendering:optimizeQuality; fill-rule:evenodd; clip-rule:evenodd" xmlns:xlink="http://www.w3.org/1999/xlink">
<g><path style="opacity:0.993" fill="#005db8" d="M 346.5,848.5 C 565.111,858.589 777.777,899.422 984.5,971C 1015.65,982.052 1045.99,995.052 1075.5,1010C 1083.34,1014.75 1091,1019.75 1098.5,1025C 1103.48,1028.97 1107.31,1033.8 1110,1039.5C 1111.08,1044.07 1110.24,1048.24 1107.5,1052C 1097.21,1058.75 1085.88,1062.75 1073.5,1064C 1023.49,1069.53 973.486,1075.2 923.5,1081C 710.056,1107.14 513.056,1177.8 332.5,1293C 309.89,1305.6 286.724,1311.44 263,1310.5C 242.213,1309.01 221.713,1305.51 201.5,1300C 151.809,1286.1 104.143,1267.1 58.5,1243C 47.1607,1236.74 36.994,1228.91 28,1219.5C 18,1206.17 18,1192.83 28,1179.5C 36.8442,1170.67 46.6775,1163.17 57.5,1157C 92.1562,1140.11 128.156,1126.78 165.5,1117C 244.676,1096.7 324.676,1080.36 405.5,1068C 486.466,1056.09 567.466,1044.42 648.5,1033C 665.896,1030.19 682.896,1025.85 699.5,1020C 707.849,1017.27 714.015,1012.1 718,1004.5C 719.03,999.72 718.03,995.387 715,991.5C 710.462,985.961 705.296,981.128 699.5,977C 663.402,954.454 625.069,936.454 584.5,923C 505.247,896.437 424.914,873.771 343.5,855C 341.473,853.604 341.14,851.938 342.5,850C 344.058,849.79 345.391,849.29 346.5,848.5 Z"/></g>
<g><path style="opacity:0.993" fill="#005db8" d="M 2372.5,857.5 C 2398.66,857.13 2425,861.297 2451.5,870C 2480.89,880.409 2504.06,898.575 2521,924.5C 2534.56,950.54 2537.89,977.873 2531,1006.5C 2519.11,1050.39 2506.44,1094.06 2493,1137.5C 2482.25,1171.68 2466.25,1203.01 2445,1231.5C 2419.29,1261.79 2386.79,1280.95 2347.5,1289C 2333.65,1292.2 2319.65,1294.53 2305.5,1296C 2279.37,1297.96 2255.21,1299.12 2233,1299.5C 2199.55,1298.93 2168.05,1290.76 2138.5,1275C 2091.25,1245.98 2073.42,1204.15 2085,1149.5C 2094.18,1116.46 2103.51,1083.46 2113,1050.5C 2123.98,1012.55 2140.31,977.221 2162,944.5C 2195.42,899.182 2240.26,872.348 2296.5,864C 2321.84,860.116 2347.18,857.949 2372.5,857.5 Z M 2335.5,950.5 C 2352.99,948.991 2369.99,951.158 2386.5,957C 2408.16,967.815 2416.99,985.315 2413,1009.5C 2404.18,1048.79 2393.18,1087.46 2380,1125.5C 2351.18,1193.16 2301.01,1217.99 2229.5,1200C 2211.65,1191.97 2202.32,1178.14 2201.5,1158.5C 2202.05,1150.41 2203.21,1142.41 2205,1134.5C 2212,1109.17 2219,1083.83 2226,1058.5C 2232.56,1035.46 2242.56,1014.12 2256,994.5C 2276.06,968.221 2302.56,953.554 2335.5,950.5 Z"/></g>
<g><path style="opacity:0.993" fill="#005db8" d="M 2823.5,857.5 C 2860.29,856.389 2895.63,864.889 2929.5,883C 2977.33,913.787 2994.16,956.953 2980,1012.5C 2967.75,1057.82 2954.42,1102.82 2940,1147.5C 2929.92,1176.67 2915.92,1203.67 2898,1228.5C 2872.88,1258.92 2841.05,1278.76 2802.5,1288C 2783.74,1292.49 2764.74,1295.49 2745.5,1297C 2713.69,1299.66 2683.69,1299.66 2655.5,1297C 2620.56,1292.52 2589.89,1278.86 2563.5,1256C 2534.4,1225.09 2525.23,1188.93 2536,1147.5C 2547.46,1104.47 2560.12,1061.8 2574,1019.5C 2586.2,985.749 2603.53,955.082 2626,927.5C 2654.79,895.846 2690.29,875.679 2732.5,867C 2762.68,860.916 2793.01,857.749 2823.5,857.5 Z M 2785.5,950.5 C 2802.21,949.269 2818.54,951.102 2834.5,956C 2853.74,963.655 2863.74,977.822 2864.5,998.5C 2864.07,1006.94 2862.9,1015.27 2861,1023.5C 2852.42,1056.83 2842.75,1089.83 2832,1122.5C 2804.66,1191.25 2754.83,1217.42 2682.5,1201C 2662.76,1193.58 2652.76,1179.25 2652.5,1158C 2652.83,1149.39 2653.99,1140.89 2656,1132.5C 2663,1107.5 2670,1082.5 2677,1057.5C 2684.62,1030.93 2696.95,1006.93 2714,985.5C 2733.6,965.119 2757.43,953.452 2785.5,950.5 Z"/></g>
<g><path style="opacity:0.992" fill="#005db8" d="M 1363.5,863.5 C 1413,863.502 1462.5,863.502 1512,863.5C 1545.68,863.369 1578.18,869.535 1609.5,882C 1652.98,903.467 1669.15,937.967 1658,985.5C 1652.82,1010 1640.32,1029.84 1620.5,1045C 1603.15,1056.51 1584.81,1066.18 1565.5,1074C 1595.01,1090.87 1609.18,1116.37 1608,1150.5C 1603.85,1221.63 1567.35,1265.79 1498.5,1283C 1461.31,1290.25 1423.81,1293.75 1386,1293.5C 1334.89,1293.47 1283.22,1293.47 1231,1293.5C 1223.12,1292.92 1215.28,1291.76 1207.5,1290C 1197.47,1285.29 1192.8,1277.29 1193.5,1266C 1193.59,1262.11 1194.09,1258.28 1195,1254.5C 1232.33,1133.83 1269.67,1013.17 1307,892.5C 1311.85,878.321 1321.68,869.821 1336.5,867C 1345.59,865.37 1354.59,864.203 1363.5,863.5 Z M 1402.5,947.5 C 1433.17,947.333 1463.84,947.5 1494.5,948C 1506.4,948.112 1518.07,949.779 1529.5,953C 1541.88,957.903 1548.21,967.07 1548.5,980.5C 1547.07,1010.1 1531.73,1027.26 1502.5,1032C 1493.24,1033.66 1483.9,1034.66 1474.5,1035C 1441.49,1035.83 1408.49,1035.67 1375.5,1034.5C 1384.35,1005.42 1393.35,976.424 1402.5,947.5 Z M 1351.5,1111.5 C 1380.54,1111.52 1409.37,1111.52 1438,1111.5C 1452.85,1111.53 1467.02,1114.69 1480.5,1121C 1491.43,1129.19 1497.1,1140.19 1497.5,1154C 1496.93,1185.83 1480.93,1203.83 1449.5,1208C 1440.28,1208.9 1431.12,1209.74 1422,1210.5C 1388.67,1210.5 1355.33,1210.5 1322,1210.5C 1331.1,1177.36 1340.93,1144.36 1351.5,1111.5 Z"/></g>
<g><path style="opacity:0.992" fill="#005db8" d="M 1790.5,863.5 C 1839.21,863.51 1887.71,863.51 1936,863.5C 1962.9,864.268 1989.4,868.101 2015.5,875C 2042.07,881.511 2062.9,896.011 2078,918.5C 2087.44,936.708 2091.11,956.041 2089,976.5C 2085.31,1039.44 2055.14,1084.27 1998.5,1111C 1983.71,1117.39 1968.71,1123.23 1953.5,1128.5C 1973,1179.5 1992.5,1230.5 2012,1281.5C 2013.63,1287.52 2011.47,1291.36 2005.5,1293C 1980.17,1293.67 1954.83,1293.67 1929.5,1293C 1910.43,1291.89 1896.93,1282.73 1889,1265.5C 1874.26,1226.46 1859.43,1187.46 1844.5,1148.5C 1820.27,1147.17 1796.1,1147.17 1772,1148.5C 1758.33,1192.83 1744.67,1237.17 1731,1281.5C 1728.2,1287.97 1723.37,1291.8 1716.5,1293C 1685.83,1293.67 1655.17,1293.67 1624.5,1293C 1617.85,1290.54 1616.02,1286.04 1619,1279.5C 1659.36,1148.73 1700.03,1018.06 1741,887.5C 1747.77,875.02 1758.27,867.854 1772.5,866C 1778.65,865.162 1784.65,864.329 1790.5,863.5 Z M 1834.5,946.5 C 1857.15,946.552 1879.32,946.552 1901,946.5C 1913.88,947.117 1926.72,948.617 1939.5,951C 1960.61,955.106 1972.28,967.773 1974.5,989C 1974.05,1008.68 1968.22,1026.52 1957,1042.5C 1948.45,1051.03 1938.28,1056.86 1926.5,1060C 1916.36,1062.04 1906.2,1063.54 1896,1064.5C 1863.71,1064.49 1831.21,1064.49 1798.5,1064.5C 1810.3,1025.11 1822.3,985.774 1834.5,946.5 Z"/></g>
<g><path style="opacity:0.991" fill="#005db8" d="M 3082.5,863.5 C 3114.17,863.333 3145.84,863.5 3177.5,864C 3180.23,864.398 3182.07,865.898 3183,868.5C 3183.62,873.326 3182.95,877.992 3181,882.5C 3163.06,940.142 3145.23,997.808 3127.5,1055.5C 3133.46,1056.57 3138.79,1055.07 3143.5,1051C 3204.69,993.898 3265.69,936.565 3326.5,879C 3336.61,870.45 3348.27,865.45 3361.5,864C 3394.5,863.333 3427.5,863.333 3460.5,864C 3462.81,865.052 3464.14,866.885 3464.5,869.5C 3462.4,873.106 3459.73,876.273 3456.5,879C 3382.83,946.667 3309.17,1014.33 3235.5,1082C 3231.02,1086.09 3229.86,1090.92 3232,1096.5C 3263.67,1158.5 3295.33,1220.5 3327,1282.5C 3327.85,1285.59 3327.35,1288.42 3325.5,1291C 3294.59,1292.65 3263.59,1292.98 3232.5,1292C 3218.44,1289.06 3207.61,1281.56 3200,1269.5C 3174.33,1219.5 3148.67,1169.5 3123,1119.5C 3119.87,1114.53 3115.37,1111.87 3109.5,1111.5C 3092.11,1170.07 3073.94,1228.4 3055,1286.5C 3051.98,1290.09 3048.15,1292.26 3043.5,1293C 3012.83,1293.67 2982.17,1293.67 2951.5,1293C 2946.67,1292.5 2944.33,1289.83 2944.5,1285C 2986.46,1148.12 3028.63,1011.28 3071,874.5C 3073.11,868.89 3076.94,865.224 3082.5,863.5 Z"/></g>
<g><path style="opacity:0.99" fill="#005db8" d="M 3641.5,863.5 C 3698.5,863.333 3755.5,863.5 3812.5,864C 3818.11,867.277 3819.94,872.11 3818,878.5C 3808.49,920.019 3782.65,943.186 3740.5,948C 3700.5,948.333 3660.5,948.667 3620.5,949C 3603.47,949.437 3589.3,955.937 3578,968.5C 3571.88,978.326 3569.21,988.993 3570,1000.5C 3571.45,1005.89 3574.28,1010.39 3578.5,1014C 3585.51,1018.51 3592.85,1022.51 3600.5,1026C 3628.09,1036.2 3655.76,1046.2 3683.5,1056C 3725,1071.83 3744.84,1101.99 3743,1146.5C 3740.35,1180.47 3728.68,1210.8 3708,1237.5C 3688.15,1258.18 3664.32,1272.35 3636.5,1280C 3601.51,1288.81 3566.01,1293.31 3530,1293.5C 3478.93,1293.63 3427.09,1293.46 3374.5,1293C 3368.23,1292.23 3364.9,1288.73 3364.5,1282.5C 3368.8,1246.71 3388.13,1223.54 3422.5,1213C 3430.37,1210.89 3438.37,1209.56 3446.5,1209C 3487.19,1208.95 3527.86,1208.29 3568.5,1207C 3602.64,1201.87 3621.3,1182.2 3624.5,1148C 3623.86,1135.73 3618.53,1126.06 3608.5,1119C 3602.33,1115.08 3596,1111.41 3589.5,1108C 3563.5,1098.67 3537.5,1089.33 3511.5,1080C 3490.44,1071.93 3473.94,1058.43 3462,1039.5C 3456.09,1028.36 3452.92,1016.52 3452.5,1004C 3454.11,971.507 3464.61,942.34 3484,916.5C 3504.41,894.788 3529.25,880.621 3558.5,874C 3586,867.987 3613.66,864.487 3641.5,863.5 Z"/></g>
</svg>
