<?xml version="1.0" encoding="UTF-8"?>
<!DOCTYPE svg PUBLIC "-//W3C//DTD SVG 1.1//EN" "http://www.w3.org/Graphics/SVG/1.1/DTD/svg11.dtd">
<svg xmlns="http://www.w3.org/2000/svg" version="1.1" width="3840px" height="2160px" style="shape-rendering:geometricPrecision; text-rendering:geometricPrecision; image-rendering:optimizeQuality; fill-rule:evenodd; clip-rule:evenodd" xmlns:xlink="http://www.w3.org/1999/xlink">
<g><path style="opacity:1" fill="#f8141a" d="M 986.5,966.5 C 987.032,969.46 987.699,969.793 988.5,967.5C 1075.03,747.901 1161.37,528.234 1247.5,308.5C 1954.17,308.333 2660.83,308.5 3367.5,309C 3362.09,364.414 3357.09,419.914 3352.5,475.5C 2701.17,475.5 2049.83,475.5 1398.5,475.5C 1294.41,741.692 1189.74,1007.69 1084.5,1273.5C 1016.17,1274.67 947.836,1274.83 879.5,1274C 764.276,952.548 649.609,630.881 535.5,309C 608.499,308.5 681.499,308.333 754.5,308.5C 831.833,527.833 909.167,747.167 986.5,966.5 Z"/></g>
<g><path style="opacity:1" fill="#ff8381" d="M 2989.5,577.5 C 3007.17,576.167 3024.83,576.167 3042.5,577.5C 3024.8,577.985 3007.14,577.985 2989.5,577.5 Z"/></g>
<g><path style="opacity:1" fill="#f8161b" d="M 2989.5,577.5 C 3007.14,577.985 3024.8,577.985 3042.5,577.5C 3108.87,579.233 3168.87,599.4 3222.5,638C 3227.28,641.381 3231.61,645.214 3235.5,649.5C 3235.97,650.906 3236.97,651.573 3238.5,651.5C 3248.33,660.183 3257,669.85 3264.5,680.5C 3264.43,682.027 3265.09,683.027 3266.5,683.5C 3267.17,683.5 3267.5,683.833 3267.5,684.5C 3267.43,686.027 3268.09,687.027 3269.5,687.5C 3270.97,688.436 3271.97,689.77 3272.5,691.5C 3272.43,693.027 3273.09,694.027 3274.5,694.5C 3274.43,696.027 3275.09,697.027 3276.5,697.5C 3276.43,699.027 3277.09,700.027 3278.5,700.5C 3279.34,700.842 3279.67,701.508 3279.5,702.5C 3279.43,704.027 3280.09,705.027 3281.5,705.5C 3282.34,705.842 3282.67,706.508 3282.5,707.5C 3282.43,709.027 3283.09,710.027 3284.5,710.5C 3298.59,732.941 3306.59,757.441 3308.5,784C 3253.5,784.667 3198.5,784.667 3143.5,784C 3137.23,764.102 3126.23,747.435 3110.5,734C 3094.02,723.506 3076.02,717.173 3056.5,715C 3033.82,711.799 3011.16,711.799 2988.5,715C 2970.8,717.498 2955.14,724.332 2941.5,735.5C 2940.17,735.5 2939.5,736.167 2939.5,737.5C 2928.19,750.395 2925.36,765.062 2931,781.5C 2933.09,786.694 2935.92,791.361 2939.5,795.5C 2939.5,796.833 2940.17,797.5 2941.5,797.5C 2941.5,798.833 2942.17,799.5 2943.5,799.5C 2943.5,800.833 2944.17,801.5 2945.5,801.5C 2956.58,810.379 2968.91,817.212 2982.5,822C 3025.78,834.152 3069.11,845.985 3112.5,857.5C 3114.1,859.074 3116.1,859.741 3118.5,859.5C 3147.05,865.804 3175.05,873.971 3202.5,884C 3230.34,896.009 3253.67,913.842 3272.5,937.5C 3272.43,939.027 3273.09,940.027 3274.5,940.5C 3275.17,940.5 3275.5,940.833 3275.5,941.5C 3275.43,943.027 3276.09,944.027 3277.5,944.5C 3278.17,944.5 3278.5,944.833 3278.5,945.5C 3278.43,947.027 3279.09,948.027 3280.5,948.5C 3280.43,950.027 3281.09,951.027 3282.5,951.5C 3282.43,953.027 3283.09,954.027 3284.5,954.5C 3286.59,956.336 3287.92,958.669 3288.5,961.5C 3288.43,963.027 3289.09,964.027 3290.5,964.5C 3309.58,1000.76 3317.08,1039.42 3313,1080.5C 3307.42,1149.86 3275.59,1203.36 3217.5,1241C 3191.94,1255.86 3164.61,1266.19 3135.5,1272C 3063.8,1285.75 2992.13,1285.75 2920.5,1272C 2894.5,1266.06 2869.84,1256.89 2846.5,1244.5C 2846.03,1243.09 2845.03,1242.43 2843.5,1242.5C 2841.85,1242.34 2840.51,1241.67 2839.5,1240.5C 2839.03,1239.09 2838.03,1238.43 2836.5,1238.5C 2833.67,1237.92 2831.34,1236.59 2829.5,1234.5C 2829.03,1233.09 2828.03,1232.43 2826.5,1232.5C 2826.03,1231.09 2825.03,1230.43 2823.5,1230.5C 2823.03,1229.09 2822.03,1228.43 2820.5,1228.5C 2820.03,1227.09 2819.03,1226.43 2817.5,1226.5C 2815.77,1225.97 2814.44,1224.97 2813.5,1223.5C 2813.03,1222.09 2812.03,1221.43 2810.5,1221.5C 2805.42,1217.96 2800.75,1213.96 2796.5,1209.5C 2796.03,1208.09 2795.03,1207.43 2793.5,1207.5C 2752.13,1170.06 2728.8,1123.39 2723.5,1067.5C 2723.5,1063.83 2723.5,1060.17 2723.5,1056.5C 2781.17,1056.5 2838.83,1056.5 2896.5,1056.5C 2899.95,1069.18 2904.95,1081.18 2911.5,1092.5C 2911.43,1094.03 2912.09,1095.03 2913.5,1095.5C 2914.17,1095.5 2914.5,1095.83 2914.5,1096.5C 2914.43,1098.03 2915.09,1099.03 2916.5,1099.5C 2933.36,1119.11 2954.7,1131.28 2980.5,1136C 3020.88,1144.49 3060.88,1143.16 3100.5,1132C 3108.47,1128.68 3116.14,1124.85 3123.5,1120.5C 3125.03,1120.57 3126.03,1119.91 3126.5,1118.5C 3126.5,1117.83 3126.83,1117.5 3127.5,1117.5C 3131.17,1115.83 3133.83,1113.17 3135.5,1109.5C 3135.83,1108.5 3136.5,1107.83 3137.5,1107.5C 3138.91,1107.03 3139.57,1106.03 3139.5,1104.5C 3139.33,1103.51 3139.66,1102.84 3140.5,1102.5C 3141.91,1102.03 3142.57,1101.03 3142.5,1099.5C 3152.68,1071.55 3146.35,1048.21 3123.5,1029.5C 3123.03,1028.09 3122.03,1027.43 3120.5,1027.5C 3120.03,1026.09 3119.03,1025.43 3117.5,1025.5C 3116.51,1025.67 3115.84,1025.34 3115.5,1024.5C 3115.03,1023.09 3114.03,1022.43 3112.5,1022.5C 3099.87,1016.79 3086.87,1011.96 3073.5,1008C 3017.23,993.267 2961.23,977.6 2905.5,961C 2882.17,953.991 2859.83,944.824 2838.5,933.5C 2838.03,932.094 2837.03,931.427 2835.5,931.5C 2834.51,931.672 2833.84,931.338 2833.5,930.5C 2833.03,929.094 2832.03,928.427 2830.5,928.5C 2829.51,928.672 2828.84,928.338 2828.5,927.5C 2828.03,926.094 2827.03,925.427 2825.5,925.5C 2825.03,924.094 2824.03,923.427 2822.5,923.5C 2822.03,922.094 2821.03,921.427 2819.5,921.5C 2772.82,886.822 2748.82,840.155 2747.5,781.5C 2747.54,751.942 2754.54,724.275 2768.5,698.5C 2769.91,698.027 2770.57,697.027 2770.5,695.5C 2770.66,693.847 2771.33,692.514 2772.5,691.5C 2773.91,691.027 2774.57,690.027 2774.5,688.5C 2775.76,684.975 2777.76,681.975 2780.5,679.5C 2781.91,679.027 2782.57,678.027 2782.5,676.5C 2785.03,672.104 2788.03,668.104 2791.5,664.5C 2793.5,664.5 2794.5,663.5 2794.5,661.5C 2798.5,656.833 2802.83,652.5 2807.5,648.5C 2809.75,647.92 2811.42,646.587 2812.5,644.5C 2812.83,643.5 2813.5,642.833 2814.5,642.5C 2816.4,642.262 2817.74,641.262 2818.5,639.5C 2819.58,637.457 2821.25,636.124 2823.5,635.5C 2825.03,635.573 2826.03,634.906 2826.5,633.5C 2826.5,632.833 2826.83,632.5 2827.5,632.5C 2829.03,632.573 2830.03,631.906 2830.5,630.5C 2832.03,630.573 2833.03,629.906 2833.5,628.5C 2835.03,628.573 2836.03,627.906 2836.5,626.5C 2838.03,626.573 2839.03,625.906 2839.5,624.5C 2841.03,624.573 2842.03,623.906 2842.5,622.5C 2844.03,622.573 2845.03,621.906 2845.5,620.5C 2845.84,619.662 2846.51,619.328 2847.5,619.5C 2849.03,619.573 2850.03,618.906 2850.5,617.5C 2850.84,616.662 2851.51,616.328 2852.5,616.5C 2854.03,616.573 2855.03,615.906 2855.5,614.5C 2856.51,613.326 2857.85,612.66 2859.5,612.5C 2861.03,612.573 2862.03,611.906 2862.5,610.5C 2902.06,589.359 2944.39,578.359 2989.5,577.5 Z"/></g>
<g><path style="opacity:1" fill="#f2c4c5" d="M 1728.5,591.5 C 1658.76,591.17 1589.1,591.504 1519.5,592.5C 1553.99,591.167 1588.83,590.5 1624,590.5C 1659,590.5 1693.83,590.833 1728.5,591.5 Z"/></g>
<g><path style="opacity:1" fill="#f8151b" d="M 1728.5,591.5 C 1810.56,817.342 1892.23,1043.34 1973.5,1269.5C 1973.5,1270.83 1973.5,1272.17 1973.5,1273.5C 1909.5,1273.67 1845.5,1273.5 1781.5,1273C 1768.67,1238 1756.33,1202.84 1744.5,1167.5C 1701.33,1166.83 1658,1166.5 1614.5,1166.5C 1570.83,1166.5 1527.49,1167.17 1484.5,1168.5C 1473.24,1203.28 1461.57,1237.95 1449.5,1272.5C 1383.83,1273.83 1318.17,1273.83 1252.5,1272.5C 1341.53,1045.73 1430.53,819.067 1519.5,592.5C 1589.1,591.504 1658.76,591.17 1728.5,591.5 Z M 1689.5,1040.5 C 1665.18,1041.83 1640.51,1042.5 1615.5,1042.5C 1590.49,1042.5 1565.82,1041.83 1541.5,1040.5C 1566.23,966.491 1591.06,892.491 1616,818.5C 1640.41,892.565 1664.91,966.565 1689.5,1040.5 Z"/></g>
<g><path style="opacity:1" fill="#fd9092" d="M 2225.5,591.5 C 2166.83,591.5 2108.17,591.5 2049.5,591.5C 2049.5,818.833 2049.5,1046.17 2049.5,1273.5C 2048.5,1046 2048.17,818.334 2048.5,590.5C 2107.67,590.168 2166.67,590.501 2225.5,591.5 Z"/></g>
<g><path style="opacity:1" fill="#f8121a" d="M 2225.5,591.5 C 2225.43,593.027 2226.09,594.027 2227.5,594.5C 2228.34,594.842 2228.67,595.508 2228.5,596.5C 2228.43,598.027 2229.09,599.027 2230.5,599.5C 2230.43,601.027 2231.09,602.027 2232.5,602.5C 2233.34,602.842 2233.67,603.508 2233.5,604.5C 2233.43,606.027 2234.09,607.027 2235.5,607.5C 2236.89,608.899 2237.89,610.566 2238.5,612.5C 2238.43,614.027 2239.09,615.027 2240.5,615.5C 2241.89,616.899 2242.89,618.566 2243.5,620.5C 2243.43,622.027 2244.09,623.027 2245.5,623.5C 2246.34,623.842 2246.67,624.508 2246.5,625.5C 2246.43,627.027 2247.09,628.027 2248.5,628.5C 2248.43,630.027 2249.09,631.027 2250.5,631.5C 2251.34,631.842 2251.67,632.508 2251.5,633.5C 2251.43,635.027 2252.09,636.027 2253.5,636.5C 2253.43,638.027 2254.09,639.027 2255.5,639.5C 2256.34,639.842 2256.67,640.508 2256.5,641.5C 2256.43,643.027 2257.09,644.027 2258.5,644.5C 2259.89,645.899 2260.89,647.566 2261.5,649.5C 2261.43,651.027 2262.09,652.027 2263.5,652.5C 2264.89,653.899 2265.89,655.566 2266.5,657.5C 2266.43,659.027 2267.09,660.027 2268.5,660.5C 2269.89,661.899 2270.89,663.566 2271.5,665.5C 2271.43,667.027 2272.09,668.027 2273.5,668.5C 2274.34,668.842 2274.67,669.508 2274.5,670.5C 2274.43,672.027 2275.09,673.027 2276.5,673.5C 2276.43,675.027 2277.09,676.027 2278.5,676.5C 2279.34,676.842 2279.67,677.508 2279.5,678.5C 2279.43,680.027 2280.09,681.027 2281.5,681.5C 2281.43,683.027 2282.09,684.027 2283.5,684.5C 2284.34,684.842 2284.67,685.508 2284.5,686.5C 2284.43,688.027 2285.09,689.027 2286.5,689.5C 2287.89,690.899 2288.89,692.566 2289.5,694.5C 2289.43,696.027 2290.09,697.027 2291.5,697.5C 2292.89,698.899 2293.89,700.566 2294.5,702.5C 2294.43,704.027 2295.09,705.027 2296.5,705.5C 2297.89,706.899 2298.89,708.566 2299.5,710.5C 2299.43,712.027 2300.09,713.027 2301.5,713.5C 2302.34,713.842 2302.67,714.508 2302.5,715.5C 2302.43,717.027 2303.09,718.027 2304.5,718.5C 2304.43,720.027 2305.09,721.027 2306.5,721.5C 2307.34,721.842 2307.67,722.508 2307.5,723.5C 2307.43,725.027 2308.09,726.027 2309.5,726.5C 2309.43,728.027 2310.09,729.027 2311.5,729.5C 2312.34,729.842 2312.67,730.508 2312.5,731.5C 2312.43,733.027 2313.09,734.027 2314.5,734.5C 2315.89,735.899 2316.89,737.566 2317.5,739.5C 2317.43,741.027 2318.09,742.027 2319.5,742.5C 2320.89,743.899 2321.89,745.566 2322.5,747.5C 2322.43,749.027 2323.09,750.027 2324.5,750.5C 2325.34,750.842 2325.67,751.508 2325.5,752.5C 2325.43,754.027 2326.09,755.027 2327.5,755.5C 2327.43,757.027 2328.09,758.027 2329.5,758.5C 2330.34,758.842 2330.67,759.508 2330.5,760.5C 2330.43,762.027 2331.09,763.027 2332.5,763.5C 2332.43,765.027 2333.09,766.027 2334.5,766.5C 2335.34,766.842 2335.67,767.508 2335.5,768.5C 2335.43,770.027 2336.09,771.027 2337.5,771.5C 2338.89,772.899 2339.89,774.566 2340.5,776.5C 2340.43,778.027 2341.09,779.027 2342.5,779.5C 2343.89,780.899 2344.89,782.566 2345.5,784.5C 2345.43,786.027 2346.09,787.027 2347.5,787.5C 2348.89,788.899 2349.89,790.566 2350.5,792.5C 2350.43,794.027 2351.09,795.027 2352.5,795.5C 2353.34,795.842 2353.67,796.508 2353.5,797.5C 2353.43,799.027 2354.09,800.027 2355.5,800.5C 2355.43,802.027 2356.09,803.027 2357.5,803.5C 2358.34,803.842 2358.67,804.508 2358.5,805.5C 2358.43,807.027 2359.09,808.027 2360.5,808.5C 2360.43,810.027 2361.09,811.027 2362.5,811.5C 2363.34,811.842 2363.67,812.508 2363.5,813.5C 2363.43,815.027 2364.09,816.027 2365.5,816.5C 2366.89,817.899 2367.89,819.566 2368.5,821.5C 2368.43,823.027 2369.09,824.027 2370.5,824.5C 2371.89,825.899 2372.89,827.566 2373.5,829.5C 2373.43,831.027 2374.09,832.027 2375.5,832.5C 2376.89,833.899 2377.89,835.566 2378.5,837.5C 2378.43,839.027 2379.09,840.027 2380.5,840.5C 2381.34,840.842 2381.67,841.508 2381.5,842.5C 2381.43,844.027 2382.09,845.027 2383.5,845.5C 2383.43,847.027 2384.09,848.027 2385.5,848.5C 2386.34,848.842 2386.67,849.508 2386.5,850.5C 2386.43,852.027 2387.09,853.027 2388.5,853.5C 2389.89,854.899 2390.89,856.566 2391.5,858.5C 2391.43,860.027 2392.09,861.027 2393.5,861.5C 2394.89,862.899 2395.89,864.566 2396.5,866.5C 2396.43,868.027 2397.09,869.027 2398.5,869.5C 2399.89,870.899 2400.89,872.566 2401.5,874.5C 2401.43,876.027 2402.09,877.027 2403.5,877.5C 2404.34,877.842 2404.67,878.508 2404.5,879.5C 2404.43,881.027 2405.09,882.027 2406.5,882.5C 2406.43,884.027 2407.09,885.027 2408.5,885.5C 2409.34,885.842 2409.67,886.508 2409.5,887.5C 2409.43,889.027 2410.09,890.027 2411.5,890.5C 2411.43,892.027 2412.09,893.027 2413.5,893.5C 2414.34,893.842 2414.67,894.508 2414.5,895.5C 2414.43,897.027 2415.09,898.027 2416.5,898.5C 2417.89,899.899 2418.89,901.566 2419.5,903.5C 2419.43,905.027 2420.09,906.027 2421.5,906.5C 2422.89,907.899 2423.89,909.566 2424.5,911.5C 2424.43,913.027 2425.09,914.027 2426.5,914.5C 2427.89,915.899 2428.89,917.566 2429.5,919.5C 2429.43,921.027 2430.09,922.027 2431.5,922.5C 2432.34,922.842 2432.67,923.508 2432.5,924.5C 2432.43,926.027 2433.09,927.027 2434.5,927.5C 2434.43,929.027 2435.09,930.027 2436.5,930.5C 2437.34,930.842 2437.67,931.508 2437.5,932.5C 2437.43,934.027 2438.09,935.027 2439.5,935.5C 2440.89,936.899 2441.89,938.566 2442.5,940.5C 2442.43,942.027 2443.09,943.027 2444.5,943.5C 2445.89,944.899 2446.89,946.566 2447.5,948.5C 2447.43,950.027 2448.09,951.027 2449.5,951.5C 2450.89,952.899 2451.89,954.566 2452.5,956.5C 2452.43,958.027 2453.09,959.027 2454.5,959.5C 2454.78,960.289 2455.28,960.956 2456,961.5C 2456.5,838.167 2456.67,714.834 2456.5,591.5C 2517.5,591.5 2578.5,591.5 2639.5,591.5C 2639.5,818.833 2639.5,1046.17 2639.5,1273.5C 2585.83,1273.83 2532.16,1273.5 2478.5,1272.5C 2394.06,1158.74 2310.06,1044.74 2226.5,930.5C 2226.22,929.711 2225.72,929.044 2225,928.5C 2224.5,1043.5 2224.33,1158.5 2224.5,1273.5C 2166.17,1273.5 2107.83,1273.5 2049.5,1273.5C 2049.5,1046.17 2049.5,818.833 2049.5,591.5C 2108.17,591.5 2166.83,591.5 2225.5,591.5 Z"/></g>
<g><path style="opacity:1" fill="#ff8589" d="M 2455.5,591.5 C 2455.83,591.5 2456.17,591.5 2456.5,591.5C 2456.67,714.834 2456.5,838.167 2456,961.5C 2455.28,960.956 2454.78,960.289 2454.5,959.5C 2455.5,837.001 2455.83,714.334 2455.5,591.5 Z"/></g>
<g><path style="opacity:1" fill="#ff9d9a" d="M 2225.5,591.5 C 2226.91,591.973 2227.57,592.973 2227.5,594.5C 2226.09,594.027 2225.43,593.027 2225.5,591.5 Z"/></g>
<g><path style="opacity:1" fill="#ff9996" d="M 2228.5,596.5 C 2229.91,596.973 2230.57,597.973 2230.5,599.5C 2229.09,599.027 2228.43,598.027 2228.5,596.5 Z"/></g>
<g><path style="opacity:1" fill="#ff9d9a" d="M 2230.5,599.5 C 2231.91,599.973 2232.57,600.973 2232.5,602.5C 2231.09,602.027 2230.43,601.027 2230.5,599.5 Z"/></g>
<g><path style="opacity:1" fill="#ff9996" d="M 2233.5,604.5 C 2234.91,604.973 2235.57,605.973 2235.5,607.5C 2234.09,607.027 2233.43,606.027 2233.5,604.5 Z"/></g>
<g><path style="opacity:1" fill="#ff9892" d="M 2862.5,610.5 C 2862.03,611.906 2861.03,612.573 2859.5,612.5C 2859.97,611.094 2860.97,610.427 2862.5,610.5 Z"/></g>
<g><path style="opacity:1" fill="#ff9996" d="M 2238.5,612.5 C 2239.91,612.973 2240.57,613.973 2240.5,615.5C 2239.09,615.027 2238.43,614.027 2238.5,612.5 Z"/></g>
<g><path style="opacity:1" fill="#ff8985" d="M 2855.5,614.5 C 2855.03,615.906 2854.03,616.573 2852.5,616.5C 2852.97,615.094 2853.97,614.427 2855.5,614.5 Z"/></g>
<g><path style="opacity:1" fill="#ff8985" d="M 2850.5,617.5 C 2850.03,618.906 2849.03,619.573 2847.5,619.5C 2847.97,618.094 2848.97,617.427 2850.5,617.5 Z"/></g>
<g><path style="opacity:1" fill="#ff928d" d="M 2845.5,620.5 C 2845.03,621.906 2844.03,622.573 2842.5,622.5C 2842.97,621.094 2843.97,620.427 2845.5,620.5 Z"/></g>
<g><path style="opacity:1" fill="#ff9996" d="M 2243.5,620.5 C 2244.91,620.973 2245.57,621.973 2245.5,623.5C 2244.09,623.027 2243.43,622.027 2243.5,620.5 Z"/></g>
<g><path style="opacity:1" fill="#ff8985" d="M 2842.5,622.5 C 2842.03,623.906 2841.03,624.573 2839.5,624.5C 2839.97,623.094 2840.97,622.427 2842.5,622.5 Z"/></g>
<g><path style="opacity:1" fill="#ff8985" d="M 2839.5,624.5 C 2839.03,625.906 2838.03,626.573 2836.5,626.5C 2836.97,625.094 2837.97,624.427 2839.5,624.5 Z"/></g>
<g><path style="opacity:1" fill="#ff9996" d="M 2246.5,625.5 C 2247.91,625.973 2248.57,626.973 2248.5,628.5C 2247.09,628.027 2246.43,627.027 2246.5,625.5 Z"/></g>
<g><path style="opacity:1" fill="#ff8985" d="M 2836.5,626.5 C 2836.03,627.906 2835.03,628.573 2833.5,628.5C 2833.97,627.094 2834.97,626.427 2836.5,626.5 Z"/></g>
<g><path style="opacity:1" fill="#ff928d" d="M 2833.5,628.5 C 2833.03,629.906 2832.03,630.573 2830.5,630.5C 2830.97,629.094 2831.97,628.427 2833.5,628.5 Z"/></g>
<g><path style="opacity:1" fill="#ff9996" d="M 2248.5,628.5 C 2249.91,628.973 2250.57,629.973 2250.5,631.5C 2249.09,631.027 2248.43,630.027 2248.5,628.5 Z"/></g>
<g><path style="opacity:1" fill="#ff928d" d="M 2830.5,630.5 C 2830.03,631.906 2829.03,632.573 2827.5,632.5C 2827.97,631.094 2828.97,630.427 2830.5,630.5 Z"/></g>
<g><path style="opacity:1" fill="#ff8985" d="M 2826.5,633.5 C 2826.03,634.906 2825.03,635.573 2823.5,635.5C 2823.97,634.094 2824.97,633.427 2826.5,633.5 Z"/></g>
<g><path style="opacity:1" fill="#ff9996" d="M 2251.5,633.5 C 2252.91,633.973 2253.57,634.973 2253.5,636.5C 2252.09,636.027 2251.43,635.027 2251.5,633.5 Z"/></g>
<g><path style="opacity:1" fill="#ff9d9a" d="M 2253.5,636.5 C 2254.91,636.973 2255.57,637.973 2255.5,639.5C 2254.09,639.027 2253.43,638.027 2253.5,636.5 Z"/></g>
<g><path style="opacity:1" fill="#ff8f8a" d="M 2818.5,639.5 C 2817.74,641.262 2816.4,642.262 2814.5,642.5C 2815.26,640.738 2816.6,639.738 2818.5,639.5 Z"/></g>
<g><path style="opacity:1" fill="#ff9996" d="M 2256.5,641.5 C 2257.91,641.973 2258.57,642.973 2258.5,644.5C 2257.09,644.027 2256.43,643.027 2256.5,641.5 Z"/></g>
<g><path style="opacity:1" fill="#ff8b84" d="M 2812.5,644.5 C 2811.42,646.587 2809.75,647.92 2807.5,648.5C 2808.58,646.413 2810.25,645.08 2812.5,644.5 Z"/></g>
<g><path style="opacity:1" fill="#fec2c2" d="M 3235.5,649.5 C 3237.03,649.427 3238.03,650.094 3238.5,651.5C 3236.97,651.573 3235.97,650.906 3235.5,649.5 Z"/></g>
<g><path style="opacity:1" fill="#ff9996" d="M 2261.5,649.5 C 2262.91,649.973 2263.57,650.973 2263.5,652.5C 2262.09,652.027 2261.43,651.027 2261.5,649.5 Z"/></g>
<g><path style="opacity:1" fill="#ff9996" d="M 2266.5,657.5 C 2267.91,657.973 2268.57,658.973 2268.5,660.5C 2267.09,660.027 2266.43,659.027 2266.5,657.5 Z"/></g>
<g><path style="opacity:1" fill="#ff9189" d="M 2794.5,661.5 C 2794.5,663.5 2793.5,664.5 2791.5,664.5C 2792.17,663.167 2793.17,662.167 2794.5,661.5 Z"/></g>
<g><path style="opacity:1" fill="#ff9996" d="M 2271.5,665.5 C 2272.91,665.973 2273.57,666.973 2273.5,668.5C 2272.09,668.027 2271.43,667.027 2271.5,665.5 Z"/></g>
<g><path style="opacity:1" fill="#ff9996" d="M 2274.5,670.5 C 2275.91,670.973 2276.57,671.973 2276.5,673.5C 2275.09,673.027 2274.43,672.027 2274.5,670.5 Z"/></g>
<g><path style="opacity:1" fill="#ff9996" d="M 2276.5,673.5 C 2277.91,673.973 2278.57,674.973 2278.5,676.5C 2277.09,676.027 2276.43,675.027 2276.5,673.5 Z"/></g>
<g><path style="opacity:1" fill="#ff9996" d="M 2782.5,676.5 C 2782.57,678.027 2781.91,679.027 2780.5,679.5C 2780.43,677.973 2781.09,676.973 2782.5,676.5 Z"/></g>
<g><path style="opacity:1" fill="#ff9996" d="M 2279.5,678.5 C 2280.91,678.973 2281.57,679.973 2281.5,681.5C 2280.09,681.027 2279.43,680.027 2279.5,678.5 Z"/></g>
<g><path style="opacity:1" fill="#ff9d9a" d="M 3264.5,680.5 C 3265.91,680.973 3266.57,681.973 3266.5,683.5C 3265.09,683.027 3264.43,682.027 3264.5,680.5 Z"/></g>
<g><path style="opacity:1" fill="#ff9d9a" d="M 2281.5,681.5 C 2282.91,681.973 2283.57,682.973 2283.5,684.5C 2282.09,684.027 2281.43,683.027 2281.5,681.5 Z"/></g>
<g><path style="opacity:1" fill="#ff9d9a" d="M 3267.5,684.5 C 3268.91,684.973 3269.57,685.973 3269.5,687.5C 3268.09,687.027 3267.43,686.027 3267.5,684.5 Z"/></g>
<g><path style="opacity:1" fill="#ff9996" d="M 2284.5,686.5 C 2285.91,686.973 2286.57,687.973 2286.5,689.5C 2285.09,689.027 2284.43,688.027 2284.5,686.5 Z"/></g>
<g><path style="opacity:1" fill="#ff9996" d="M 2774.5,688.5 C 2774.57,690.027 2773.91,691.027 2772.5,691.5C 2772.43,689.973 2773.09,688.973 2774.5,688.5 Z"/></g>
<g><path style="opacity:1" fill="#ff9d9a" d="M 3272.5,691.5 C 3273.91,691.973 3274.57,692.973 3274.5,694.5C 3273.09,694.027 3272.43,693.027 3272.5,691.5 Z"/></g>
<g><path style="opacity:1" fill="#ff9996" d="M 2289.5,694.5 C 2290.91,694.973 2291.57,695.973 2291.5,697.5C 2290.09,697.027 2289.43,696.027 2289.5,694.5 Z"/></g>
<g><path style="opacity:1" fill="#ff9d9a" d="M 3274.5,694.5 C 3275.91,694.973 3276.57,695.973 3276.5,697.5C 3275.09,697.027 3274.43,696.027 3274.5,694.5 Z"/></g>
<g><path style="opacity:1" fill="#ff9996" d="M 2770.5,695.5 C 2770.57,697.027 2769.91,698.027 2768.5,698.5C 2768.43,696.973 2769.09,695.973 2770.5,695.5 Z"/></g>
<g><path style="opacity:1" fill="#ff9d9a" d="M 3276.5,697.5 C 3277.91,697.973 3278.57,698.973 3278.5,700.5C 3277.09,700.027 3276.43,699.027 3276.5,697.5 Z"/></g>
<g><path style="opacity:1" fill="#ff9996" d="M 2294.5,702.5 C 2295.91,702.973 2296.57,703.973 2296.5,705.5C 2295.09,705.027 2294.43,704.027 2294.5,702.5 Z"/></g>
<g><path style="opacity:1" fill="#ff9996" d="M 3279.5,702.5 C 3280.91,702.973 3281.57,703.973 3281.5,705.5C 3280.09,705.027 3279.43,704.027 3279.5,702.5 Z"/></g>
<g><path style="opacity:1" fill="#ff9996" d="M 3282.5,707.5 C 3283.91,707.973 3284.57,708.973 3284.5,710.5C 3283.09,710.027 3282.43,709.027 3282.5,707.5 Z"/></g>
<g><path style="opacity:1" fill="#ff9996" d="M 2299.5,710.5 C 2300.91,710.973 2301.57,711.973 2301.5,713.5C 2300.09,713.027 2299.43,712.027 2299.5,710.5 Z"/></g>
<g><path style="opacity:1" fill="#ff9996" d="M 2302.5,715.5 C 2303.91,715.973 2304.57,716.973 2304.5,718.5C 2303.09,718.027 2302.43,717.027 2302.5,715.5 Z"/></g>
<g><path style="opacity:1" fill="#ff9d9a" d="M 2304.5,718.5 C 2305.91,718.973 2306.57,719.973 2306.5,721.5C 2305.09,721.027 2304.43,720.027 2304.5,718.5 Z"/></g>
<g><path style="opacity:1" fill="#ff9996" d="M 2307.5,723.5 C 2308.91,723.973 2309.57,724.973 2309.5,726.5C 2308.09,726.027 2307.43,725.027 2307.5,723.5 Z"/></g>
<g><path style="opacity:1" fill="#ff9d9a" d="M 2309.5,726.5 C 2310.91,726.973 2311.57,727.973 2311.5,729.5C 2310.09,729.027 2309.43,728.027 2309.5,726.5 Z"/></g>
<g><path style="opacity:1" fill="#ff9996" d="M 2312.5,731.5 C 2313.91,731.973 2314.57,732.973 2314.5,734.5C 2313.09,734.027 2312.43,733.027 2312.5,731.5 Z"/></g>
<g><path style="opacity:1" fill="#fcd1d0" d="M 2941.5,735.5 C 2941.17,736.5 2940.5,737.167 2939.5,737.5C 2939.5,736.167 2940.17,735.5 2941.5,735.5 Z"/></g>
<g><path style="opacity:1" fill="#ff9996" d="M 2317.5,739.5 C 2318.91,739.973 2319.57,740.973 2319.5,742.5C 2318.09,742.027 2317.43,741.027 2317.5,739.5 Z"/></g>
<g><path style="opacity:1" fill="#ff9996" d="M 2322.5,747.5 C 2323.91,747.973 2324.57,748.973 2324.5,750.5C 2323.09,750.027 2322.43,749.027 2322.5,747.5 Z"/></g>
<g><path style="opacity:1" fill="#ff9996" d="M 2325.5,752.5 C 2326.91,752.973 2327.57,753.973 2327.5,755.5C 2326.09,755.027 2325.43,754.027 2325.5,752.5 Z"/></g>
<g><path style="opacity:1" fill="#ff9996" d="M 2327.5,755.5 C 2328.91,755.973 2329.57,756.973 2329.5,758.5C 2328.09,758.027 2327.43,757.027 2327.5,755.5 Z"/></g>
<g><path style="opacity:1" fill="#ff9996" d="M 2330.5,760.5 C 2331.91,760.973 2332.57,761.973 2332.5,763.5C 2331.09,763.027 2330.43,762.027 2330.5,760.5 Z"/></g>
<g><path style="opacity:1" fill="#ff9d9a" d="M 2332.5,763.5 C 2333.91,763.973 2334.57,764.973 2334.5,766.5C 2333.09,766.027 2332.43,765.027 2332.5,763.5 Z"/></g>
<g><path style="opacity:1" fill="#ff9996" d="M 2335.5,768.5 C 2336.91,768.973 2337.57,769.973 2337.5,771.5C 2336.09,771.027 2335.43,770.027 2335.5,768.5 Z"/></g>
<g><path style="opacity:1" fill="#ff9996" d="M 2340.5,776.5 C 2341.91,776.973 2342.57,777.973 2342.5,779.5C 2341.09,779.027 2340.43,778.027 2340.5,776.5 Z"/></g>
<g><path style="opacity:1" fill="#ff9996" d="M 2345.5,784.5 C 2346.91,784.973 2347.57,785.973 2347.5,787.5C 2346.09,787.027 2345.43,786.027 2345.5,784.5 Z"/></g>
<g><path style="opacity:1" fill="#ff9996" d="M 2350.5,792.5 C 2351.91,792.973 2352.57,793.973 2352.5,795.5C 2351.09,795.027 2350.43,794.027 2350.5,792.5 Z"/></g>
<g><path style="opacity:1" fill="#ffb8b8" d="M 2939.5,795.5 C 2940.5,795.833 2941.17,796.5 2941.5,797.5C 2940.17,797.5 2939.5,796.833 2939.5,795.5 Z"/></g>
<g><path style="opacity:1" fill="#ffb8b8" d="M 2941.5,797.5 C 2942.5,797.833 2943.17,798.5 2943.5,799.5C 2942.17,799.5 2941.5,798.833 2941.5,797.5 Z"/></g>
<g><path style="opacity:1" fill="#ff9996" d="M 2353.5,797.5 C 2354.91,797.973 2355.57,798.973 2355.5,800.5C 2354.09,800.027 2353.43,799.027 2353.5,797.5 Z"/></g>
<g><path style="opacity:1" fill="#ffb8b8" d="M 2943.5,799.5 C 2944.5,799.833 2945.17,800.5 2945.5,801.5C 2944.17,801.5 2943.5,800.833 2943.5,799.5 Z"/></g>
<g><path style="opacity:1" fill="#ff9d9a" d="M 2355.5,800.5 C 2356.91,800.973 2357.57,801.973 2357.5,803.5C 2356.09,803.027 2355.43,802.027 2355.5,800.5 Z"/></g>
<g><path style="opacity:1" fill="#ff9996" d="M 2358.5,805.5 C 2359.91,805.973 2360.57,806.973 2360.5,808.5C 2359.09,808.027 2358.43,807.027 2358.5,805.5 Z"/></g>
<g><path style="opacity:1" fill="#ff9d9a" d="M 2360.5,808.5 C 2361.91,808.973 2362.57,809.973 2362.5,811.5C 2361.09,811.027 2360.43,810.027 2360.5,808.5 Z"/></g>
<g><path style="opacity:1" fill="#ff9996" d="M 2363.5,813.5 C 2364.91,813.973 2365.57,814.973 2365.5,816.5C 2364.09,816.027 2363.43,815.027 2363.5,813.5 Z"/></g>
<g><path style="opacity:1" fill="#ff9996" d="M 2368.5,821.5 C 2369.91,821.973 2370.57,822.973 2370.5,824.5C 2369.09,824.027 2368.43,823.027 2368.5,821.5 Z"/></g>
<g><path style="opacity:1" fill="#ff9996" d="M 2373.5,829.5 C 2374.91,829.973 2375.57,830.973 2375.5,832.5C 2374.09,832.027 2373.43,831.027 2373.5,829.5 Z"/></g>
<g><path style="opacity:1" fill="#ff9d9a" d="M 2378.5,837.5 C 2379.91,837.973 2380.57,838.973 2380.5,840.5C 2379.09,840.027 2378.43,839.027 2378.5,837.5 Z"/></g>
<g><path style="opacity:1" fill="#ff9996" d="M 2381.5,842.5 C 2382.91,842.973 2383.57,843.973 2383.5,845.5C 2382.09,845.027 2381.43,844.027 2381.5,842.5 Z"/></g>
<g><path style="opacity:1" fill="#ff9d9a" d="M 2383.5,845.5 C 2384.91,845.973 2385.57,846.973 2385.5,848.5C 2384.09,848.027 2383.43,847.027 2383.5,845.5 Z"/></g>
<g><path style="opacity:1" fill="#ff9996" d="M 2386.5,850.5 C 2387.91,850.973 2388.57,851.973 2388.5,853.5C 2387.09,853.027 2386.43,852.027 2386.5,850.5 Z"/></g>
<g><path style="opacity:1" fill="#ff9791" d="M 3112.5,857.5 C 3114.79,857.595 3116.79,858.262 3118.5,859.5C 3116.1,859.741 3114.1,859.074 3112.5,857.5 Z"/></g>
<g><path style="opacity:1" fill="#ff9996" d="M 2391.5,858.5 C 2392.91,858.973 2393.57,859.973 2393.5,861.5C 2392.09,861.027 2391.43,860.027 2391.5,858.5 Z"/></g>
<g><path style="opacity:1" fill="#ff9996" d="M 2396.5,866.5 C 2397.91,866.973 2398.57,867.973 2398.5,869.5C 2397.09,869.027 2396.43,868.027 2396.5,866.5 Z"/></g>
<g><path style="opacity:1" fill="#ff9996" d="M 2401.5,874.5 C 2402.91,874.973 2403.57,875.973 2403.5,877.5C 2402.09,877.027 2401.43,876.027 2401.5,874.5 Z"/></g>
<g><path style="opacity:1" fill="#ff9996" d="M 2404.5,879.5 C 2405.91,879.973 2406.57,880.973 2406.5,882.5C 2405.09,882.027 2404.43,881.027 2404.5,879.5 Z"/></g>
<g><path style="opacity:1" fill="#ff9d9a" d="M 2406.5,882.5 C 2407.91,882.973 2408.57,883.973 2408.5,885.5C 2407.09,885.027 2406.43,884.027 2406.5,882.5 Z"/></g>
<g><path style="opacity:1" fill="#ff9996" d="M 2409.5,887.5 C 2410.91,887.973 2411.57,888.973 2411.5,890.5C 2410.09,890.027 2409.43,889.027 2409.5,887.5 Z"/></g>
<g><path style="opacity:1" fill="#ff9d9a" d="M 2411.5,890.5 C 2412.91,890.973 2413.57,891.973 2413.5,893.5C 2412.09,893.027 2411.43,892.027 2411.5,890.5 Z"/></g>
<g><path style="opacity:1" fill="#ff9996" d="M 2414.5,895.5 C 2415.91,895.973 2416.57,896.973 2416.5,898.5C 2415.09,898.027 2414.43,897.027 2414.5,895.5 Z"/></g>
<g><path style="opacity:1" fill="#ff9996" d="M 2419.5,903.5 C 2420.91,903.973 2421.57,904.973 2421.5,906.5C 2420.09,906.027 2419.43,905.027 2419.5,903.5 Z"/></g>
<g><path style="opacity:1" fill="#ff9996" d="M 2424.5,911.5 C 2425.91,911.973 2426.57,912.973 2426.5,914.5C 2425.09,914.027 2424.43,913.027 2424.5,911.5 Z"/></g>
<g><path style="opacity:1" fill="#ff9996" d="M 2429.5,919.5 C 2430.91,919.973 2431.57,920.973 2431.5,922.5C 2430.09,922.027 2429.43,921.027 2429.5,919.5 Z"/></g>
<g><path style="opacity:1" fill="#ff9d9a" d="M 2819.5,921.5 C 2821.03,921.427 2822.03,922.094 2822.5,923.5C 2820.97,923.573 2819.97,922.906 2819.5,921.5 Z"/></g>
<g><path style="opacity:1" fill="#ff9996" d="M 2822.5,923.5 C 2824.03,923.427 2825.03,924.094 2825.5,925.5C 2823.97,925.573 2822.97,924.906 2822.5,923.5 Z"/></g>
<g><path style="opacity:1" fill="#ff9996" d="M 2432.5,924.5 C 2433.91,924.973 2434.57,925.973 2434.5,927.5C 2433.09,927.027 2432.43,926.027 2432.5,924.5 Z"/></g>
<g><path style="opacity:1" fill="#ff9996" d="M 2825.5,925.5 C 2827.03,925.427 2828.03,926.094 2828.5,927.5C 2826.97,927.573 2825.97,926.906 2825.5,925.5 Z"/></g>
<g><path style="opacity:1" fill="#ff4b50" d="M 2226.5,930.5 C 2225.83,1044.83 2225.17,1159.17 2224.5,1273.5C 2224.33,1158.5 2224.5,1043.5 2225,928.5C 2225.72,929.044 2226.22,929.711 2226.5,930.5 Z"/></g>
<g><path style="opacity:1" fill="#ff9d9a" d="M 2434.5,927.5 C 2435.91,927.973 2436.57,928.973 2436.5,930.5C 2435.09,930.027 2434.43,929.027 2434.5,927.5 Z"/></g>
<g><path style="opacity:1" fill="#ff9996" d="M 2830.5,928.5 C 2832.03,928.427 2833.03,929.094 2833.5,930.5C 2831.97,930.573 2830.97,929.906 2830.5,928.5 Z"/></g>
<g><path style="opacity:1" fill="#ff9996" d="M 2835.5,931.5 C 2837.03,931.427 2838.03,932.094 2838.5,933.5C 2836.97,933.573 2835.97,932.906 2835.5,931.5 Z"/></g>
<g><path style="opacity:1" fill="#ff9996" d="M 2437.5,932.5 C 2438.91,932.973 2439.57,933.973 2439.5,935.5C 2438.09,935.027 2437.43,934.027 2437.5,932.5 Z"/></g>
<g><path style="opacity:1" fill="#ff9d9a" d="M 3272.5,937.5 C 3273.91,937.973 3274.57,938.973 3274.5,940.5C 3273.09,940.027 3272.43,939.027 3272.5,937.5 Z"/></g>
<g><path style="opacity:1" fill="#ff9996" d="M 2442.5,940.5 C 2443.91,940.973 2444.57,941.973 2444.5,943.5C 2443.09,943.027 2442.43,942.027 2442.5,940.5 Z"/></g>
<g><path style="opacity:1" fill="#ff9d9a" d="M 3275.5,941.5 C 3276.91,941.973 3277.57,942.973 3277.5,944.5C 3276.09,944.027 3275.43,943.027 3275.5,941.5 Z"/></g>
<g><path style="opacity:1" fill="#ff9d9a" d="M 3278.5,945.5 C 3279.91,945.973 3280.57,946.973 3280.5,948.5C 3279.09,948.027 3278.43,947.027 3278.5,945.5 Z"/></g>
<g><path style="opacity:1" fill="#ff9996" d="M 2447.5,948.5 C 2448.91,948.973 2449.57,949.973 2449.5,951.5C 2448.09,951.027 2447.43,950.027 2447.5,948.5 Z"/></g>
<g><path style="opacity:1" fill="#ff9d9a" d="M 3280.5,948.5 C 3281.91,948.973 3282.57,949.973 3282.5,951.5C 3281.09,951.027 3280.43,950.027 3280.5,948.5 Z"/></g>
<g><path style="opacity:1" fill="#ff9d9a" d="M 3282.5,951.5 C 3283.91,951.973 3284.57,952.973 3284.5,954.5C 3283.09,954.027 3282.43,953.027 3282.5,951.5 Z"/></g>
<g><path style="opacity:1" fill="#ff9996" d="M 2452.5,956.5 C 2453.91,956.973 2454.57,957.973 2454.5,959.5C 2453.09,959.027 2452.43,958.027 2452.5,956.5 Z"/></g>
<g><path style="opacity:1" fill="#ff9996" d="M 3288.5,961.5 C 3289.91,961.973 3290.57,962.973 3290.5,964.5C 3289.09,964.027 3288.43,963.027 3288.5,961.5 Z"/></g>
<g><path style="opacity:1" fill="#f9c3c3" d="M 986.5,966.5 C 987.167,966.833 987.833,967.167 988.5,967.5C 987.699,969.793 987.032,969.46 986.5,966.5 Z"/></g>
<g><path style="opacity:1" fill="#ff9996" d="M 3112.5,1022.5 C 3114.03,1022.43 3115.03,1023.09 3115.5,1024.5C 3113.97,1024.57 3112.97,1023.91 3112.5,1022.5 Z"/></g>
<g><path style="opacity:1" fill="#ff9d9a" d="M 3117.5,1025.5 C 3119.03,1025.43 3120.03,1026.09 3120.5,1027.5C 3118.97,1027.57 3117.97,1026.91 3117.5,1025.5 Z"/></g>
<g><path style="opacity:1" fill="#ff9d9a" d="M 3120.5,1027.5 C 3122.03,1027.43 3123.03,1028.09 3123.5,1029.5C 3121.97,1029.57 3120.97,1028.91 3120.5,1027.5 Z"/></g>
<g><path style="opacity:1" fill="#f5dbdb" d="M 2455.5,591.5 C 2517,590.501 2578.66,590.168 2640.5,590.5C 2640.83,818.334 2640.5,1046 2639.5,1273.5C 2639.5,1046.17 2639.5,818.833 2639.5,591.5C 2578.5,591.5 2517.5,591.5 2456.5,591.5C 2456.17,591.5 2455.83,591.5 2455.5,591.5 Z"/></g>
<g><path style="opacity:1" fill="#f2c4c5" d="M 1541.5,1040.5 C 1565.82,1041.83 1590.49,1042.5 1615.5,1042.5C 1640.51,1042.5 1665.18,1041.83 1689.5,1040.5C 1690.4,1041.21 1690.74,1042.21 1690.5,1043.5C 1640.5,1043.5 1590.5,1043.5 1540.5,1043.5C 1540.26,1042.21 1540.6,1041.21 1541.5,1040.5 Z"/></g>
<g><path style="opacity:1" fill="#f2c4c5" d="M 2896.5,1056.5 C 2838.83,1056.5 2781.17,1056.5 2723.5,1056.5C 2723.5,1060.17 2723.5,1063.83 2723.5,1067.5C 2722.52,1063.7 2722.18,1059.7 2722.5,1055.5C 2780.67,1055.17 2838.67,1055.5 2896.5,1056.5 Z"/></g>
<g><path style="opacity:1" fill="#ff9996" d="M 2911.5,1092.5 C 2912.91,1092.97 2913.57,1093.97 2913.5,1095.5C 2912.09,1095.03 2911.43,1094.03 2911.5,1092.5 Z"/></g>
<g><path style="opacity:1" fill="#ff9d9a" d="M 2914.5,1096.5 C 2915.91,1096.97 2916.57,1097.97 2916.5,1099.5C 2915.09,1099.03 2914.43,1098.03 2914.5,1096.5 Z"/></g>
<g><path style="opacity:1" fill="#ff9996" d="M 3142.5,1099.5 C 3142.57,1101.03 3141.91,1102.03 3140.5,1102.5C 3140.43,1100.97 3141.09,1099.97 3142.5,1099.5 Z"/></g>
<g><path style="opacity:1" fill="#ff9996" d="M 3139.5,1104.5 C 3139.57,1106.03 3138.91,1107.03 3137.5,1107.5C 3137.43,1105.97 3138.09,1104.97 3139.5,1104.5 Z"/></g>
<g><path style="opacity:1" fill="#ff8881" d="M 3135.5,1109.5 C 3133.83,1113.17 3131.17,1115.83 3127.5,1117.5C 3129.83,1114.5 3132.5,1111.83 3135.5,1109.5 Z"/></g>
<g><path style="opacity:1" fill="#ff928d" d="M 3126.5,1118.5 C 3126.03,1119.91 3125.03,1120.57 3123.5,1120.5C 3123.97,1119.09 3124.97,1118.43 3126.5,1118.5 Z"/></g>
<g><path style="opacity:1" fill="#f2c3c4" d="M 1744.5,1167.5 C 1657.76,1167.17 1571.1,1167.5 1484.5,1168.5C 1527.49,1167.17 1570.83,1166.5 1614.5,1166.5C 1658,1166.5 1701.33,1166.83 1744.5,1167.5 Z"/></g>
<g><path style="opacity:1" fill="#fe5345" d="M 3328.5,1201.5 C 3355.67,1199.57 3371,1212.07 3374.5,1239C 3370.42,1265.41 3355.08,1277.08 3328.5,1274C 3310.39,1268.88 3300.72,1256.88 3299.5,1238C 3300.98,1219.15 3310.65,1206.98 3328.5,1201.5 Z M 3331.5,1206.5 C 3349.93,1205.12 3362.09,1213.12 3368,1230.5C 3369.8,1253.28 3359.46,1266.28 3337,1269.5C 3315.16,1266.81 3304.82,1254.48 3306,1232.5C 3309.35,1218.65 3317.85,1209.99 3331.5,1206.5 Z M 3345.5,1231.5 C 3344.51,1232.8 3343.51,1234.13 3342.5,1235.5C 3338.9,1236.34 3335.23,1236.68 3331.5,1236.5C 3331.5,1232.83 3331.5,1229.17 3331.5,1225.5C 3335.18,1225.33 3338.85,1225.5 3342.5,1226C 3344.61,1227.26 3345.61,1229.1 3345.5,1231.5 Z"/></g>
<g><path style="opacity:1" fill="#ff9d9a" d="M 2793.5,1207.5 C 2795.03,1207.43 2796.03,1208.09 2796.5,1209.5C 2794.97,1209.57 2793.97,1208.91 2793.5,1207.5 Z"/></g>
<g><path style="opacity:1" fill="#fb342c" d="M 3347.5,1242.5 C 3346.28,1243.78 3346.62,1244.78 3348.5,1245.5C 3348.43,1247.03 3349.09,1248.03 3350.5,1248.5C 3350.43,1250.03 3351.09,1251.03 3352.5,1251.5C 3352.43,1253.03 3353.09,1254.03 3354.5,1254.5C 3355.04,1254.56 3355.38,1254.89 3355.5,1255.5C 3351.88,1256.66 3348.21,1256.83 3344.5,1256C 3341.91,1252.26 3339.58,1248.43 3337.5,1244.5C 3335.39,1243.53 3333.06,1243.2 3330.5,1243.5C 3330.5,1247.83 3330.5,1252.17 3330.5,1256.5C 3327.5,1256.5 3324.5,1256.5 3321.5,1256.5C 3321.5,1243.5 3321.5,1230.5 3321.5,1217.5C 3330.61,1217.06 3339.61,1217.56 3348.5,1219C 3358.12,1227.48 3357.78,1235.32 3347.5,1242.5 Z M 3345.5,1231.5 C 3344.51,1232.8 3343.51,1234.13 3342.5,1235.5C 3338.9,1236.34 3335.23,1236.68 3331.5,1236.5C 3331.5,1232.83 3331.5,1229.17 3331.5,1225.5C 3335.18,1225.33 3338.85,1225.5 3342.5,1226C 3344.61,1227.26 3345.61,1229.1 3345.5,1231.5 Z"/></g>
<g><path style="opacity:1" fill="#ff9d9a" d="M 2810.5,1221.5 C 2812.03,1221.43 2813.03,1222.09 2813.5,1223.5C 2811.97,1223.57 2810.97,1222.91 2810.5,1221.5 Z"/></g>
<g><path style="opacity:1" fill="#ff9d9a" d="M 2817.5,1226.5 C 2819.03,1226.43 2820.03,1227.09 2820.5,1228.5C 2818.97,1228.57 2817.97,1227.91 2817.5,1226.5 Z"/></g>
<g><path style="opacity:1" fill="#ff9996" d="M 2820.5,1228.5 C 2822.03,1228.43 2823.03,1229.09 2823.5,1230.5C 2821.97,1230.57 2820.97,1229.91 2820.5,1228.5 Z"/></g>
<g><path style="opacity:1" fill="#ff9996" d="M 2823.5,1230.5 C 2825.03,1230.43 2826.03,1231.09 2826.5,1232.5C 2824.97,1232.57 2823.97,1231.91 2823.5,1230.5 Z"/></g>
<g><path style="opacity:1" fill="#ff9996" d="M 2826.5,1232.5 C 2828.03,1232.43 2829.03,1233.09 2829.5,1234.5C 2827.97,1234.57 2826.97,1233.91 2826.5,1232.5 Z"/></g>
<g><path style="opacity:1" fill="#ff9a94" d="M 3345.5,1231.5 C 3345.91,1233.97 3344.91,1235.31 3342.5,1235.5C 3343.51,1234.13 3344.51,1232.8 3345.5,1231.5 Z"/></g>
<g><path style="opacity:1" fill="#ff9996" d="M 2836.5,1238.5 C 2838.03,1238.43 2839.03,1239.09 2839.5,1240.5C 2837.97,1240.57 2836.97,1239.91 2836.5,1238.5 Z"/></g>
<g><path style="opacity:1" fill="#ff9996" d="M 2843.5,1242.5 C 2845.03,1242.43 2846.03,1243.09 2846.5,1244.5C 2844.97,1244.57 2843.97,1243.91 2843.5,1242.5 Z"/></g>
<g><path style="opacity:1" fill="#fbd3d3" d="M 3337.5,1244.5 C 3335.5,1244.5 3333.5,1244.5 3331.5,1244.5C 3331.82,1248.7 3331.48,1252.7 3330.5,1256.5C 3330.5,1252.17 3330.5,1247.83 3330.5,1243.5C 3333.06,1243.2 3335.39,1243.53 3337.5,1244.5 Z"/></g>
<g><path style="opacity:1" fill="#ff9996" d="M 3347.5,1242.5 C 3348.11,1243.39 3348.44,1244.39 3348.5,1245.5C 3346.62,1244.78 3346.28,1243.78 3347.5,1242.5 Z"/></g>
<g><path style="opacity:1" fill="#ff9d9a" d="M 3348.5,1245.5 C 3349.91,1245.97 3350.57,1246.97 3350.5,1248.5C 3349.09,1248.03 3348.43,1247.03 3348.5,1245.5 Z"/></g>
<g><path style="opacity:1" fill="#ff9d9a" d="M 3350.5,1248.5 C 3351.91,1248.97 3352.57,1249.97 3352.5,1251.5C 3351.09,1251.03 3350.43,1250.03 3350.5,1248.5 Z"/></g>
<g><path style="opacity:1" fill="#ff9d9a" d="M 3352.5,1251.5 C 3353.91,1251.97 3354.57,1252.97 3354.5,1254.5C 3353.09,1254.03 3352.43,1253.03 3352.5,1251.5 Z"/></g>
<g><path style="opacity:1" fill="#ff948d" d="M 1973.5,1269.5 C 1974.25,1270.53 1974.92,1271.7 1975.5,1273C 1974.91,1273.46 1974.24,1273.63 1973.5,1273.5C 1973.5,1272.17 1973.5,1270.83 1973.5,1269.5 Z"/></g>
<g><path style="opacity:1" fill="#040404" d="M 529.5,1586.5 C 529.738,1588.4 530.738,1589.74 532.5,1590.5C 533.5,1590.83 534.167,1591.5 534.5,1592.5C 534.738,1594.4 535.738,1595.74 537.5,1596.5C 538.167,1596.5 538.5,1596.83 538.5,1597.5C 538.427,1599.03 539.094,1600.03 540.5,1600.5C 541.974,1601.44 542.974,1602.77 543.5,1604.5C 543.427,1606.03 544.094,1607.03 545.5,1607.5C 566.209,1640.2 573.709,1675.87 568,1714.5C 554.661,1780.18 515.827,1822.68 451.5,1842C 403.363,1854.11 357.696,1848.11 314.5,1824C 310.92,1821.72 307.586,1819.22 304.5,1816.5C 304.027,1815.09 303.027,1814.43 301.5,1814.5C 300.833,1814.5 300.5,1814.17 300.5,1813.5C 299.738,1811.74 298.404,1810.74 296.5,1810.5C 295.5,1810.17 294.833,1809.5 294.5,1808.5C 294.027,1807.09 293.027,1806.43 291.5,1806.5C 253.862,1771.51 237.028,1728.18 241,1676.5C 243.148,1651.21 251.315,1628.21 265.5,1607.5C 266.906,1607.03 267.573,1606.03 267.5,1604.5C 268.906,1604.03 269.573,1603.03 269.5,1601.5C 269.5,1600.83 269.833,1600.5 270.5,1600.5C 271.906,1600.03 272.573,1599.03 272.5,1597.5C 275.486,1593.18 278.82,1589.18 282.5,1585.5C 286.436,1583.23 289.769,1580.23 292.5,1576.5C 296.091,1572.7 300.091,1569.37 304.5,1566.5C 306.027,1566.57 307.027,1565.91 307.5,1564.5C 331.622,1547.29 358.622,1537.45 388.5,1535C 437.463,1530.66 480.796,1543.99 518.5,1575C 522.37,1578.7 526.037,1582.54 529.5,1586.5 Z M 445.5,1621.5 C 445.973,1622.91 446.973,1623.57 448.5,1623.5C 448.973,1624.91 449.973,1625.57 451.5,1625.5C 451.5,1626.17 451.833,1626.5 452.5,1626.5C 453.262,1628.26 454.596,1629.26 456.5,1629.5C 483.277,1657.55 489.777,1689.88 476,1726.5C 473.155,1731.53 470.321,1736.53 467.5,1741.5C 465.738,1742.26 464.738,1743.6 464.5,1745.5C 461.5,1747.83 458.833,1750.5 456.5,1753.5C 454.596,1753.74 453.262,1754.74 452.5,1756.5C 424.775,1774.73 396.109,1776.23 366.5,1761C 358.75,1756.09 351.75,1750.25 345.5,1743.5C 345.262,1741.6 344.262,1740.26 342.5,1739.5C 342.573,1737.97 341.906,1736.97 340.5,1736.5C 329.822,1718.61 325.989,1699.28 329,1678.5C 335.422,1640.41 357.589,1617.91 395.5,1611C 413.278,1609.32 429.945,1612.82 445.5,1621.5 Z"/></g>
<g><path style="opacity:1" fill="#f5e8e8" d="M 2910.5,1538.5 C 2924.16,1537.83 2938,1537.5 2952,1537.5C 2966.18,1537.5 2980.02,1538.17 2993.5,1539.5C 2965.91,1538.51 2938.24,1538.18 2910.5,1538.5 Z"/></g>
<g><path style="opacity:1" fill="#eadede" d="M 35.5,1539.5 C 54.6595,1538.5 73.9928,1538.17 93.5,1538.5C 93.5,1541.5 93.5,1544.5 93.5,1547.5C 92.5269,1545.05 92.1936,1542.39 92.5,1539.5C 73.5,1539.5 54.5,1539.5 35.5,1539.5 Z"/></g>
<g><path style="opacity:1" fill="#eee2e2" d="M 184.5,1546.5 C 183.532,1544.39 183.198,1542.06 183.5,1539.5C 164.137,1538.85 145.137,1539.51 126.5,1541.5C 125.596,1540.79 125.263,1539.79 125.5,1538.5C 145.167,1538.5 164.833,1538.5 184.5,1538.5C 184.5,1541.17 184.5,1543.83 184.5,1546.5 Z"/></g>
<g><path style="opacity:1" fill="#040404" d="M 2910.5,1538.5 C 2938.24,1538.18 2965.91,1538.51 2993.5,1539.5C 3036.93,1638.77 3079.6,1738.44 3121.5,1838.5C 3091.85,1840.49 3061.85,1841.16 3031.5,1840.5C 3023.94,1823.71 3016.61,1806.71 3009.5,1789.5C 2970.17,1788.17 2930.83,1788.17 2891.5,1789.5C 2884.69,1806.61 2877.69,1823.61 2870.5,1840.5C 2840.66,1840.83 2811,1840.5 2781.5,1839.5C 2823.91,1738.93 2866.91,1638.59 2910.5,1538.5 Z M 2983.5,1720.5 C 2972.85,1721.83 2961.85,1722.5 2950.5,1722.5C 2939.33,1722.5 2928.33,1722.17 2917.5,1721.5C 2928.37,1694.08 2939.54,1666.75 2951,1639.5C 2961.76,1666.64 2972.6,1693.64 2983.5,1720.5 Z"/></g>
<g><path style="opacity:1" fill="#f6e8e8" d="M 3662.5,1539.5 C 3681.66,1538.5 3700.99,1538.17 3720.5,1538.5C 3720.78,1540.41 3720.45,1542.08 3719.5,1543.5C 3719.5,1542.17 3719.5,1540.83 3719.5,1539.5C 3700.5,1539.5 3681.5,1539.5 3662.5,1539.5 Z"/></g>
<g><path style="opacity:1" fill="#eadede" d="M 3810.5,1539.5 C 3791.5,1539.5 3772.5,1539.5 3753.5,1539.5C 3753.8,1542.06 3753.47,1544.39 3752.5,1546.5C 3752.5,1543.83 3752.5,1541.17 3752.5,1538.5C 3772.01,1538.17 3791.34,1538.5 3810.5,1539.5 Z"/></g>
<g><path style="opacity:1" fill="#060505" d="M 35.5,1539.5 C 54.5,1539.5 73.5,1539.5 92.5,1539.5C 92.1936,1542.39 92.5269,1545.05 93.5,1547.5C 97.3726,1585.43 100.706,1623.43 103.5,1661.5C 84.5,1661.5 65.5,1661.5 46.5,1661.5C 46.8016,1658.94 46.4682,1656.61 45.5,1654.5C 41.5672,1616.24 38.2339,1577.91 35.5,1539.5 Z"/></g>
<g><path style="opacity:1" fill="#050505" d="M 184.5,1546.5 C 187.921,1582.13 190.921,1617.79 193.5,1653.5C 193.5,1656.17 193.5,1658.83 193.5,1661.5C 174.833,1661.5 156.167,1661.5 137.5,1661.5C 137.768,1659.9 137.434,1658.57 136.5,1657.5C 132.626,1618.89 129.293,1580.22 126.5,1541.5C 145.137,1539.51 164.137,1538.85 183.5,1539.5C 183.198,1542.06 183.532,1544.39 184.5,1546.5 Z"/></g>
<g><path style="opacity:1" fill="#494949" d="M 2544.5,1540.5 C 2556.66,1539.83 2569,1539.5 2581.5,1539.5C 2594.19,1539.5 2606.52,1540.17 2618.5,1541.5C 2593.91,1540.51 2569.24,1540.18 2544.5,1540.5 Z"/></g>
<g><path style="opacity:1" fill="#060606" d="M 3662.5,1539.5 C 3681.5,1539.5 3700.5,1539.5 3719.5,1539.5C 3719.5,1540.83 3719.5,1542.17 3719.5,1543.5C 3716.55,1582.54 3713.22,1621.54 3709.5,1660.5C 3690.58,1661.49 3671.58,1661.82 3652.5,1661.5C 3652.5,1658.83 3652.5,1656.17 3652.5,1653.5C 3655.29,1615.4 3658.62,1577.4 3662.5,1539.5 Z"/></g>
<g><path style="opacity:1" fill="#050505" d="M 3810.5,1539.5 C 3807.77,1577.91 3804.43,1616.24 3800.5,1654.5C 3799.53,1656.61 3799.2,1658.94 3799.5,1661.5C 3780.5,1661.5 3761.5,1661.5 3742.5,1661.5C 3745.23,1623.09 3748.57,1584.76 3752.5,1546.5C 3753.47,1544.39 3753.8,1542.06 3753.5,1539.5C 3772.5,1539.5 3791.5,1539.5 3810.5,1539.5 Z"/></g>
<g><path style="opacity:1" fill="#010101" d="M 2210.5,1540.5 C 2210.5,1564.17 2210.5,1587.83 2210.5,1611.5C 2156.83,1611.5 2103.17,1611.5 2049.5,1611.5C 2048.5,1626.66 2048.17,1641.99 2048.5,1657.5C 2097.5,1657.5 2146.5,1657.5 2195.5,1657.5C 2195.5,1679.17 2195.5,1700.83 2195.5,1722.5C 2146.5,1722.5 2097.5,1722.5 2048.5,1722.5C 2048.17,1738.68 2048.5,1754.68 2049.5,1770.5C 2104.17,1770.5 2158.83,1770.5 2213.5,1770.5C 2213.5,1794.17 2213.5,1817.83 2213.5,1841.5C 2130.5,1841.5 2047.5,1841.5 1964.5,1841.5C 1964.5,1741.17 1964.5,1640.83 1964.5,1540.5C 2046.5,1540.5 2128.5,1540.5 2210.5,1540.5 Z"/></g>
<g><path style="opacity:1" fill="#494949" d="M 2433.5,1542.5 C 2403.57,1541.51 2373.57,1541.17 2343.5,1541.5C 2357.59,1540.83 2372.43,1540.49 2388,1540.5C 2403.52,1540.5 2418.68,1541.17 2433.5,1542.5 Z"/></g>
<g><path style="opacity:1" fill="#040404" d="M 2544.5,1540.5 C 2569.24,1540.18 2593.91,1540.51 2618.5,1541.5C 2637.9,1598.03 2656.9,1654.69 2675.5,1711.5C 2675.37,1712.38 2675.7,1713.04 2676.5,1713.5C 2677.39,1712.68 2677.72,1711.68 2677.5,1710.5C 2694.04,1654.68 2711.04,1599.01 2728.5,1543.5C 2743.11,1542.18 2757.95,1541.52 2773,1541.5C 2787.85,1541.5 2802.35,1542.17 2816.5,1543.5C 2783.51,1643.65 2750.01,1743.65 2716,1843.5C 2691,1844.83 2666,1844.83 2641,1843.5C 2620.67,1786.5 2600.33,1729.5 2580,1672.5C 2559.92,1729.57 2539.76,1786.57 2519.5,1843.5C 2494.43,1843.82 2469.43,1843.49 2444.5,1842.5C 2410.24,1742.38 2376.57,1642.05 2343.5,1541.5C 2373.57,1541.17 2403.57,1541.51 2433.5,1542.5C 2451.26,1598.96 2468.76,1655.63 2486,1712.5C 2505.24,1654.96 2524.74,1597.62 2544.5,1540.5 Z"/></g>
<g><path style="opacity:1" fill="#4c4c4c" d="M 2816.5,1543.5 C 2802.35,1542.17 2787.85,1541.5 2773,1541.5C 2757.95,1541.52 2743.11,1542.18 2728.5,1543.5C 2728.5,1542.5 2728.5,1541.5 2728.5,1540.5C 2758.17,1540.5 2787.83,1540.5 2817.5,1540.5C 2817.74,1541.79 2817.4,1542.79 2816.5,1543.5 Z"/></g>
<g><path style="opacity:1" fill="#939191" d="M 3674.5,1768.5 C 3625.17,1768.5 3575.83,1768.5 3526.5,1768.5C 3526.5,1692.83 3526.5,1617.17 3526.5,1541.5C 3498.5,1541.5 3470.5,1541.5 3442.5,1541.5C 3442.5,1641.5 3442.5,1741.5 3442.5,1841.5C 3441.5,1741.33 3441.17,1641 3441.5,1540.5C 3470.17,1540.5 3498.83,1540.5 3527.5,1540.5C 3527.5,1616.17 3527.5,1691.83 3527.5,1767.5C 3576.67,1767.17 3625.67,1767.5 3674.5,1768.5 Z"/></g>
<g><path style="opacity:1" fill="#020202" d="M 866.5,1613.5 C 813.167,1613.5 759.833,1613.5 706.5,1613.5C 706.17,1630.67 706.503,1647.67 707.5,1664.5C 754.997,1665.5 802.664,1665.83 850.5,1665.5C 850.5,1688.17 850.5,1710.83 850.5,1733.5C 802.664,1733.17 754.997,1733.5 707.5,1734.5C 707.5,1770.17 707.5,1805.83 707.5,1841.5C 678.833,1841.5 650.167,1841.5 621.5,1841.5C 621.5,1741.17 621.5,1640.83 621.5,1540.5C 703.167,1540.5 784.833,1540.5 866.5,1540.5C 866.5,1564.83 866.5,1589.17 866.5,1613.5 Z"/></g>
<g><path style="opacity:1" fill="#514b4b" d="M 1000.5,1614.5 C 1053.33,1613.5 1106.33,1613.17 1159.5,1613.5C 1159.5,1589.5 1159.5,1565.5 1159.5,1541.5C 1078.5,1541.5 997.5,1541.5 916.5,1541.5C 916.5,1641.5 916.5,1741.5 916.5,1841.5C 915.501,1741.33 915.167,1641 915.5,1540.5C 997.167,1540.5 1078.83,1540.5 1160.5,1540.5C 1160.5,1565.17 1160.5,1589.83 1160.5,1614.5C 1107.17,1614.5 1053.83,1614.5 1000.5,1614.5 Z"/></g>
<g><path style="opacity:1" fill="#000000" d="M 1000.5,1614.5 C 1000.5,1631.17 1000.5,1647.83 1000.5,1664.5C 1048.5,1664.5 1096.5,1664.5 1144.5,1664.5C 1144.5,1687.5 1144.5,1710.5 1144.5,1733.5C 1096.33,1733.17 1048.33,1733.5 1000.5,1734.5C 1000.5,1770.17 1000.5,1805.83 1000.5,1841.5C 972.5,1841.5 944.5,1841.5 916.5,1841.5C 916.5,1741.5 916.5,1641.5 916.5,1541.5C 997.5,1541.5 1078.5,1541.5 1159.5,1541.5C 1159.5,1565.5 1159.5,1589.5 1159.5,1613.5C 1106.33,1613.17 1053.33,1613.5 1000.5,1614.5 Z"/></g>
<g><path style="opacity:1" fill="#000000" d="M 1574.5,1541.5 C 1574.5,1565.5 1574.5,1589.5 1574.5,1613.5C 1543.83,1613.5 1513.17,1613.5 1482.5,1613.5C 1482.5,1689.5 1482.5,1765.5 1482.5,1841.5C 1454.5,1841.5 1426.5,1841.5 1398.5,1841.5C 1398.5,1765.5 1398.5,1689.5 1398.5,1613.5C 1367.83,1613.5 1337.17,1613.5 1306.5,1613.5C 1306.5,1589.5 1306.5,1565.5 1306.5,1541.5C 1395.83,1541.5 1485.17,1541.5 1574.5,1541.5 Z"/></g>
<g><path style="opacity:1" fill="#868484" d="M 1715.5,1653.5 C 1714.5,1616.34 1714.17,1579 1714.5,1541.5C 1686.5,1541.5 1658.5,1541.5 1630.5,1541.5C 1630.5,1641.5 1630.5,1741.5 1630.5,1841.5C 1629.5,1741.33 1629.17,1641 1629.5,1540.5C 1658.17,1540.5 1686.83,1540.5 1715.5,1540.5C 1715.5,1578.17 1715.5,1615.83 1715.5,1653.5 Z"/></g>
<g><path style="opacity:1" fill="#010101" d="M 1715.5,1653.5 C 1751.5,1653.5 1787.5,1653.5 1823.5,1653.5C 1823.5,1616.17 1823.5,1578.83 1823.5,1541.5C 1851.5,1541.5 1879.5,1541.5 1907.5,1541.5C 1907.5,1641.5 1907.5,1741.5 1907.5,1841.5C 1879.5,1841.5 1851.5,1841.5 1823.5,1841.5C 1823.5,1803.5 1823.5,1765.5 1823.5,1727.5C 1787.5,1727.5 1751.5,1727.5 1715.5,1727.5C 1715.5,1765.5 1715.5,1803.5 1715.5,1841.5C 1687.17,1841.5 1658.83,1841.5 1630.5,1841.5C 1630.5,1741.5 1630.5,1641.5 1630.5,1541.5C 1658.5,1541.5 1686.5,1541.5 1714.5,1541.5C 1714.17,1579 1714.5,1616.34 1715.5,1653.5 Z"/></g>
<g><path style="opacity:1" fill="#4f4f4f" d="M 1823.5,1541.5 C 1851.66,1540.5 1880,1540.17 1908.5,1540.5C 1908.83,1641 1908.5,1741.33 1907.5,1841.5C 1907.5,1741.5 1907.5,1641.5 1907.5,1541.5C 1879.5,1541.5 1851.5,1541.5 1823.5,1541.5 Z"/></g>
<g><path style="opacity:1" fill="#000000" d="M 3162.5,1541.5 C 3190.5,1541.5 3218.5,1541.5 3246.5,1541.5C 3246.17,1617.34 3246.5,1693 3247.5,1768.5C 3296.5,1768.5 3345.5,1768.5 3394.5,1768.5C 3394.5,1792.83 3394.5,1817.17 3394.5,1841.5C 3316.83,1841.67 3239.17,1841.5 3161.5,1841C 3162.5,1741.24 3162.83,1641.4 3162.5,1541.5 Z"/></g>
<g><path style="opacity:1" fill="#474747" d="M 3162.5,1541.5 C 3190.66,1540.5 3219,1540.17 3247.5,1540.5C 3247.5,1616.17 3247.5,1691.83 3247.5,1767.5C 3247.5,1767.83 3247.5,1768.17 3247.5,1768.5C 3246.5,1693 3246.17,1617.34 3246.5,1541.5C 3218.5,1541.5 3190.5,1541.5 3162.5,1541.5 Z"/></g>
<g><path style="opacity:1" fill="#000000" d="M 3674.5,1768.5 C 3674.5,1792.83 3674.5,1817.17 3674.5,1841.5C 3597.17,1841.5 3519.83,1841.5 3442.5,1841.5C 3442.5,1741.5 3442.5,1641.5 3442.5,1541.5C 3470.5,1541.5 3498.5,1541.5 3526.5,1541.5C 3526.5,1617.17 3526.5,1692.83 3526.5,1768.5C 3575.83,1768.5 3625.17,1768.5 3674.5,1768.5 Z"/></g>
<g><path style="opacity:1" fill="#888484" d="M 307.5,1564.5 C 307.027,1565.91 306.027,1566.57 304.5,1566.5C 304.973,1565.09 305.973,1564.43 307.5,1564.5 Z"/></g>
<g><path style="opacity:1" fill="#6a6767" d="M 292.5,1576.5 C 289.769,1580.23 286.436,1583.23 282.5,1585.5C 285.231,1581.77 288.564,1578.77 292.5,1576.5 Z"/></g>
<g><path style="opacity:1" fill="#817d7d" d="M 529.5,1586.5 C 531.262,1587.26 532.262,1588.6 532.5,1590.5C 530.738,1589.74 529.738,1588.4 529.5,1586.5 Z"/></g>
<g><path style="opacity:1" fill="#817878" d="M 534.5,1592.5 C 536.262,1593.26 537.262,1594.6 537.5,1596.5C 535.738,1595.74 534.738,1594.4 534.5,1592.5 Z"/></g>
<g><path style="opacity:1" fill="#8b8787" d="M 272.5,1597.5 C 272.573,1599.03 271.906,1600.03 270.5,1600.5C 270.427,1598.97 271.094,1597.97 272.5,1597.5 Z"/></g>
<g><path style="opacity:1" fill="#8a8383" d="M 538.5,1597.5 C 539.906,1597.97 540.573,1598.97 540.5,1600.5C 539.094,1600.03 538.427,1599.03 538.5,1597.5 Z"/></g>
<g><path style="opacity:1" fill="#938e8e" d="M 269.5,1601.5 C 269.573,1603.03 268.906,1604.03 267.5,1604.5C 267.427,1602.97 268.094,1601.97 269.5,1601.5 Z"/></g>
<g><path style="opacity:1" fill="#8a8383" d="M 267.5,1604.5 C 267.573,1606.03 266.906,1607.03 265.5,1607.5C 265.427,1605.97 266.094,1604.97 267.5,1604.5 Z"/></g>
<g><path style="opacity:1" fill="#aca8a8" d="M 543.5,1604.5 C 544.906,1604.97 545.573,1605.97 545.5,1607.5C 544.094,1607.03 543.427,1606.03 543.5,1604.5 Z"/></g>
<g><path style="opacity:1" fill="#f6e9e9" d="M 2210.5,1540.5 C 2211.5,1564.33 2211.83,1588.33 2211.5,1612.5C 2157.5,1612.5 2103.5,1612.5 2049.5,1612.5C 2049.5,1612.17 2049.5,1611.83 2049.5,1611.5C 2103.17,1611.5 2156.83,1611.5 2210.5,1611.5C 2210.5,1587.83 2210.5,1564.17 2210.5,1540.5 Z"/></g>
<g><path style="opacity:1" fill="#b8abab" d="M 1574.5,1541.5 C 1485.17,1541.5 1395.83,1541.5 1306.5,1541.5C 1306.5,1565.5 1306.5,1589.5 1306.5,1613.5C 1337.17,1613.5 1367.83,1613.5 1398.5,1613.5C 1398.5,1689.5 1398.5,1765.5 1398.5,1841.5C 1397.5,1766 1397.17,1690.34 1397.5,1614.5C 1366.83,1614.5 1336.17,1614.5 1305.5,1614.5C 1305.5,1589.83 1305.5,1565.17 1305.5,1540.5C 1395.33,1540.17 1485,1540.5 1574.5,1541.5 Z"/></g>
<g><path style="opacity:1" fill="#c9b5b6" d="M 866.5,1613.5 C 813.669,1614.5 760.669,1614.83 707.5,1614.5C 707.5,1631.17 707.5,1647.83 707.5,1664.5C 706.503,1647.67 706.17,1630.67 706.5,1613.5C 759.833,1613.5 813.167,1613.5 866.5,1613.5 Z"/></g>
<g><path style="opacity:1" fill="#ababab" d="M 1574.5,1613.5 C 1544.34,1614.5 1514,1614.83 1483.5,1614.5C 1483.83,1690.34 1483.5,1766 1482.5,1841.5C 1482.5,1765.5 1482.5,1689.5 1482.5,1613.5C 1513.17,1613.5 1543.83,1613.5 1574.5,1613.5 Z"/></g>
<g><path style="opacity:1" fill="#8a8383" d="M 445.5,1621.5 C 447.027,1621.43 448.027,1622.09 448.5,1623.5C 446.973,1623.57 445.973,1622.91 445.5,1621.5 Z"/></g>
<g><path style="opacity:1" fill="#8a8383" d="M 448.5,1623.5 C 450.027,1623.43 451.027,1624.09 451.5,1625.5C 449.973,1625.57 448.973,1624.91 448.5,1623.5 Z"/></g>
<g><path style="opacity:1" fill="#817878" d="M 452.5,1626.5 C 454.404,1626.74 455.738,1627.74 456.5,1629.5C 454.596,1629.26 453.262,1628.26 452.5,1626.5 Z"/></g>
<g><path style="opacity:1" fill="#969696" d="M 2049.5,1611.5 C 2049.5,1611.83 2049.5,1612.17 2049.5,1612.5C 2049.5,1627.17 2049.5,1641.83 2049.5,1656.5C 2098.34,1656.17 2147,1656.5 2195.5,1657.5C 2146.5,1657.5 2097.5,1657.5 2048.5,1657.5C 2048.17,1641.99 2048.5,1626.66 2049.5,1611.5 Z"/></g>
<g><path style="opacity:1" fill="#696868" d="M 45.5,1654.5 C 46.4682,1656.61 46.8016,1658.94 46.5,1661.5C 65.5,1661.5 84.5,1661.5 103.5,1661.5C 84.9098,1662.5 65.5765,1662.83 45.5,1662.5C 45.5,1659.83 45.5,1657.17 45.5,1654.5 Z"/></g>
<g><path style="opacity:1" fill="#666666" d="M 193.5,1653.5 C 194.477,1656.29 194.81,1659.29 194.5,1662.5C 175.167,1662.5 155.833,1662.5 136.5,1662.5C 136.5,1660.83 136.5,1659.17 136.5,1657.5C 137.434,1658.57 137.768,1659.9 137.5,1661.5C 156.167,1661.5 174.833,1661.5 193.5,1661.5C 193.5,1658.83 193.5,1656.17 193.5,1653.5 Z"/></g>
<g><path style="opacity:1" fill="#696868" d="M 3652.5,1653.5 C 3652.5,1656.17 3652.5,1658.83 3652.5,1661.5C 3671.58,1661.82 3690.58,1661.49 3709.5,1660.5C 3690.53,1662.49 3671.2,1663.15 3651.5,1662.5C 3651.19,1659.29 3651.52,1656.29 3652.5,1653.5 Z"/></g>
<g><path style="opacity:1" fill="#696868" d="M 3800.5,1654.5 C 3800.5,1657.17 3800.5,1659.83 3800.5,1662.5C 3780.42,1662.83 3761.09,1662.5 3742.5,1661.5C 3761.5,1661.5 3780.5,1661.5 3799.5,1661.5C 3799.2,1658.94 3799.53,1656.61 3800.5,1654.5 Z"/></g>
<g><path style="opacity:1" fill="#545454" d="M 707.5,1664.5 C 755.5,1664.5 803.5,1664.5 851.5,1664.5C 851.5,1687.83 851.5,1711.17 851.5,1734.5C 803.5,1734.5 755.5,1734.5 707.5,1734.5C 754.997,1733.5 802.664,1733.17 850.5,1733.5C 850.5,1710.83 850.5,1688.17 850.5,1665.5C 802.664,1665.83 754.997,1665.5 707.5,1664.5 Z"/></g>
<g><path style="opacity:1" fill="#bbb7b7" d="M 2677.5,1710.5 C 2677.72,1711.68 2677.39,1712.68 2676.5,1713.5C 2675.7,1713.04 2675.37,1712.38 2675.5,1711.5C 2676.17,1711.17 2676.83,1710.83 2677.5,1710.5 Z"/></g>
<g><path style="opacity:1" fill="#ababab" d="M 2195.5,1722.5 C 2147,1723.5 2098.34,1723.83 2049.5,1723.5C 2049.5,1739.17 2049.5,1754.83 2049.5,1770.5C 2048.5,1754.68 2048.17,1738.68 2048.5,1722.5C 2097.5,1722.5 2146.5,1722.5 2195.5,1722.5 Z"/></g>
<g><path style="opacity:1" fill="#7a7a7a" d="M 2983.5,1720.5 C 2984.4,1721.21 2984.74,1722.21 2984.5,1723.5C 2961.82,1723.83 2939.16,1723.5 2916.5,1722.5C 2916.62,1721.89 2916.96,1721.56 2917.5,1721.5C 2928.33,1722.17 2939.33,1722.5 2950.5,1722.5C 2961.85,1722.5 2972.85,1721.83 2983.5,1720.5 Z"/></g>
<g><path style="opacity:1" fill="#848484" d="M 1144.5,1664.5 C 1145.5,1687.66 1145.83,1710.99 1145.5,1734.5C 1097.17,1734.5 1048.83,1734.5 1000.5,1734.5C 1048.33,1733.5 1096.33,1733.17 1144.5,1733.5C 1144.5,1710.5 1144.5,1687.5 1144.5,1664.5 Z"/></g>
<g><path style="opacity:1" fill="#948c8c" d="M 340.5,1736.5 C 341.906,1736.97 342.573,1737.97 342.5,1739.5C 341.094,1739.03 340.427,1738.03 340.5,1736.5 Z"/></g>
<g><path style="opacity:1" fill="#817878" d="M 342.5,1739.5 C 344.262,1740.26 345.262,1741.6 345.5,1743.5C 343.738,1742.74 342.738,1741.4 342.5,1739.5 Z"/></g>
<g><path style="opacity:1" fill="#817878" d="M 467.5,1741.5 C 467.262,1743.4 466.262,1744.74 464.5,1745.5C 464.738,1743.6 465.738,1742.26 467.5,1741.5 Z"/></g>
<g><path style="opacity:1" fill="#7e7878" d="M 456.5,1753.5 C 455.738,1755.26 454.404,1756.26 452.5,1756.5C 453.262,1754.74 454.596,1753.74 456.5,1753.5 Z"/></g>
<g><path style="opacity:1" fill="#c9c4c4" d="M 3247.5,1768.5 C 3247.5,1768.17 3247.5,1767.83 3247.5,1767.5C 3296.83,1767.5 3346.17,1767.5 3395.5,1767.5C 3395.83,1792.34 3395.5,1817.01 3394.5,1841.5C 3394.5,1817.17 3394.5,1792.83 3394.5,1768.5C 3345.5,1768.5 3296.5,1768.5 3247.5,1768.5 Z"/></g>
<g><path style="opacity:1" fill="#938e8e" d="M 291.5,1806.5 C 293.027,1806.43 294.027,1807.09 294.5,1808.5C 292.973,1808.57 291.973,1807.91 291.5,1806.5 Z"/></g>
<g><path style="opacity:1" fill="#817878" d="M 296.5,1810.5 C 298.404,1810.74 299.738,1811.74 300.5,1813.5C 298.596,1813.26 297.262,1812.26 296.5,1810.5 Z"/></g>
<g><path style="opacity:1" fill="#938e8e" d="M 301.5,1814.5 C 303.027,1814.43 304.027,1815.09 304.5,1816.5C 302.973,1816.57 301.973,1815.91 301.5,1814.5 Z"/></g>
<g><path style="opacity:1" fill="#262626" d="M 2781.5,1839.5 C 2811,1840.5 2840.66,1840.83 2870.5,1840.5C 2840.66,1841.83 2810.66,1841.83 2780.5,1840.5C 2780.62,1839.89 2780.96,1839.56 2781.5,1839.5 Z"/></g>
<g><path style="opacity:1" fill="#262626" d="M 3121.5,1838.5 C 3122.27,1839.17 3122.93,1840.01 3123.5,1841C 3092.66,1841.83 3062,1841.66 3031.5,1840.5C 3061.85,1841.16 3091.85,1840.49 3121.5,1838.5 Z"/></g>
<g><path style="opacity:1" fill="#f1c4c5" d="M 2444.5,1842.5 C 2469.43,1843.49 2494.43,1843.82 2519.5,1843.5C 2507.17,1844.17 2494.67,1844.5 2482,1844.5C 2469.15,1844.5 2456.65,1843.83 2444.5,1842.5 Z"/></g>
</svg>
