<?xml version="1.0" encoding="utf-8"?>
<!-- Generator: Adobe Illustrator 24.2.0, SVG Export Plug-In . SVG Version: 6.00 Build 0)  -->
<svg version="1.1" id="Layer_1" xmlns="http://www.w3.org/2000/svg" xmlns:xlink="http://www.w3.org/1999/xlink" x="0px" y="0px"
	 viewBox="0 0 1000 1000" style="enable-background:new 0 0 1000 1000;" xml:space="preserve">
<style type="text/css">
	.st0{fill-rule:evenodd;clip-rule:evenodd;fill:#010101;}
</style>
<g>
	<path class="st0" d="M428.9,483.9l-95.2,3.4l90.4,5L428.9,483.9z M417.5,503.9l-95.5,3.4l90.8,5L417.5,503.9L417.5,503.9z
		 M406.1,524.1l-95.3,3.3l90.7,5L406.1,524.1z M395,544.1l-95.5,3.4l90.6,5L395,544.1z M511.7,382.9l-121.6,4.3L512,394L511.7,382.9
		L511.7,382.9z M510.9,363l-109.2,3.8l109.5,6.3L510.9,363L510.9,363z M510.1,343.8l-97.3,3.2l97.8,5.4L510.1,343.8z M509.5,324.2
		l-85.3,2.9l85.6,5.1L509.5,324.2z M508.9,308.3h-74.2l74.3,3.9L508.9,308.3z M383.5,564.2l-95.2,3.4h93.3L383.5,564.2z"/>
	<path class="st0" d="M706.2,308.9H569l-3.9,6.9l68.7,3.6c0.8,0,0.8,1.1-0.3,1.1l-72.3,2.4l-7,12.2l68.2,4c0.9,0.1,0.7,1.4-0.1,1.4
		l-72.5,2.4l-6.7,11.7l68.1,3.8c1.5,0.1,1.5,1.4,0,1.4l-72.3,2.5l-6.9,12.2l67.9,3.9c1.5,0.1,1.4,1.5,0,1.5l-72.3,2.6l-7,12.1
		l68,3.8c1,0.1,1.2,1.4-0.2,1.4l-208.4,7l197.8,11c1.3,0,1.1,1.6-0.2,1.6l-208.8,7.4l197.8,11c0.9,0,1.1,1.5-0.2,1.5L357,446.8
		l197.8,11c0.8,0.1,1.6,1.6-0.1,1.7L345.9,467l197.8,11c0.6,0.1,1.1,1.6-0.2,1.6l-105.1,3.7l0.3,9.5l93.6,5.2c0.7,0.1,1,1.5-0.2,1.5
		l-93.1,3.3l0.5,10.6l81.3,4.5c0.8,0.1,1.1,1.7-0.2,1.7l-80.6,2.8l0.3,11.6l69.3,3.8c0.8,0.1,1,1.6-0.3,1.6l-68.6,2.4l0.5,12.8
		l57.2,3.2c0.8,0.1,0.8,1.5-0.3,1.5l-56.7,2.1l0.2,5.5h184.8c49,0,92.9-35.7,101.2-64.1c8.2-28.4,8.2-54-31.1-66.8
		c22-5,60.2-29.8,67.8-64.1C771,340.8,759.6,309,706.2,308.9L706.2,308.9z M613.3,507.7h-56.8l32-56.8h42.1
		C674.2,450.9,653.1,507.7,613.3,507.7z M686.8,385.9c-1.8,6.9-15.6,24.3-33,24.3h-42.1l27-47.6h21.5
		C687.7,363.5,688.6,379,686.8,385.9L686.8,385.9z M914.2,649.3c0-22-18.3-40.4-40.3-40.4c-22.6,0-41,18.7-41,41.7
		c-0.1,22.6,18.2,41,40.8,41.1c0.1,0,0.2,0,0.4,0c16.7,0,32.6-11.4,37.3-27h-20.9c-4.1,6.6-9.6,9.6-17,9.6
		c-9.4,0-17.8-6.4-20.6-15.6h60.3C913.9,654.3,914.2,652.2,914.2,649.3z M852.3,643.8c2.7-10.7,11.3-17.6,21.9-17.6
		c10.6,0,18.9,6.7,21.4,17.6H852.3z M643.4,612.7v6.4c-6-6.4-14.7-10.1-24-10.1c-20.6,0-38.1,17.6-38.1,40.4
		c0,21.6,15.5,40.9,38.5,40.9c10.1,0,17.9-2.3,25.1-10.6v10.1h17.4v-77.2H643.4L643.4,612.7z M622.1,674c-13.2,0-24-10.7-24-24
		s10.7-24,24-24s24,10.7,24,24S635.3,674,622.1,674z M123.8,608.9c-7.9,0-13.9,2.7-20.4,9.4v-7.6H85.8v79.1h19v-37.3
		c0-10.1,0.9-26.3,14.9-26.3c13.1,0,14.6,15.1,14.6,24.9v38.7h19v-42.4c0-11.1-0.9-16.4-3.9-22.7C145,615.3,134.5,608.9,123.8,608.9
		L123.8,608.9z M241.9,649.3c0-22-18.3-40.4-40.3-40.4c-22.6,0-41,18.7-41,41.7c-0.1,22.6,18.2,41,40.8,41.1c0.1,0,0.2,0,0.3,0
		c16.7,0,32.6-11.4,37.3-27h-20.9c-4.1,6.6-9.6,9.6-17,9.6c-9.4,0-17.9-6.4-20.6-15.6h60.3C241.6,654.3,241.9,652.2,241.9,649.3
		L241.9,649.3z M180,643.8c2.7-10.7,11.3-17.6,21.9-17.6c10.6,0,18.9,6.7,21.4,17.6H180z M554.5,689.8h19V584.2h-19V689.8z
		 M712.5,608.9c-7.9,0-13.9,2.7-20.4,9.4v-7.6h-17.6v79.1h19v-37.3c0-10.1,0.9-26.3,14.9-26.3c13.1,0,14.6,15.1,14.6,24.9v38.7h19
		v-42.4c0-11.1-0.9-16.4-3.9-22.7C733.6,615.3,723.2,608.9,712.5,608.9L712.5,608.9z M789.4,626.3c8.7,0,13.7,2.9,18.4,10.9h21.4
		c-5.9-17-20.9-28.3-39.1-28.3c-23.1,0-41.7,18.4-41.7,41.1c0,22.9,18.7,41.7,41.7,41.7c11.9-0.1,23.2-5.1,31.1-13.9
		c4-4.4,5.4-7,8-14h-21.4c-4.4,6.9-10.1,10.4-17.3,10.4c-13.3,0-23.1-10.3-23.1-24C767.4,636.4,776.8,626.3,789.4,626.3L789.4,626.3
		z M314.5,659L301,610.7h-15.3L272.2,659l-16.1-48.3h-16.8l26.4,79.1h12.2l15.4-51.3l15,51.3h12.8l25.3-79.1h-15.7L314.5,659
		L314.5,659z M416.3,609c-9.3,0-18,3.7-24,10.1v-34.8h-19v105.6h17.4v-10.1c7.3,8.3,15,10.6,25.1,10.6c23,0,38.5-19.3,38.5-40.9
		C454.4,626.5,436.9,609,416.3,609L416.3,609z M413.6,674c-13.2,0-24-10.7-24-24s10.7-24,24-24l0,0c13.2,0,24,10.7,24,24
		S426.9,674,413.6,674z M522.8,612.7v6.4c-6-6.4-14.7-10.1-24-10.1c-20.6,0-38.1,17.6-38.1,40.4c0,21.6,15.5,40.9,38.5,40.9
		c10.1,0,17.9-2.3,25.1-10.6v10.1h17.4v-77.2H522.8L522.8,612.7z M501.5,674c-13.2,0-24-10.7-24-24s10.7-24,24-24s24,10.7,24,24
		S514.7,674,501.5,674z"/>
</g>
</svg>
