<svg width="80" height="54" viewBox="0 0 80 54" fill="none" xmlns="http://www.w3.org/2000/svg">
<g id="Converse_logo 1" clip-path="url(#clip0_8121_69039)">
<g id="g3284">
<g id="g3222">
<path id="path3086" d="M30.0142 30.2012L29.9813 22.0875L37.7495 19.2057L29.9264 16.6435L29.7625 8.64941L25.0169 15.0993L17.2539 12.7061L21.7601 19.4768L17.3616 26.2599L25.0235 23.7206L30.0142 30.2012Z" fill="black"/>
<path id="path3088" d="M30.9844 38.7302H44.8985L62.3372 19.4447L44.8145 0.135742H31.0345L47.423 19.4164L30.9844 38.7302Z" fill="black"/>
</g>
<g id="g3274">
<path id="path3226" d="M0 49.1106C0 46.6043 2.1188 44.1396 5.01453 44.1396C6.98701 44.1396 9.20058 46.3635 9.20058 46.3635L6.80233 47.7588C6.80233 47.7588 6.40617 46.7123 4.92733 46.7123C3.42401 46.7123 2.53944 47.9467 2.52907 49.067C2.51747 50.3193 3.54413 51.4216 4.84012 51.4216C5.85696 51.4216 6.93314 50.3315 6.93314 50.3315L8.98256 51.8141C8.98256 51.8141 7.44896 53.6891 4.88372 53.6891C2.3134 53.6891 0 52.1391 0 49.1106Z" fill="black"/>
<path id="path3231" fill-rule="evenodd" clip-rule="evenodd" d="M14.954 44.2666C12.2568 44.2666 10.0742 46.421 10.0742 49.07C10.0742 51.7191 12.2568 53.865 14.954 53.865C17.6512 53.865 19.8424 51.7191 19.8424 49.07C19.8424 46.421 17.6512 44.2666 14.954 44.2666ZM14.954 46.6683C16.3026 46.6683 17.3982 47.7455 17.3982 49.07C17.3982 50.3946 16.3026 51.4633 14.954 51.4633C13.6054 51.4633 12.5184 50.3946 12.5184 49.07C12.5184 47.7455 13.6054 46.6683 14.954 46.6683Z" fill="black"/>
<path id="rect3234" fill-rule="evenodd" clip-rule="evenodd" d="M21.6758 44.4028V53.3817H24.0266V48.529L27.905 53.3817H30.2218V44.4028H27.8625V49.6501L24.0266 44.4028H21.6758Z" fill="black"/>
<path id="path3239" fill-rule="evenodd" clip-rule="evenodd" d="M32.1406 44.4028L35.3146 53.3817H38.8111L41.9851 44.4028H39.4137L37.0629 51.5316L34.7121 44.4028H32.1406Z" fill="black"/>
<path id="path3246" fill-rule="evenodd" clip-rule="evenodd" d="M43.6719 44.4028V53.3817H50.894V51.311H46.0227V49.8088H50.4018V47.9757H46.0227V46.5415H50.894V44.4028H43.6719Z" fill="black"/>
<path id="path3258" fill-rule="evenodd" clip-rule="evenodd" d="M72.7773 44.4028V53.3817H79.9995V51.311H75.1281V49.8088H79.5073V47.9757H75.1281V46.5415H79.9995V44.4028H72.7773Z" fill="black"/>
<path id="rect3260" fill-rule="evenodd" clip-rule="evenodd" d="M53.5508 44.5723V53.4238H55.6385V49.9358H56.8351L58.6682 53.4238H61.3585L59.5424 49.6388C61.9036 48.223 61.4362 45.2598 58.804 44.5723H53.5508ZM55.5961 46.7109H58.0063C58.8437 46.7109 58.7893 48.0094 58.0063 48.0094H55.5961V46.7109Z" fill="black"/>
<path id="path3272" d="M62.6133 52.1841C62.7058 52.7391 64.8939 53.7874 67.0533 53.7874C69.0362 53.7874 70.6299 52.8353 70.6299 50.9455C70.6299 48.6213 67.9166 48.0833 67.9166 48.0833C67.9166 48.0833 65.6623 48.0515 65.6041 47.0041C65.5767 46.5114 66.2634 46.2333 66.8683 46.2333C67.8587 46.2333 68.9649 47.22 68.9649 47.22L70.5374 45.5242C70.5374 45.5242 68.5477 43.9517 66.8683 43.9517C65.2644 43.9517 62.9833 45.002 62.9833 47.1891C62.9833 49.05 65.6239 49.906 65.6239 49.906C65.6239 49.906 68.4099 50.2027 68.4099 51.0741C68.4099 51.6671 67.3996 51.8449 66.8066 51.8449C65.367 51.8449 64.1549 50.5808 64.1549 50.5808L62.6133 52.1841Z" fill="black"/>
</g>
</g>
</g>
<defs>
<clipPath id="clip0_8121_69039">
<rect width="80" height="53.7296" fill="white" transform="translate(0 0.135254)"/>
</clipPath>
</defs>
</svg>
