<svg width="80" height="80" viewBox="0 0 80 80" fill="none" xmlns="http://www.w3.org/2000/svg">
<g id="Brand logos">
<path id="Vector" d="M44.5208 11.3994V11.1807C44.5208 10.1598 44.8504 9.24691 45.5067 8.44483C46.1629 7.64275 47 7.24316 48.0208 7.24316C49.0417 7.24316 49.9546 7.56983 50.7567 8.22608C51.5588 8.88233 51.9963 9.75733 52.0692 10.8511C52.1421 11.9448 51.8125 12.8577 51.0833 13.5869C50.3542 14.3161 49.4792 14.6807 48.4583 14.6807L47.8021 14.8994L48.0208 15.2261L47.8021 16.4307L47.3646 19.9307C47.5104 20.0765 47.5833 20.2223 47.5833 20.3682L47.1458 22.5557C47 22.8473 46.8542 23.0661 46.7083 23.2119L46.4896 24.0869C46.1078 25.6335 45.67 27.1658 45.1771 28.6807V29.1182C45.0312 29.8473 44.9233 30.4307 44.8504 30.8682C44.7775 31.3057 44.5208 32.0348 44.0833 33.0557C43.7917 33.639 43.7917 34.5869 44.0833 35.8994L44.3021 36.1182C44.3021 36.5557 44.4858 37.0661 44.8504 37.6494C45.215 38.2328 45.3958 38.7432 45.3958 39.1807C45.5417 42.0973 45.3229 44.5765 44.7396 46.6182L45.1771 47.9307C46.9271 48.8057 47.4375 49.7536 46.7083 50.7744L47.8021 51.2119C49.5521 52.0869 50.7917 52.8511 51.5208 53.5073C52.25 54.1636 52.9792 54.8578 53.7083 55.5869C54.2917 55.7328 54.7292 55.9515 55.0208 56.2432L55.6771 56.4619C58.7396 58.5036 61.8021 60.9828 64.8646 63.8994L65.7396 64.5557V64.7744L65.5208 65.2119L66.1771 65.6494H66.3958C66.8333 65.9411 67.125 66.0869 67.2708 66.0869H67.4896C67.6354 66.0869 67.7813 66.014 67.9271 65.8682L68.3646 65.6494C68.6563 65.3578 68.9479 65.139 69.2396 64.9932H70.1146C70.2604 64.9932 70.2604 65.0661 70.1146 65.2119L69.2396 65.6494L68.1458 66.9619H69.6771L71.2083 67.1807C71.6458 67.0348 72.0104 66.889 72.3021 66.7432L73.3958 66.0869C73.8333 65.9411 74.2708 66.0869 74.7083 66.5244H74.9271C75.0729 66.6703 75 66.889 74.7083 67.1807L72.0833 69.5869C71.3542 70.1703 70.6979 70.5348 70.1146 70.6807L67.2708 72.6494C67.125 72.7953 66.9792 72.7953 66.8333 72.6494L66.1771 71.7744L65.7396 70.8994L65.1912 70.1323L64.535 69.2573L63.9896 68.6011L63.5521 68.0557L62.6771 67.3994C62.3854 67.3994 62.0938 67.3265 61.8021 67.1807L58.9583 64.9932C58.5208 64.9932 58.0104 64.7744 57.4271 64.3369C55.2396 62.4411 53.7813 61.2744 53.0521 60.8369L51.7396 59.9619L49.1146 59.5244C48.2396 59.3786 47.0729 58.9411 45.6146 58.2119L43.8646 57.3369C42.6979 56.7536 41.8958 56.4619 41.4583 56.4619L40.5833 56.0244C40 55.8786 39.5625 55.7328 39.2708 55.5869L38.8333 55.1494C38.5417 55.1494 38.25 55.2223 37.9583 55.3682L33.5833 57.5557L28.1146 59.9619C26.6563 61.1286 25.2708 62.0765 23.9583 62.8057L21.5521 63.8994L17.8333 66.5244C17.5417 66.8161 17.25 66.8161 16.9583 66.5244L16.5208 66.9619C16.0833 67.1078 15.7917 67.1807 15.6458 67.1807L14.7708 67.6182V68.0557H14.3333L13.8958 68.7119C13.6042 69.2953 13.3125 69.6219 13.0208 69.6948C12.7292 69.7678 12.5483 69.8786 12.4754 70.0244C12.42 70.144 12.3462 70.2543 12.2567 70.3511L11.8192 70.7886L11.1629 71.2261L10.1771 71.1182L8.86458 71.3369L7.98958 71.5557C7.26042 71.7015 6.67708 71.5907 6.23958 71.2261C5.80208 70.8615 5.4375 70.3161 5.14583 69.5869C4.85417 69.1494 5 68.7848 5.58333 68.4932L5.80208 68.2744C5.94792 68.1286 6.16667 68.0557 6.45833 68.0557H7.77083L9.52083 67.3994L10.3958 67.1807C10.3958 66.889 10.4688 66.6703 10.6146 66.5244C10.7604 66.3786 10.9792 66.3057 11.2708 66.3057V66.0869C11.1303 65.8165 11.0553 65.5167 11.0521 65.2119C10.9063 64.9203 10.8683 64.7015 10.9442 64.5557C11.0171 64.4098 11.09 64.3369 11.1629 64.3369H11.2708L11.4896 64.9932C11.6354 65.7223 11.8542 65.9411 12.1458 65.6494L12.3646 65.2119C12.5104 64.9203 12.7292 64.7744 13.0208 64.7744L13.4583 65.2119L13.8958 64.7744L13.6771 64.5557C13.6771 64.4098 13.75 64.3369 13.8958 64.3369L14.7708 63.4619C15.5 62.5869 16.375 61.7848 17.3958 61.0557C19.4375 59.4515 21.625 58.2119 23.9583 57.3369C24.6875 56.6078 25.4896 56.2432 26.3646 56.2432C26.9479 55.2223 27.8229 54.1286 28.9896 52.9619C30.0104 52.2328 30.7396 51.7223 31.1771 51.4307C31.4688 50.8473 31.8333 50.5557 32.2708 50.5557H32.4896L32.9271 50.1182C33.2188 49.9723 33.4375 49.8265 33.5833 49.6807V48.5869C33.5833 47.8578 33.6562 47.2744 33.8021 46.8369C33.9479 46.3994 34.3125 46.1807 34.8958 46.1807L35.7708 45.3057C35.4792 44.7223 35.3333 44.0661 35.3333 43.3369H35.1146C34.8229 42.8994 34.6771 42.4619 34.6771 42.0244C34.2396 41.2952 33.9479 40.7119 33.8021 40.2744H33.1458C33 40.7119 32.6354 41.0036 32.0521 41.1494L31.8333 41.5869C31.25 42.6077 30.7396 43.3719 30.3021 43.8823C29.8646 44.3928 29.0625 45.014 27.8958 45.7432C27.1667 46.4723 26.6562 47.2744 26.3646 48.1494C26.2188 48.5869 26.2188 49.0244 26.3646 49.4619L26.1458 49.8994H26.3646C26.3646 50.1911 26.4375 50.3369 26.5833 50.3369H26.8021C27.0938 50.4827 27.2396 50.6636 27.2396 50.8823C27.2396 51.1011 27.0208 51.174 26.5833 51.1011C26.2182 51.0609 25.8746 50.908 25.6004 50.6636C25.3817 50.4448 25.1979 50.3369 25.0521 50.3369L24.3958 50.9932C24.1042 51.4307 23.8125 51.6115 23.5208 51.5386C23.2292 51.4657 23.1562 51.3577 23.3021 51.2119L23.5208 50.9932C23.6667 50.7015 23.6667 50.5557 23.5208 50.5557L21.7708 50.9932C21.625 51.139 21.4442 51.139 21.2254 50.9932C21.0067 50.8473 21.0417 50.7015 21.3333 50.5557L22.4271 50.1182C22.4271 49.9723 22.3542 49.8994 22.2083 49.8994C21.625 50.1911 21.0417 50.264 20.4583 50.1182L19.3646 49.8994L19.1458 49.6807C19.1458 49.5348 19.2188 49.4619 19.3646 49.4619C19.9479 49.6078 20.6771 49.5348 21.5521 49.2432L23.0833 48.5869L24.8333 46.6182L25.0521 46.1807C25.6354 45.014 26.2567 43.9552 26.9129 43.0073C27.4906 42.1459 28.1901 41.3727 28.9896 40.7119L29.2083 39.8369C29.5 39.2536 29.7917 38.7432 30.0833 38.3057C30.375 37.8682 30.7396 37.2848 31.1771 36.5557L31.8333 35.6807C32.4167 34.8057 33.0729 34.3682 33.8021 34.3682L34.4583 33.7119C34.6042 33.5661 34.6771 33.3473 34.6771 33.0557L35.1146 32.6182L34.8958 32.3994C34.0208 31.6702 33.5833 31.014 33.5833 30.4307C33.4375 29.4098 33.7671 28.5348 34.5692 27.8057C35.3713 27.0765 36.1733 26.7469 36.9754 26.8198C37.7775 26.8927 38.3958 27.1494 38.8333 27.5869L39.2708 28.0244C39.4167 28.0244 39.4896 28.0973 39.4896 28.2432L40.3646 28.6807V29.3369C40.6562 29.6286 40.8021 29.8473 40.8021 29.9932C41.0938 29.5557 41.5313 29.0452 42.1146 28.4619L43.2083 24.9619C43.2083 24.3786 43.3542 23.7952 43.6458 23.2119L44.0833 22.5557V22.1182L44.7396 19.4932H45.1771L45.8333 16.8682C45.9799 16.3683 45.9799 15.8368 45.8333 15.3369L44.9583 13.1494L44.5208 11.3994Z" fill="black"/>
</g>
</svg>
