<svg width="80" height="80" viewBox="0 0 80 80" fill="none" xmlns="http://www.w3.org/2000/svg">
<g id="Brand logos">
<path id="Vector" d="M79.9994 26.0005L21.4727 50.9205C16.6194 52.9738 12.5427 54.0038 9.24605 54.0038C5.51271 54.0038 2.80271 52.6972 1.12271 50.0805C0.0660461 48.4005 -0.243954 46.2705 0.189379 43.6872C0.622713 41.1038 1.77605 38.3538 3.64271 35.4272C5.19938 33.0605 7.74938 29.9505 11.2994 26.0938C10.0953 27.9894 9.21228 30.0707 8.68605 32.2538C7.75271 36.2372 8.59271 39.1605 11.206 41.0272C12.4494 41.8972 14.1594 42.3338 16.3394 42.3338C18.0794 42.3338 20.0394 42.0538 22.2194 41.4938L79.9994 26.0005Z" fill="black"/>
</g>
</svg>
