<svg width="80" height="34" viewBox="0 0 80 34" fill="none" xmlns="http://www.w3.org/2000/svg">
<g id="Vans-logo 1">
<g id="layer1">
<path id="path69" d="M77.9447 3.62174C77.393 4.91551 78.4644 6.96573 76.9207 7.36762L28.9652 7.20687L23.8771 7.31257L23.157 8.41365L17.155 31.1829L16.3237 31.5606L8.22299 31.4186L7.46215 29.8385C5.20713 20.5553 2.67023 11.4262 0.5 2.15399C2.57554 1.88203 4.99352 1.72457 7.10099 2.16831C9.29765 8.94988 10.2963 16.1675 12.21 23.1891L12.4611 23.3928L13.0534 22.7233L18.2186 2.47L18.7967 1.98553L73.2607 2.07362C74.8209 2.56029 78.079 0.96152 77.9447 3.62174Z" fill="black"/>
<path id="path73" d="M78.0173 12.3679C78.1528 13.8918 76.7027 15.2891 75.6445 16.1788C73.6703 15.3023 71.2336 13.4944 68.8068 14.8013C68.0481 15.3706 67.5152 16.3924 68.0691 17.2347C71.4296 19.7485 77.4261 18.3788 78.6901 23.4779C79.3144 25.6723 78.8145 28.479 77.0759 30.0337C74.2748 32.6466 70.2129 33.1993 66.2974 32.0729C64.5797 31.3066 62.6594 30.7913 61.1719 29.4149C61.7433 27.8547 62.7497 26.5202 63.8299 25.3552C66.0133 25.8959 67.916 27.6664 70.6137 27.3504C71.5055 27.3361 72.6275 26.7195 73.068 25.7659C73.3862 21.9672 68.5348 23.4349 66.3029 22.3537C64.0325 21.8097 62.2388 19.8729 61.7918 17.7016C61.3525 15.4312 61.9812 13.2543 63.7143 11.7943C67.7729 9.01845 74.1569 9.45668 78.0173 12.3679Z" fill="black"/>
<path id="path77" d="M59.4863 11.2644C59.6482 17.7873 59.6206 24.5611 59.4357 31.0487C57.3337 31.5904 54.9675 31.1214 52.7411 31.117C50.943 28.1209 49.8419 25.2559 47.7796 22.2367C47.5186 22.1255 47.4008 22.4735 47.2181 22.5417L47.0485 30.9177C45.6446 31.6862 43.6605 30.9881 42.032 31.2964L41.6741 30.1921C41.7402 24.0502 41.499 17.3424 41.9956 11.3239C43.8146 10.9418 45.867 10.9319 47.9084 11.0123L48.4997 11.4186L53.0736 19.6415L53.7089 19.5193C53.5515 17.0958 54.0789 14.0271 53.9457 11.3349C55.518 10.6644 57.8083 11.031 59.4863 11.2644Z" fill="black"/>
<path id="path81" d="M31.571 21.9493C31.4323 20.3318 30.7661 18.7693 30.089 17.3688C29.1718 18.6295 29.2048 20.4155 28.8084 21.8975C29.5582 22.5857 30.743 22.2466 31.571 21.9493ZM36.4213 16.2038L40.089 31.0486C38.5222 31.6245 36.505 31.1907 34.7223 31.2171C33.8426 29.985 34.3964 27.6265 32.3704 27.3666C30.4865 27.4811 28.0454 26.7445 26.7681 28.2376L25.8894 31.2798C24.1795 31.499 22.1226 31.5122 20.5547 31.1026C22.2735 24.3827 24.2543 17.7762 26.3178 11.1708C28.8624 10.6709 32.1447 10.8581 34.7818 11.1675L36.4213 16.2038Z" fill="black"/>
<path id="path85" d="M78.8533 8.93876C78.8125 8.92004 78.7542 8.91013 78.6771 8.91013H78.6066V9.24156H78.7212C78.7927 9.24376 78.8467 9.22834 78.8852 9.20412C78.9249 9.17219 78.9447 9.12594 78.9447 9.06428C78.9458 9.00152 78.9127 8.95858 78.8533 8.93876ZM78.316 9.84055V8.72074C78.3875 8.71854 78.4899 8.72074 78.6298 8.72074C78.7685 8.72295 78.8467 8.72074 78.8588 8.72074C78.9513 8.72735 79.0251 8.74607 79.0823 8.7813C79.1825 8.83305 79.231 8.92444 79.231 9.04556C79.231 9.14136 79.2067 9.20962 79.1539 9.24816C79.1021 9.2911 79.0383 9.31643 78.9612 9.32194C79.0328 9.33735 79.0845 9.36157 79.1208 9.3891C79.1869 9.44526 79.2244 9.53114 79.2232 9.64455L79.2244 9.74255C79.2232 9.75356 79.2277 9.76457 79.2232 9.77778C79.2232 9.78659 79.2277 9.79981 79.2277 9.80861L79.2354 9.84495L78.9579 9.83944C78.9491 9.80751 78.9425 9.75356 78.9403 9.68419C78.9392 9.61923 78.9326 9.57518 78.9205 9.54876C78.905 9.50802 78.8764 9.47939 78.839 9.46398C78.8147 9.45737 78.7806 9.44966 78.7344 9.44746H78.6705L78.6066 9.44526V9.84165L78.316 9.84055ZM78.1728 8.69762C78.011 8.85838 77.9306 9.05327 77.9306 9.2823C77.9306 9.51132 78.0132 9.71172 78.1772 9.87688C78.3413 10.0398 78.5351 10.1202 78.763 10.1169C78.9931 10.1213 79.1924 10.0354 79.3576 9.87248C79.5161 9.70842 79.5987 9.50912 79.5987 9.2823C79.5987 9.05327 79.5161 8.85838 79.3554 8.69872C79.1869 8.52806 78.9931 8.44437 78.763 8.44437C78.5351 8.44437 78.3369 8.52806 78.1728 8.69762ZM79.4732 10.0068C79.2739 10.1962 79.0383 10.2942 78.763 10.292C78.4767 10.2887 78.2367 10.1929 78.0407 9.9991C77.8491 9.80421 77.7544 9.56087 77.75 9.27789C77.75 8.9828 77.8568 8.73616 78.0682 8.54237C78.2664 8.35519 78.4965 8.266 78.7652 8.2627C79.0427 8.2627 79.286 8.36179 79.4776 8.55889C79.678 8.76149 79.776 8.99822 79.776 9.27789C79.7771 9.56638 79.678 9.81192 79.4732 10.0068Z" fill="black"/>
</g>
</g>
</svg>
