<svg width="80" height="50" viewBox="0 0 80 50" fill="none" xmlns="http://www.w3.org/2000/svg">
<g id="Salomon_logo 1" clip-path="url(#clip0_8121_69008)">
<g id="layer1">
<g id="g154">
<path id="path156" d="M2.51822 42.6884C2.51822 42.076 2.8873 41.6645 5.08053 41.6645C6.53234 41.6645 8.04132 41.7037 9.90467 42.29V40.1702C8.98034 39.8991 7.48443 39.6542 5.13769 39.6542C1.15133 39.6542 0 40.8659 0 42.7015C0 44.9356 1.66738 45.5169 5.08053 45.8893C6.95858 46.0885 7.9123 46.1293 7.9123 46.8414C7.9123 47.4832 7.42728 47.7657 5.29283 47.7804C3.78713 47.7804 1.99237 47.6122 0.31192 47.0112V49.2632C2.06259 49.7205 3.48664 49.861 5.32223 49.861C8.32547 49.861 10.4469 49.2632 10.4469 46.7712C10.4469 44.4081 8.73538 44.0962 5.43654 43.7401C3.82959 43.5703 2.51822 43.4544 2.51822 42.6884ZM18.9993 46.0444C18.9993 47.4832 17.7614 47.7804 16.0108 47.7804C13.976 47.7804 13.5791 47.3999 13.5791 46.8136C13.5791 46.1898 14.2323 46.0575 15.8818 45.8174C17.234 45.6329 18.6743 45.303 18.9993 44.965V46.0444ZM21.2481 46.5017V42.9465C21.2481 39.9971 18.6743 39.5872 16.2672 39.5872C15.0848 39.5872 13.3929 39.842 12.026 40.1702V42.2736C13.7326 41.9323 15.2857 41.7233 16.2672 41.7233C17.3646 41.7233 18.7707 41.7919 18.7707 42.5872C18.7707 43.2682 17.9313 43.4984 16.2672 43.7107C13.2639 44.1125 11.1001 44.493 11.1001 46.8136C11.1001 49.2061 12.9798 49.8903 16.2672 49.8903C19.953 49.8903 21.2481 48.592 21.2481 46.5017ZM26.603 49.7205C27.4277 49.7205 28.4827 49.696 29.2404 49.585L28.9105 47.6024C28.2818 47.6742 27.3428 47.7183 26.6193 47.7183C25.3226 47.7183 24.4375 47.1925 24.4375 46.2094V39.726H22.1871V46.3923C22.1871 49.1424 24.609 49.7254 26.603 49.7254V49.7205ZM37.4565 44.8229C37.4434 45.2361 37.4156 45.6198 37.3715 45.9889C37.218 47.1843 36.5044 47.7657 35.1963 47.7657H33.9862C32.6764 47.7657 31.9644 47.1843 31.8076 45.9889C31.7635 45.6198 31.7358 45.2361 31.7227 44.8229C31.7358 44.395 31.7635 44.0112 31.8076 43.6552C31.9644 42.4467 32.6764 41.8654 33.9862 41.8654H35.1963C36.5044 41.8654 37.218 42.4467 37.3715 43.6552C37.4156 44.0112 37.4434 44.395 37.4565 44.8229ZM39.5778 46.9149C39.6922 46.3172 39.7346 45.6639 39.7477 44.9748V44.8229V44.6661C39.7346 43.9655 39.6922 43.3139 39.5778 42.7276C39.279 40.6634 37.8435 39.6542 35.1963 39.6542H33.9862C31.3357 39.6542 29.9002 40.6634 29.6013 42.7276C29.487 43.3139 29.4462 43.9655 29.4315 44.6661V44.8229V44.9748C29.4462 45.6639 29.487 46.3172 29.6013 46.9149C29.9002 48.9644 31.3357 49.9736 33.9862 49.9736H35.1963C37.8435 49.9736 39.279 48.9644 39.5778 46.9149ZM55.4906 49.647H57.7819V44.9748C57.7819 44.1827 57.741 43.4299 57.6104 42.7276C57.3132 40.6814 55.876 39.6672 53.2272 39.6672H52.5837C51.0519 39.6672 49.912 40.0118 49.1706 40.7108C48.4455 40.0118 47.3056 39.6672 45.7705 39.6672H45.1287C42.4815 39.6672 41.0444 40.6814 40.7455 42.7276C40.6165 43.4299 40.574 44.1827 40.574 44.9748V49.647H42.8652V44.9748C42.8652 44.511 42.9077 44.0668 42.9632 43.6552C43.1069 42.4582 43.819 41.8768 45.1287 41.8768H45.7705C47.0786 41.8768 47.789 42.4582 47.9458 43.6552C48.0046 44.0668 48.0323 44.511 48.0323 44.9748V49.647H50.3236V44.9748C50.3236 44.511 50.3546 44.0668 50.4085 43.6552C50.5669 42.4582 51.2773 41.8768 52.5837 41.8768H53.2272C54.5369 41.8768 55.2489 42.4582 55.391 43.6552C55.4612 44.0668 55.4906 44.511 55.4906 44.9748V49.647ZM66.7328 44.8229C66.7328 45.2361 66.7067 45.6198 66.6479 45.9889C66.5074 47.1843 65.7791 47.7657 64.471 47.7657H63.2756C61.9658 47.7657 61.2391 47.1843 61.097 45.9889C61.0415 45.6198 61.0121 45.2361 61.0121 44.8229C61.0121 44.395 61.0415 44.0112 61.097 43.6552C61.2391 42.4467 61.9658 41.8654 63.2756 41.8654H64.471C65.7791 41.8654 66.5074 42.4467 66.6479 43.6552C66.7067 44.0112 66.7328 44.395 66.7328 44.8229ZM68.8672 46.9149C68.9685 46.3172 69.0142 45.6639 69.024 44.9748V44.8229V44.6661C69.0142 43.9655 68.9685 43.3139 68.8672 42.7276C68.5717 40.6634 67.1198 39.6542 64.471 39.6542H63.2756C60.6153 39.6542 59.1781 40.6634 58.8777 42.7276C58.778 43.3139 58.7209 43.9655 58.7209 44.6661V44.8229V44.9748C58.7209 45.6639 58.778 46.3172 58.8777 46.9149C59.1781 48.9644 60.6153 49.9736 63.2756 49.9736H64.471C67.1198 49.9736 68.5717 48.9644 68.8672 46.9149ZM80 49.6307V44.9748C80 44.168 79.9428 43.4119 79.8285 42.7276C79.5297 40.6634 78.0909 39.6542 75.447 39.6542H74.3789C71.73 39.6542 70.2782 40.6634 69.9794 42.7276C69.8651 43.4119 69.8242 44.168 69.8242 44.9748V49.6307H72.1122V44.9748C72.1122 44.493 72.1432 44.0521 72.2004 43.6552C72.3588 42.4467 73.0675 41.8654 74.3789 41.8654H75.447C76.7534 41.8654 77.4671 42.4467 77.6075 43.6552C77.6663 44.0521 77.6941 44.493 77.6941 44.9748V49.6307H80Z" fill="black"/>
</g>
<g id="g158">
<path id="path160" d="M54.1636 0.0229721C55.9763 0.0229721 57.4461 1.49112 57.4461 3.30711V31.9857C57.4461 33.8001 55.9763 35.2666 54.1636 35.2666H25.4801C23.669 35.2666 22.1992 33.8001 22.1992 31.9857V3.30711C22.1992 1.49112 23.669 0.0229721 25.4801 0.0229721H54.1636ZM37.2742 26.2356C36.9427 26.2356 36.51 26.1066 36.0527 25.8519L33.2323 24.2661C32.8143 24.031 32.3603 23.8775 31.9977 23.8775H28.3609C27.9999 23.8775 27.7125 24.1681 27.7125 24.5274V28.2411C27.7125 28.9547 28.3102 29.51 29.0027 29.5933C36.2536 30.2971 43.3885 30.2955 50.6378 29.59C51.3498 29.5165 51.9328 28.9482 51.9328 28.2313V22.0549C51.9328 21.0392 51.3661 20.0675 50.5316 19.5971L35.9122 11.3746C35.566 11.2014 35.3407 10.7654 35.3407 10.3228C35.3407 9.62388 35.7816 9.05884 36.4789 9.05884H42.3711C42.7026 9.05884 43.137 9.18458 43.5943 9.44261L46.4146 11.0283C46.8311 11.2586 47.2867 11.4154 47.6476 11.4154H51.2845C51.6421 11.4154 51.9328 11.1214 51.9328 10.7654V7.05341C51.9328 6.33648 51.3351 5.7845 50.6427 5.70121C43.3934 4.99572 36.2568 4.99572 29.0092 5.70121C28.2939 5.7747 27.7125 6.34465 27.7125 7.06484V13.2363C27.7125 14.2586 28.2792 15.2237 29.1153 15.6973L43.7331 23.9199C44.0793 24.093 44.3063 24.5356 44.3063 24.9716C44.3063 25.6657 43.8654 26.2356 43.1664 26.2356H37.2742Z" fill="#12110C"/>
</g>
</g>
</g>
<defs>
<clipPath id="clip0_8121_69008">
<rect width="80" height="49.9512" fill="white" transform="translate(0 0.0244141)"/>
</clipPath>
</defs>
</svg>
