<svg width="80" height="80" viewBox="0 0 80 80" fill="none" xmlns="http://www.w3.org/2000/svg">
<g id="Brand logos">
<path id="Vector" d="M39.7867 59.8397C39.7867 57.693 41.51 55.973 43.66 55.973C45.8067 55.973 47.5267 57.693 47.5267 59.8397C47.5284 60.3481 47.4296 60.8519 47.236 61.322C47.0423 61.7921 46.7576 62.2192 46.3983 62.5789C46.0389 62.9386 45.612 63.2237 45.142 63.4177C44.6721 63.6118 44.1684 63.711 43.66 63.7097C43.1513 63.7119 42.6472 63.6134 42.1767 63.42C41.7062 63.2265 41.2786 62.9419 40.9186 62.5825C40.5586 62.2231 40.2732 61.796 40.0789 61.3258C39.8847 60.8557 39.7853 60.3517 39.7867 59.843M55.5333 59.843C55.5333 57.693 57.2567 55.9697 59.4033 55.9697C61.55 55.9697 63.2733 57.693 63.2733 59.8397C63.2733 61.9863 61.55 63.7097 59.4067 63.7097C58.898 63.7119 58.3938 63.6134 57.9233 63.42C57.4529 63.2265 57.0253 62.9419 56.6653 62.5825C56.3052 62.2231 56.0199 61.796 55.8256 61.3258C55.6313 60.8557 55.532 60.3517 55.5333 59.843ZM19.0333 59.843C19.0333 57.693 20.7567 55.9697 22.9033 55.9697C25.05 55.9697 26.77 57.693 26.77 59.8397C26.77 61.9863 25.05 63.7097 22.9033 63.7097C22.3949 63.7114 21.8911 63.6126 21.421 63.419C20.9509 63.2253 20.5238 62.9406 20.1641 62.5813C19.8044 62.2219 19.5194 61.795 19.3253 61.3251C19.1312 60.8551 19.032 60.3514 19.0333 59.843ZM3.28667 59.843C3.28667 57.693 5.01 55.9697 7.15667 55.9697C9.30333 55.9697 11.0267 57.693 11.0267 59.8397C11.0284 60.3484 10.9295 60.8524 10.7357 61.3227C10.5418 61.7931 10.2568 62.2204 9.8971 62.5801C9.53738 62.9398 9.11006 63.2248 8.63973 63.4187C8.16941 63.6125 7.66538 63.7114 7.15667 63.7097C6.64852 63.711 6.14512 63.6119 5.6754 63.418C5.20568 63.2242 4.77889 62.9394 4.41958 62.5801C4.06026 62.2208 3.7755 61.794 3.58165 61.3243C3.38779 60.8546 3.28868 60.3512 3.29 59.843M35.1233 53.003H31.7567V66.5463H35.1233V53.003ZM11 66.5463H14.3667V53.003H11V54.0897C9.82646 53.2729 8.42976 52.8376 7 52.843C3.12667 52.843 0 55.9697 0 59.843C0 63.7363 3.12667 66.8397 7 66.8397C8.48333 66.8397 9.86 66.3897 11 65.593V66.5463ZM63.2467 66.5463H66.6133V53.003H63.2467V54.0897C62.0731 53.2729 60.6764 52.8376 59.2467 52.843C55.3733 52.843 52.2467 55.9697 52.2467 59.843C52.2436 60.763 52.4226 61.6744 52.7733 62.5249C53.124 63.3754 53.6396 64.1481 54.2902 64.7985C54.9409 65.4488 55.7138 65.964 56.5645 66.3143C57.4151 66.6646 58.3267 66.8432 59.2467 66.8397C60.73 66.8397 62.1067 66.3897 63.2467 65.593V66.5463ZM67.86 62.1463C67.9667 64.8797 70.3 66.813 74.1933 66.813C77.3767 66.813 80 65.433 80 62.3863C80 60.2663 78.8067 59.0197 76.05 58.4863L73.9033 58.0663C72.5233 57.7997 71.57 57.533 71.57 56.713C71.57 55.813 72.4967 55.413 73.6633 55.413C75.3633 55.413 76.05 56.263 76.1033 57.2697H79.4967C79.31 54.6197 77.19 52.843 73.77 52.843C70.2467 52.843 68.15 54.7763 68.15 57.2963C68.15 60.3697 70.6433 60.873 72.79 61.273L74.5667 61.5897C75.84 61.8297 76.3967 62.1997 76.3967 62.943C76.3967 63.6063 75.76 64.2663 74.2467 64.2663C72.0467 64.2663 71.3333 63.1263 71.3067 62.1463H67.86ZM26.7467 48.3897V54.0897C25.5731 53.2729 24.1764 52.8376 22.7467 52.843C18.8733 52.843 15.7467 55.9697 15.7467 59.843C15.7467 63.7363 18.8733 66.8397 22.7467 66.8397C24.2267 66.8397 25.6067 66.3897 26.7467 65.593V66.5463H30.1133V48.3897H26.7467ZM47.5 48.3897V54.0897C46.3265 53.2729 44.9298 52.8376 43.5 52.843C39.63 52.843 36.5 55.9697 36.5 59.843C36.4969 60.763 36.6759 61.6744 37.0266 62.5249C37.3774 63.3754 37.8929 64.1481 38.5436 64.7985C39.1942 65.4488 39.9672 65.964 40.8178 66.3143C41.6685 66.6646 42.58 66.8432 43.5 66.8397C44.9833 66.8397 46.36 66.3897 47.5 65.593V66.5463H50.8667V48.3897H47.5ZM8.74667 44.3897L11.0267 48.3897H26.7467L20.5167 37.6263L8.75 44.3863L8.74667 44.3897ZM35.1233 51.7563V48.3897H47.5L34.3 25.5397L22.5033 32.2997L31.7567 48.3897V51.7563H35.1233ZM52.5133 48.3897H68.2567L47.9 13.1597L36.13 19.9463L52.5133 48.3897Z" fill="black"/>
</g>
</svg>
