<svg xmlns="http://www.w3.org/2000/svg" enable-background="new 0 0 64 64" viewBox="0 0 64 64" id="cinema">
  <path fill="#1c243a" d="M44.69,32c0-12.32-10.02-22.35-22.34-22.35C10.03,9.65,0,19.68,0,32c0,12.32,10.03,22.35,22.35,22.35
		C34.66,54.35,44.69,44.32,44.69,32z M8.9,37.78c-3.18,0-5.77-2.59-5.77-5.78c0-3.19,2.59-5.78,5.77-5.78
		c3.19,0,5.78,2.59,5.78,5.78C14.69,35.19,12.09,37.78,8.9,37.78z M22.78,51.65c-3.19,0-5.78-2.59-5.78-5.77
		c0-3.19,2.59-5.78,5.78-5.78c3.19,0,5.78,2.59,5.78,5.78C28.56,49.06,25.97,51.65,22.78,51.65z M18.95,32
		c0-1.87,1.52-3.39,3.39-3.39c1.87,0,3.39,1.52,3.39,3.39s-1.52,3.39-3.39,3.39C20.48,35.39,18.95,33.87,18.95,32z M22.78,23.91
		c-3.19,0-5.78-2.59-5.78-5.78c0-3.19,2.59-5.78,5.78-5.78c3.19,0,5.78,2.59,5.78,5.78C28.56,21.31,25.97,23.91,22.78,23.91z
		 M30.87,32c0-3.19,2.59-5.78,5.78-5.78c3.19,0,5.78,2.59,5.78,5.78c0,3.19-2.59,5.78-5.78,5.78C33.46,37.78,30.87,35.19,30.87,32z"></path>
  <path fill="#1c243a" d="M42.5,44.83l-0.06,0.09c-2.59,4.03-6.28,7.16-10.68,9.05l0.08,0.38H64v-9.52H42.5z"></path>
  <circle cx="22.35" cy="32" r="1.83" fill="#1c243a"></circle>
  <path fill="#1c243a" d="M22.78 13.91c-2.33 0-4.22 1.89-4.22 4.22 0 2.33 1.89 4.22 4.22 4.22 2.33 0 4.22-1.89 4.22-4.22C27 15.8 25.1 13.91 22.78 13.91zM8.9 27.78c-2.32 0-4.21 1.89-4.21 4.22 0 2.33 1.89 4.22 4.21 4.22 2.33 0 4.22-1.89 4.22-4.22C13.12 29.67 11.23 27.78 8.9 27.78zM22.78 41.66c-2.33 0-4.22 1.89-4.22 4.22 0 2.32 1.89 4.21 4.22 4.21 2.33 0 4.22-1.89 4.22-4.21C27 43.55 25.1 41.66 22.78 41.66zM36.65 27.78c-2.33 0-4.22 1.89-4.22 4.22 0 2.33 1.89 4.22 4.22 4.22 2.33 0 4.22-1.89 4.22-4.22C40.87 29.67 38.98 27.78 36.65 27.78z"></path>
</svg>
