<svg xmlns="http://www.w3.org/2000/svg" viewBox="0 0 64 64" id="info">
  <path fill="#222" d="M48.18 7.66H15.82a5.5 5.5 0 0 0-5.5 5.5v37.68a5.5 5.5 0 0 0 5.5 5.5h32.36a5.5 5.5 0 0 0 5.5-5.5V13.16a5.5 5.5 0 0 0-5.5-5.5ZM33.5 41.85a1.5 1.5 0 0 1-3 0V28.12a1.5 1.5 0 0 1 3 0Zm.46-18.81a1.577 1.577 0 0 1-.11.37 2.37 2.37 0 0 1-.19.35 1.425 1.425 0 0 1-.25.3A2 2 0 0 1 30 22.65a1.722 1.722 0 0 1 .04-.39 1.657 1.657 0 0 1 .11-.38 2.268 2.268 0 0 1 .19-.34 1.789 1.789 0 0 1 .25-.31 2.069 2.069 0 0 1 2.82 0 1.789 1.789 0 0 1 .25.31 2.268 2.268 0 0 1 .19.34 1.657 1.657 0 0 1 .11.38 1.921 1.921 0 0 1 0 .78Z"></path>
</svg>
