<svg xmlns="http://www.w3.org/2000/svg" viewBox="0 0 64 64" id="sofa">
  <path d="M18,51H10a1,1,0,0,1-1-1V41H6a3,3,0,0,1-3-3V34a3,3,0,0,1,3-3H16a3,3,0,0,1,3,3V50A1,1,0,0,1,18,51Zm-7-2h6V34a1,1,0,0,0-1-1H6a1,1,0,0,0-1,1v4a1,1,0,0,0,1,1h4a1,1,0,0,1,1,1Z"></path>
  <path d="M16 57H12a1 1 0 01-.95-.68l-2-6a1 1 0 01.14-.9A1 1 0 0110 49h8a1 1 0 01.81.42 1 1 0 01.14.9l-2 6A1 1 0 0116 57zm-3.28-2h2.56l1.33-4H11.39zM54 51H46a1 1 0 01-1-1V34a3 3 0 013-3H58a3 3 0 013 3v4a3 3 0 01-3 3H55v9A1 1 0 0154 51zm-7-2h6V40a1 1 0 011-1h4a1 1 0 001-1V34a1 1 0 00-1-1H48a1 1 0 00-1 1z"></path>
  <path d="M52,57H48a1,1,0,0,1-1-.68l-2-6a1,1,0,0,1,.14-.9A1,1,0,0,1,46,49h8a1,1,0,0,1,.81.42,1,1,0,0,1,.14.9l-2,6A1,1,0,0,1,52,57Zm-3.28-2h2.56l1.33-4H47.39Z"></path>
  <path d="M46,51H18a1,1,0,0,1-1-1V40a1,1,0,0,1,1-1H46a1,1,0,0,1,1,1V50A1,1,0,0,1,46,51ZM19,49H45V41H19Z"></path>
  <path d="M46,41H18a1,1,0,0,1-1-1V32a.41.41,0,0,1,0-.11l2-18A1,1,0,0,1,20,13H44a1,1,0,0,1,1,.89l2,18A.41.41,0,0,1,47,32v8A1,1,0,0,1,46,41ZM19,39H45V32.06L43.1,15H20.9L19,32.06Z"></path>
</svg>
